<?xml version="1.0" encoding="utf-8"?>
<!-- Generator: Adobe Illustrator 22.0.0, SVG Export Plug-In . SVG Version: 6.00 Build 0)  -->
<svg version="1.1" id="图层_1" xmlns="http://www.w3.org/2000/svg" xmlns:xlink="http://www.w3.org/1999/xlink" x="0px" y="0px"
	 viewBox="0 0 426.3 328.3" enable-background="new 0 0 426.3 328.3" xml:space="preserve">
<rect x="60.8" y="206.8" width="7.7" height="53.9"/>
<polygon points="143.7,206.8 151,206.8 151,260.7 143.2,260.7 143.2,218.8 126.7,239.7 125.3,239.7 108.5,218.8 108.5,260.7 
	100.8,260.7 100.8,206.8 108.2,206.8 126,229 "/>
<g>
	<defs>
		<rect id="SVGID_1_" width="426.3" height="328.3"/>
	</defs>
	<clipPath id="SVGID_2_">
		<use xlink:href="#SVGID_1_"  overflow="visible"/>
	</clipPath>
	<path clip-path="url(#SVGID_2_)" d="M204.3,213.4c-6.2,0-11.2,1.9-15.2,5.8c-4,3.9-5.9,8.8-5.9,14.8c0,5.8,2,10.7,6,14.5
		c4,3.9,9,5.8,14.9,5.8c6,0,11-2,15-5.9c4-3.9,6-8.8,6-14.7c0-5.7-2-10.5-6-14.4C215.1,215.4,210.2,213.4,204.3,213.4 M204,206.1
		c8.3,0,15.2,2.6,20.8,7.9c5.5,5.3,8.3,11.9,8.3,19.8c0,7.9-2.8,14.5-8.4,19.7c-5.6,5.2-12.6,7.8-21.1,7.8c-8.1,0-14.9-2.6-20.3-7.8
		c-5.4-5.2-8.1-11.7-8.1-19.6c0-8,2.7-14.7,8.2-20C188.8,208.7,195.7,206.1,204,206.1"/>
	<polygon clip-path="url(#SVGID_2_)" points="296.5,206.8 303.8,206.8 303.8,260.7 297.2,260.7 261.1,219.2 261.1,260.7 
		253.9,260.7 253.9,206.8 260.1,206.8 296.5,248.7 	"/>
	<polygon clip-path="url(#SVGID_2_)" points="360.8,206.8 368.5,206.8 368.5,253.7 392.8,253.7 392.8,260.7 360.8,260.7 	"/>
	<rect x="418.5" y="206.8" clip-path="url(#SVGID_2_)" width="7.7" height="53.9"/>
	<path clip-path="url(#SVGID_2_)" d="M16.1,238.1l-5.9-3.6c-3.7-2.2-6.3-4.5-7.9-6.6c-1.6-2.2-2.3-4.7-2.3-7.5
		c0-4.2,1.5-7.7,4.4-10.3c2.9-2.6,6.8-4,11.5-4c4.5,0,8.6,1.3,12.4,3.8v8.7c-3.9-3.7-8.1-5.6-12.6-5.6c-2.5,0-4.6,0.6-6.2,1.8
		c-1.6,1.2-2.4,2.7-2.4,4.5c0,1.6,0.6,3.1,1.8,4.5c1.2,1.4,3.1,2.9,5.8,4.4l5.9,3.5c6.6,3.9,9.9,8.9,9.9,15c0,4.3-1.5,7.8-4.3,10.6
		c-2.9,2.7-6.7,4.1-11.3,4.1c-5.3,0-10.2-1.6-14.5-5v-9.8c4.2,5.3,9,7.9,14.5,7.9c2.4,0,4.4-0.7,6-2c1.6-1.3,2.4-3,2.4-5.1
		C23.2,244.2,20.8,241.1,16.1,238.1"/>
	<polygon clip-path="url(#SVGID_2_)" points="1,298.6 16.6,298.6 16.6,302.4 5.2,302.4 5.2,310.5 16.6,310.5 16.6,314.3 5.2,314.3 
		5.2,327.9 1,327.9 	"/>
	<path clip-path="url(#SVGID_2_)" d="M68.3,298.6h4.2v16.7c0,2.3-0.2,4-0.5,5.1c-0.3,1.2-0.7,2.1-1.2,2.9c-0.5,0.8-1.1,1.4-1.8,2.1
		c-2.3,2-5.4,3-9.1,3c-3.8,0-6.9-1-9.2-3c-0.7-0.6-1.3-1.3-1.8-2.1c-0.5-0.8-0.9-1.7-1.2-2.8c-0.3-1.1-0.5-2.8-0.5-5.2v-16.6h4.2
		v16.7c0,2.8,0.3,4.7,0.9,5.8c0.6,1.1,1.6,2,2.9,2.6c1.3,0.7,2.8,1,4.6,1c2.5,0,4.5-0.6,6.1-1.9c0.8-0.7,1.4-1.6,1.8-2.5
		c0.4-1,0.6-2.6,0.6-4.9V298.6z"/>
	<path clip-path="url(#SVGID_2_)" d="M110.7,302.2h-1.3v9.2h1.6c2.1,0,3.6-0.2,4.4-0.5c0.8-0.4,1.4-0.9,1.8-1.6
		c0.4-0.7,0.7-1.5,0.7-2.5c0-0.9-0.2-1.7-0.7-2.5c-0.5-0.7-1.2-1.3-2.1-1.6C114.2,302.4,112.8,302.2,110.7,302.2 M105.2,327.9v-29.3
		h7.4c3,0,5.3,0.7,7.1,2.2c1.7,1.5,2.6,3.4,2.6,5.9c0,1.7-0.4,3.2-1.3,4.4c-0.9,1.2-2.1,2.2-3.7,2.8c1,0.6,1.9,1.5,2.8,2.5
		c0.9,1.1,2.2,2.9,3.8,5.6c1,1.7,1.8,2.9,2.5,3.8l1.6,2.1h-5l-1.3-1.9c0-0.1-0.1-0.2-0.3-0.4l-0.8-1.2l-1.3-2.2l-1.4-2.3
		c-0.9-1.2-1.7-2.2-2.4-2.9c-0.7-0.7-1.4-1.2-2-1.5c-0.6-0.3-1.6-0.5-3-0.5h-1.1v12.8H105.2z"/>
	<polygon clip-path="url(#SVGID_2_)" points="178.5,298.6 182.5,298.6 182.5,327.9 178.9,327.9 159.3,305.3 159.3,327.9 
		155.3,327.9 155.3,298.6 158.7,298.6 178.5,321.4 	"/>
	<rect x="215.6" y="298.6" clip-path="url(#SVGID_2_)" width="4.2" height="29.3"/>
	<polygon clip-path="url(#SVGID_2_)" points="249.3,298.6 273.8,298.6 273.8,302.4 263.6,302.4 263.6,327.9 259.4,327.9 
		259.4,302.4 249.3,302.4 	"/>
	<path clip-path="url(#SVGID_2_)" d="M322.3,298.6h4.2v16.7c0,2.3-0.2,4-0.5,5.1c-0.3,1.2-0.7,2.1-1.2,2.9c-0.5,0.8-1.1,1.4-1.8,2.1
		c-2.3,2-5.4,3-9.1,3c-3.8,0-6.9-1-9.2-3c-0.7-0.6-1.3-1.3-1.8-2.1c-0.5-0.8-0.9-1.7-1.2-2.8c-0.3-1.1-0.5-2.8-0.5-5.2v-16.6h4.2
		v16.7c0,2.8,0.3,4.7,1,5.8c0.6,1.1,1.6,2,2.9,2.6c1.3,0.7,2.8,1,4.6,1c2.5,0,4.5-0.6,6.1-1.9c0.8-0.7,1.4-1.6,1.8-2.5
		c0.4-1,0.6-2.6,0.6-4.9V298.6z"/>
	<path clip-path="url(#SVGID_2_)" d="M363.3,302.2h-1.3v9.2h1.6c2.1,0,3.6-0.2,4.4-0.5c0.8-0.4,1.4-0.9,1.8-1.6
		c0.4-0.7,0.7-1.5,0.7-2.5c0-0.9-0.2-1.7-0.7-2.5c-0.5-0.7-1.2-1.3-2.1-1.6C366.8,302.4,365.4,302.2,363.3,302.2 M357.9,327.9v-29.3
		h7.4c3,0,5.3,0.7,7.1,2.2c1.7,1.5,2.6,3.4,2.6,5.9c0,1.7-0.4,3.2-1.3,4.4c-0.9,1.2-2.1,2.2-3.7,2.8c1,0.6,1.9,1.5,2.8,2.5
		c0.9,1.1,2.2,2.9,3.8,5.6c1,1.7,1.8,2.9,2.5,3.8l1.6,2.1h-5l-1.3-1.9c0-0.1-0.1-0.2-0.3-0.4l-0.8-1.2l-1.3-2.2l-1.4-2.3
		c-0.9-1.2-1.7-2.2-2.4-2.9c-0.7-0.7-1.4-1.2-2-1.5c-0.6-0.3-1.6-0.5-3-0.5h-1.1v12.8H357.9z"/>
	<polygon clip-path="url(#SVGID_2_)" points="409.2,298.6 425.8,298.6 425.8,302.4 413.4,302.4 413.4,311.3 425.4,311.3 
		425.4,315.1 413.4,315.1 413.4,324.1 426.2,324.1 426.2,327.9 409.2,327.9 	"/>
	<rect x="1" y="279.2" clip-path="url(#SVGID_2_)" width="425.2" height="1"/>
	<path clip-path="url(#SVGID_2_)" fill="#F08000" d="M299.1,92.2c0,4.6-3.7,8.3-8.3,8.3h-20.1c-4.6,0-8.3-3.7-8.3-8.3V8.3
		c0-4.6,3.7-8.3,8.3-8.3h20.1c4.6,0,8.3,3.7,8.3,8.3V92.2z"/>
	<path clip-path="url(#SVGID_2_)" fill="#DA5102" d="M203.8,59.9c0-6.8,5.6-12.4,12.4-12.4H246c4.6,0,8.3-3.7,8.3-8.3v-31
		c0-4.6-3.7-8.3-8.3-8.3h-63.4c-4.6,0-8.3,3.7-8.3,8.3v26.9c0,6.8-5.6,12.4-12.4,12.4h-23.3c-4.6,0-8.3,3.7-8.3,8.3v36.4
		c0,4.6,3.7,8.3,8.3,8.3h56.9c4.6,0,8.3-3.7,8.3-8.3V59.9z"/>
	<path clip-path="url(#SVGID_2_)" fill="#DA5102" d="M254.2,64c0-4.6-3.7-8.3-8.3-8.3h-25.2c-4.6,0-8.3,3.7-8.3,8.3v80.7
		c0,4.3,3.3,7.8,7.4,8.2c0.3,0,0.6,0,0.8,0h70.1c4.6,0,8.3-3.7,8.3-8.3V117c0-4.6-3.7-8.3-8.3-8.3h-24.3c-6.8,0-12.4-5.6-12.4-12.4
		V64z"/>
	<path clip-path="url(#SVGID_2_)" fill="#F08000" d="M203.8,117c0-4.6-3.7-8.3-8.3-8.3h-57c-4.6,0-8.3,3.7-8.3,8.3v27.8
		c0,4.6,3.7,8.3,8.3,8.3h57c4.6,0,8.3-3.7,8.3-8.3V117z"/>
	<path clip-path="url(#SVGID_2_)" fill="#F08000" d="M166.1,8.3c0-4.6-3.7-8.3-8.3-8.3h-19.2c-4.6,0-8.3,3.7-8.3,8.3V31
		c0,4.6,3.7,8.3,8.3,8.3h19.2c4.6,0,8.3-3.7,8.3-8.3V8.3z"/>
</g>
</svg>
