<?xml version="1.0" encoding="utf-8"?>
<!-- Generator: Adobe Illustrator 22.0.0, SVG Export Plug-In . SVG Version: 6.00 Build 0)  -->
<svg version="1.1" id="图层_1" xmlns="http://www.w3.org/2000/svg" xmlns:xlink="http://www.w3.org/1999/xlink" x="0px" y="0px"
	 viewBox="0 0 893 302.7" enable-background="new 0 0 893 302.7" xml:space="preserve">

<g>
	<path fill="none" stroke="#B7B7B7" stroke-miterlimit="10" d="M203.2,264.1c0,6.9-5.6,12.4-12.4,12.4c-6.9,0-12.4-5.5-12.4-12.4
		s5.6-12.4,12.4-12.4c4,0,7.5,1.9,9.8,4.8 M190.7,255.2v8 M191.4,265.1l4.1,4.2"/>
	<circle fill="none" stroke="#B7B7B7" stroke-miterlimit="10" cx="190.8" cy="264.1" r="1"/>
	<path fill="none" stroke="#B7B7B7" stroke-miterlimit="10" d="M199,256.7l2,0.4l0.1-2"/>
	<path fill="none" stroke="#B7B7B7" stroke-miterlimit="10" d="M211.7,240.4h2.6c2.9,0,5.3,2.4,5.3,5.3v35c0,3-2.4,5.3-5.3,5.3
		h-47.1c-2.9,0-5.3-2.4-5.3-5.3v-35c0-2.9,2.4-5.3,5.3-5.3h3.7 M178.7,240.4h24.5"/>
	<path fill="none" stroke="#B7B7B7" stroke-miterlimit="10" d="M175.6,233.8h-1.2c-1.7,0-3.1,1.4-3.1,3.1v5.4c0,1.7,1.4,3.1,3.1,3.1
		h1.2c1.7,0,3.1-1.4,3.1-3.1v-5.4C178.7,235.2,177.3,233.8,175.6,233.8z M208.1,233.8h-1.2c-1.7,0-3.1,1.4-3.1,3.1v5.4
		c0,1.7,1.4,3.1,3.1,3.1h1.2c1.7,0,3.1-1.4,3.1-3.1v-5.4C211.2,235.2,209.8,233.8,208.1,233.8z"/>
</g>

</svg>
