<?xml version="1.0" encoding="utf-8"?>
<!-- Generator: Adobe Illustrator 22.0.0, SVG Export Plug-In . SVG Version: 6.00 Build 0)  -->
<svg version="1.1" id="图层_1" xmlns="http://www.w3.org/2000/svg" xmlns:xlink="http://www.w3.org/1999/xlink" x="0px" y="0px"
	 viewBox="0 0 53.9 56.7" enable-background="new 0 0 53.9 56.7" xml:space="preserve">
<g>
	<path fill="none" stroke="#000000" stroke-width="2" stroke-linecap="round" stroke-linejoin="round" stroke-miterlimit="10" d="
		M52.4,34.6c-2.9,11.3-13.1,19.6-25.3,19.6C12.7,54.3,1,42.6,1,28.1S12.7,2,27.1,2c11.9,0,22,8,25.1,18.9"/>
	<path fill="none" stroke="#000000" stroke-width="2" stroke-linecap="round" stroke-linejoin="round" stroke-miterlimit="10" d="
		M31.8,25.8c0.5-0.9,0.9-1.9,0.9-3c0-3.1-2.5-5.7-5.7-5.7s-5.7,2.5-5.7,5.7c0,0.8,0.2,1.6,0.5,2.4l5.2,9.7L31.8,25.8z"/>
	
		<polyline fill="none" stroke="#000000" stroke-width="2" stroke-linecap="round" stroke-linejoin="round" stroke-miterlimit="10" points="
		25.9,32.9 21.3,32.9 15.9,38.4 37.8,38.4 32.3,32.9 28,32.9 	"/>
	
		<circle fill="none" stroke="#000000" stroke-width="2" stroke-linecap="round" stroke-linejoin="round" stroke-miterlimit="10" cx="26.9" cy="22.9" r="2.4"/>
</g>
</svg>
