<?xml version="1.0" encoding="utf-8"?>
<!-- Generator: Adobe Illustrator 22.0.0, SVG Export Plug-In . SVG Version: 6.00 Build 0)  -->
<svg version="1.1" id="图层_1" xmlns="http://www.w3.org/2000/svg" xmlns:xlink="http://www.w3.org/1999/xlink" x="0px" y="0px"
	 viewBox="0 0 53.9 56.7" enable-background="new 0 0 53.9 56.7" xml:space="preserve">
<g>
	<path fill="none" stroke="#000000" stroke-width="2" stroke-linecap="round" stroke-linejoin="round" stroke-miterlimit="10" d="
		M52.4,34.6c-2.9,11.3-13.1,19.6-25.3,19.6C12.7,54.3,1,42.6,1,28.1S12.7,2,27.1,2c11.9,0,22,8,25.1,18.9"/>
	<g>
		<defs>
			<rect id="SVGID_1_" x="13.4" y="14.1" width="27.8" height="28.4"/>
		</defs>
		<clipPath id="SVGID_2_">
			<use xlink:href="#SVGID_1_"  overflow="visible"/>
		</clipPath>
		
			<polyline clip-path="url(#SVGID_2_)" fill="none" stroke="#BA6A2F" stroke-width="2" stroke-linecap="round" stroke-linejoin="round" stroke-miterlimit="10" points="
			18.2,20.6 14,23.8 14,41.9 40.6,41.9 40.6,23.4 36.4,20.6 		"/>
	</g>
	
		<polyline fill="none" stroke="#BA6A2F" stroke-width="2" stroke-linecap="round" stroke-linejoin="round" stroke-miterlimit="10" points="
		36.3,27.7 36.3,17.3 18.6,17.3 18.6,27.7 	"/>
	<g>
		<defs>
			<rect id="SVGID_3_" x="13.4" y="14.1" width="27.8" height="28.4"/>
		</defs>
		<clipPath id="SVGID_4_">
			<use xlink:href="#SVGID_3_"  overflow="visible"/>
		</clipPath>
		
			<polyline clip-path="url(#SVGID_4_)" fill="none" stroke="#BA6A2F" stroke-width="2" stroke-linecap="round" stroke-linejoin="round" stroke-miterlimit="10" points="
			23.9,17.3 27.5,14.6 31,17.3 		"/>
	</g>
	
		<line fill="none" stroke="#BA6A2F" stroke-width="2" stroke-linecap="round" stroke-linejoin="round" stroke-miterlimit="10" x1="22.3" y1="20.6" x2="32.3" y2="20.6"/>
	
		<line fill="none" stroke="#BA6A2F" stroke-width="2" stroke-linecap="round" stroke-linejoin="round" stroke-miterlimit="10" x1="22.3" y1="23.8" x2="32.3" y2="23.8"/>
	
		<line fill="none" stroke="#BA6A2F" stroke-width="2" stroke-linecap="round" stroke-linejoin="round" stroke-miterlimit="10" x1="22.3" y1="27.1" x2="32.3" y2="27.1"/>
	<g>
		<defs>
			<rect id="SVGID_5_" x="13.4" y="14.1" width="27.8" height="28.4"/>
		</defs>
		<clipPath id="SVGID_6_">
			<use xlink:href="#SVGID_5_"  overflow="visible"/>
		</clipPath>
		
			<polyline clip-path="url(#SVGID_6_)" fill="none" stroke="#BA6A2F" stroke-width="2" stroke-linecap="round" stroke-linejoin="round" stroke-miterlimit="10" points="
			14,24.8 25.2,33.1 29.8,33.1 40.1,24.8 		"/>
		
			<line clip-path="url(#SVGID_6_)" fill="none" stroke="#BA6A2F" stroke-width="2" stroke-linecap="round" stroke-linejoin="round" stroke-miterlimit="10" x1="14" y1="40.3" x2="24.4" y2="33.1"/>
		
			<line clip-path="url(#SVGID_6_)" fill="none" stroke="#BA6A2F" stroke-width="2" stroke-linecap="round" stroke-linejoin="round" stroke-miterlimit="10" x1="40.6" y1="40.3" x2="30.2" y2="32.8"/>
	</g>
</g>
</svg>
