<?xml version="1.0" encoding="utf-8"?>
<!-- Generator: Adobe Illustrator 22.0.0, SVG Export Plug-In . SVG Version: 6.00 Build 0)  -->
<svg id="图层_1" xmlns="http://www.w3.org/2000/svg" viewBox="0 0 893 302.7"><style>.st2{opacity:.2;enable-background:new}.st2,.st3{fill:#f50}.st4,.st5{fill:none;stroke:#898989;stroke-miterlimit:10}.st5{stroke:#231815;stroke-linecap:round;stroke-linejoin:round;stroke-dasharray:4}.st6{fill:#1a1a1a}.st7{fill:#666}.st8{fill:none;stroke:#b7b7b7;stroke-miterlimit:10}</style><path d="M45.8 125.3h28c21.6 0 39.3 17.7 39.3 39.3v84.2m152-120.9v134c0 21.6-17.7 39.3-39.3 39.3h-73.4c-21.6 0-39.3-17.7-39.3-39.3v-19.7m304.1-53.5V95.8c0-21.6-17.7-39.3-39.3-39.3h-73.4c-21.6 0-39.3 17.7-39.3 39.3v34.4m464-40V41c0-21.6-17.7-39.3-39.3-39.3h-73.4c-21.6 0-39.3 17.7-39.3 39.3v19.7m305-4.2v49.2c0 21.6-17.7 39.3-39.3 39.3h-74.4c-21.6 0-39.3-17.7-39.3-39.3V86m-152-25.9v146.1c0 21.6-17.7 39.3-39.3 39.3h-81.4c-21.6 0-39.3-17.7-39.3-39.3v-19.7" fill="none" stroke="#a3a3a3" stroke-miterlimit="10"/><path d="M45.8 125.3h28c21.6 0 39.3 17.7 39.3 39.3v84.2-6.6 19.7c0 21.6 17.7 39.3 39.3 39.3h73.4c21.6 0 39.3-17.7 39.3-39.3v-134l.1 2.3V95.8c0-21.6 17.7-39.3 39.3-39.3h73.4c21.6 0 39.3 17.7 39.3 39.3v92.9-2.2 19.7c0 21.6 17.7 39.3 39.3 39.3h81.4c21.6 0 39.3-17.7 39.3-39.3V60.1v.6V41c0-21.6 17.7-39.3 39.3-39.3h73.4c21.6 0 39.3 17.7 39.3 39.3v49.2V86v19.7c0 21.6 17.7 39.3 39.3 39.3h74.4c21.6 0 39.3-17.7 39.3-39.3V56.5" fill="none" stroke="#f50" stroke-miterlimit="10"/><circle class="st2" cx="729.2" cy="38.4" r="7.5"/><circle class="st2" cx="729.2" cy="38.4" r="6.1"/><circle class="st3" cx="729.2" cy="38.4" r="4.4"/><circle class="st4" cx="767.6" cy="38.4" r="3.6"/><circle class="st4" cx="882.2" cy="49.2" r="7.3"/><circle class="st4" cx="38.7" cy="125.3" r="7.3"/><circle class="st2" cx="729.2" cy="96.9" r="7.5"/><circle class="st2" cx="729.2" cy="96.9" r="6.1"/><circle class="st3" cx="729.2" cy="96.9" r="4.4"/><path class="st5" d="M733.6 38.4h29.5"/><circle class="st2" cx="577.1" cy="47.9" r="7.5"/><circle class="st2" cx="577.1" cy="47.9" r="6.1"/><circle class="st3" cx="577.1" cy="47.9" r="4.4"/><circle class="st4" cx="621.5" cy="47.9" r="3.6"/><path class="st5" d="M581.4 47.9h37.1"/><circle class="st2" cx="577.1" cy="84.5" r="7.5"/><circle class="st2" cx="577.1" cy="84.5" r="6.1"/><circle class="st3" cx="577.1" cy="84.5" r="4.4"/><circle class="st4" cx="621.5" cy="133.1" r="3.6"/><path class="st5" d="M581.4 84.5h17.4v48.6h19.7"/><circle class="st2" cx="577.1" cy="180.9" r="7.5"/><circle class="st2" cx="577.1" cy="180.9" r="6.1"/><circle class="st3" cx="577.1" cy="180.9" r="4.4"/><circle class="st4" cx="621.5" cy="180.9" r="3.6"/><path class="st5" d="M581.4 180.9h37.1"/><circle class="st2" cx="417.7" cy="96.9" r="7.5"/><circle class="st2" cx="417.7" cy="96.9" r="6.1"/><circle class="st3" cx="417.7" cy="96.9" r="4.4"/><circle class="st4" cx="462.1" cy="96.9" r="3.6"/><path class="st5" d="M422.1 96.9h37.1"/><circle class="st2" cx="265.4" cy="142.5" r="7.5"/><circle class="st2" cx="265.4" cy="142.5" r="6.1"/><circle class="st3" cx="265.4" cy="142.5" r="4.4"/><circle class="st4" cx="309.8" cy="142.5" r="3.6"/><path class="st5" d="M269.8 142.5h37"/><circle class="st2" cx="265.4" cy="248.9" r="7.5"/><circle class="st2" cx="265.4" cy="248.9" r="6.1"/><circle class="st3" cx="265.4" cy="248.9" r="4.4"/><circle class="st4" cx="309.8" cy="248.9" r="3.6"/><path class="st5" d="M269.8 248.9h37"/><circle class="st2" cx="112.5" cy="248.9" r="7.5"/><circle class="st2" cx="112.5" cy="248.9" r="6.1"/><circle class="st3" cx="112.5" cy="248.9" r="4.4"/><circle class="st4" cx="67.5" cy="248.9" r="3.6"/><path class="st5" d="M107.5 248.9h-37"/><circle class="st2" cx="112.5" cy="170.6" r="7.5"/><circle class="st2" cx="112.5" cy="170.6" r="6.1"/><circle class="st3" cx="112.5" cy="170.6" r="4.4"/><circle class="st4" cx="67.5" cy="170.6" r="3.6"/><path class="st5" d="M107.5 170.6h-37"/><circle class="st2" cx="265.4" cy="198.9" r="7.5"/><circle class="st2" cx="265.4" cy="198.9" r="6.1"/><circle class="st3" cx="265.4" cy="198.9" r="4.4"/><circle class="st4" cx="213.8" cy="102.9" r="3.6"/><path class="st5" d="M261 198.9h-21.8v-96h-21.8"/><circle class="st2" cx="417.7" cy="150" r="7.5"/><circle class="st2" cx="417.7" cy="150" r="6.1"/><circle class="st3" cx="417.7" cy="150" r="4.4"/><circle class="st4" cx="462.1" cy="150" r="3.6"/><path class="st5" d="M422.1 150h37.1"/><circle class="st2" cx="417.7" cy="198.9" r="7.5"/><circle class="st2" cx="417.7" cy="198.9" r="6.1"/><circle class="st3" cx="417.7" cy="198.9" r="4.4"/><circle class="st4" cx="462.1" cy="198.9" r="3.6"/><path class="st5" d="M422.1 198.9h37.1"/><g><circle class="st2" cx="814.6" cy="145" r="7.5"/><circle class="st2" cx="814.6" cy="145" r="6.1"/><circle class="st3" cx="814.6" cy="145" r="4.4"/></g><circle class="st4" cx="814.6" cy="180.9" r="3.6"/><path class="st5" d="M814.6 149.4v30.1"/><circle class="st4" cx="767.6" cy="96.9" r="3.6"/><path class="st5" d="M733.6 96.9h29.5"/><g><path class="st6" d="M776.6 31.3v-1.2l4.5-4.4c.7-.7 1.2-1.2 1.5-1.6s.5-.7.7-1.1.2-.7.2-1.1c0-.5-.1-.9-.4-1.3s-.6-.8-1-1-.9-.4-1.4-.4c-.4 0-.7.1-1 .2s-.6.3-.8.5-.4.4-.5.7c-.2.3-.3.5-.3.8-.1.3-.1.7-.1 1.1h-1.3c0-.6.1-1.1.2-1.5.2-.5.4-1 .8-1.5.4-.4.8-.8 1.4-1 .6-.3 1.2-.4 1.8-.4 1.3 0 2.3.5 3.1 1.5.6.8.9 1.6.9 2.5 0 .4 0 .7-.1 1s-.2.6-.4.9c-.1.2-.3.4-.5.7-.5.5-.9 1-1.4 1.5l-4.2 4h6.5v1.2l-8.2-.1zm10.8-5v-3.6c0-1.4.4-2.6 1.2-3.4s1.9-1.3 3.2-1.3c.6 0 1.2.1 1.7.3.5.2.9.5 1.3.7.3.3.6.6.8 1 .2.3.3.8.4 1.3.1.4.1.9.1 1.7v3.5c0 1.8-.5 3.1-1.4 3.9-.8.7-1.8 1-2.9 1-.6 0-1.2-.1-1.7-.3-.5-.2-1-.5-1.3-.7-.3-.3-.6-.6-.8-1s-.3-.9-.4-1.5c-.1-.2-.2-.8-.2-1.6zm1.3.1c0 .8 0 1.3.1 1.7.1.5.3.9.5 1.2.2.3.6.6 1 .8.4.2 1 .3 1.5.3 1 0 1.8-.4 2.4-1.2.4-.6.6-1.5.6-2.8v-3.3c0-.6 0-1.2-.1-1.6s-.2-.8-.5-1.1c-.2-.3-.6-.6-1-.8s-.9-.3-1.5-.3-1.2.1-1.7.4-.8.7-1.1 1.2c-.2.5-.3 1.2-.3 2.1l.1 3.4zm13.8 4.9V19.5h-2.2v-1.2h3.5v13h-1.3zm9.4-7.3c-.5-.4-.9-.8-1.2-1.2s-.3-.9-.3-1.4c0-.6.2-1.1.4-1.6.3-.5.7-.9 1.3-1.2.5-.3 1.1-.4 1.7-.4.6 0 1.2.1 1.7.5s1 .7 1.2 1.2c.3.5.5 1.1.5 1.6 0 .4-.1.8-.2 1.1-.1.4-.3.7-.6 1-.2.2-.4.4-.7.5.5.2.8.5 1.1.7.4.4.6.8.9 1.2s.3 1 .3 1.5c0 .7-.2 1.3-.5 2-.4.6-.9 1.1-1.5 1.5s-1.3.5-2.1.5-1.4-.2-2.1-.5-1.2-.9-1.5-1.5-.5-1.3-.5-2c0-.5.1-1 .3-1.5s.5-.9.9-1.3c.1-.2.5-.5.9-.7zm-.9 3.5c0 .8.3 1.5.8 2.1.5.5 1.2.8 2.1.8.5 0 1-.1 1.4-.4.4-.2.8-.6 1-1 .2-.5.3-.9.3-1.5 0-.5-.1-1-.4-1.4s-.6-.8-1.1-1-.9-.4-1.4-.4-.9.1-1.4.4c-.5.2-.8.6-1 1-.2.5-.3.9-.3 1.4zm.7-6.1c0 .3.1.6.2.9.2.3.4.6.7.8.3.2.7.4 1.2.4.6 0 1.1-.2 1.5-.6s.6-.9.6-1.5-.2-1.1-.6-1.5-.9-.6-1.5-.6-1.1.2-1.5.6-.6.9-.6 1.5z"/><path class="st7" d="M780.3 36.5v1h1.8v4.4h-.5v-.4h-4.4v.4h-.5v-4.4h1.7v-1h-2V36h6.1v.5h-2.2zm1.2 4.5v-1.2h-1c-.6 0-.7-.2-.7-.7V38h-1c0 .7-.3 1.5-1.3 2.1-.1-.1-.2-.3-.3-.4V41h4.3zm-4.4-3v1.7c.9-.5 1.1-1.1 1.2-1.7h-1.2zm2.7-1.5h-1v1h1v-1zm.5 1.5v1.1c0 .2 0 .2.3.2h.9V38h-1.2zm4.5-1.6h-1.5V36h1.5v-.4h.5v.4h.9v.4h-.9v.4h-.5v-.4zm3.6 3c-.3.2-.6.4-1 .5.4.6 1.1 1.2 1.8 1.5l-.4.4c-.7-.3-1.4-1-1.8-1.7l-.2.1c.2.6.2 1.2-.2 1.5-.2.2-.4.2-.6.2h-.5c0-.1-.1-.3-.1-.5h.5c.1 0 .3 0 .4-.1.2-.1.3-.5.2-.9-.8.5-1.9 1.1-2.9 1.4-.1-.1-.2-.3-.3-.4 1-.2 2.3-.8 3-1.4-.1-.1-.1-.2-.2-.3-.7.4-1.7.9-2.4 1.1-.1-.1-.2-.3-.3-.4.8-.2 1.8-.6 2.5-1l-.3-.3c-.6.3-1.3.6-2 .8-.1-.1-.2-.3-.3-.4.8-.2 1.6-.5 2.2-.8h-1.7v-.4h5.1v.4h-2.6c-.1.1-.2.1-.3.2.3.2.6.5.8.8.5-.2 1.1-.5 1.4-.8l.2.5zm.2-1.3v-.7h-4.7v.7h-.5V37h5.7v1.1h-.5zm-4.2 0v-.4h3.8v.4h-3.8zm4.9-2.1v.4h-1.6v.4h-.5v-.4h-.8V36h.8v-.4h.5v.4h1.6zm3.7 1c-.7.6-1.7 1.1-2.6 1.4-.1-.1-.2-.3-.3-.4.9-.2 1.9-.7 2.6-1.2h-2.4v-.5h2.7v-.7h.5v.7h2.8v.5h-2.8c1 .3 2.2.9 2.9 1.2l-.3.4c-.6-.3-1.7-.8-2.6-1.2v1.2h-.5V37zm.5 2.8h2.9v.5h-2.9v1c0 .3-.1.4-.3.5s-.6.1-1.2.1c0-.1-.2-.3-.2-.5h1c.1 0 .2 0 .2-.1v-1h-2.8v-.5h2.8v-.4c.4-.1.8-.3 1.1-.5h-2.7v-.5h3.5l.3.3c-.5.3-1.1.7-1.7.9v.2zm9.6-3.9V42h-.5v-.4h-4.7v.3h-.5v-6.1c0 .1 5.7.1 5.7.1zm-.5 5.2v-4.8h-4.7v4.8h4.7zm-.4-1.1v.4h-3.8V40h1.6v-1.2h-1.3v-.5h1.3v-1h-1.5V37h3.6v.5h-1.6v1h1.4v.5h-1.4v1h1.7zm-1-1c.3.2.6.5.7.8l-.4.2c-.1-.2-.4-.5-.7-.8l.4-.2zm8.8 2.3c0 .3-.1.5-.3.6s-.7.1-1.3.1c0-.1-.1-.4-.2-.5h1.1c.1 0 .2 0 .2-.2v-4h-2c0 .3 0 .6-.1.9.7.6 1.5 1.4 2 1.9l-.4.3c-.4-.5-1.1-1.2-1.7-1.8-.3.7-.8 1.3-1.7 1.9-.1-.1-.2-.3-.4-.4 1.5-.8 1.8-2 1.8-2.9h-2V42h-.5v-5.2h2.5v-1.2h.5v1.2h2.5v4.5zm4.5-4.3c-.1.2-.2.5-.2.6h2.2v4.3h-.5v-.4h-3.6v.4h-.5v-4.3h1.8c.1-.2.1-.4.2-.6h-2.8v-.5h1.8c-.1-.2-.4-.5-.6-.8l.5-.2c.2.2.5.6.7.8l-.3.2h1.8c.2-.3.5-.7.6-1l.6.2c-.2.3-.4.6-.6.8h1.8v.5h-2.9zm1.5 1.1h-3.6v.7h3.6v-.7zm0 1.1h-3.6v.7h3.6v-.7zm0 1.9v-.7h-3.6v.7h3.6zm7.6-2.7c-.3.3-.7.5-1.1.8.3.9 1 1.7 1.9 2-.1.1-.3.3-.3.4-.9-.4-1.5-1.2-1.9-2.2-.1.1-.2.1-.3.2.2.9.1 1.8-.3 2-.2.2-.4.2-.7.2h-.6c0-.2-.1-.3-.1-.5h.6c.2 0 .3 0 .5-.2s.3-.6.3-1.2c-.8.6-2 1.2-3 1.5-.1-.1-.2-.3-.3-.4 1.1-.3 2.5-.9 3.2-1.5 0-.2-.1-.3-.2-.5-.7.5-1.8 1-2.6 1.2-.1-.1-.2-.3-.3-.4.9-.2 2-.7 2.7-1.2-.1-.2-.2-.3-.3-.4-.6.3-1.3.6-2 .8 0-.1-.2-.3-.3-.4.9-.2 1.8-.6 2.5-1h-1.6v-.5h4v.5h-1.7c-.2.1-.3.2-.5.4.3.3.6.7.7 1.1.5-.3 1.1-.8 1.5-1.2l.2.5zm-4.8-.8h-.5v-1.4h2.6c-.1-.2-.2-.4-.3-.5l.5-.2c.1.2.3.5.3.7h2.6v1.4h-.5v-1h-4.8l.1 1zm8.6 1.6v.4c-1.7.4-2 .4-2.1.5 0-.1-.1-.3-.2-.5.2 0 .3-.2.5-.5.1-.1.4-.5.7-.9-.8.1-1 .2-1.1.2 0-.1-.1-.4-.2-.5.1 0 .2-.2.4-.4s.7-1.1.9-2l.5.2c-.3.7-.7 1.5-1.1 2.1l.9-.1c.2-.3.3-.5.4-.8l.4.3c-.5.8-1 1.5-1.5 2.2l1.5-.2zm.1 1.6l-2.3.7-.1-.5c.6-.1 1.5-.4 2.3-.6l.1.4zm3.8-1.6c-.3.5-.8 1-1.4 1.5.2.5.5.8.8.8.2 0 .3-.2.3-.8.1.1.3.2.4.3-.1.8-.2 1-.7 1s-.9-.4-1.2-1c-.5.4-1.2.7-1.8.9-.1-.1-.2-.3-.3-.4.7-.2 1.4-.5 2-.9-.2-.4-.2-1-.3-1.5l-1.3.3-.1-.5 1.4-.2c0-.3-.1-.6-.1-.9l-1 .2-.1-.5 1.1-.2v-1.5h.5v1.4l1.7-.2.1.5-1.7.3c0 .3.1.6.1.9l1.7-.3.1.5-1.8.3c.1.5.2.9.3 1.3.4-.4.8-.8 1.1-1.2l.2-.1zm-.7-2.6c-.2-.2-.7-.5-1-.6l.3-.3c.3.2.8.4 1 .6l-.3.3zm4.7 0v1.2l.1-.1c.8.4 1.9 1 2.5 1.5l-.4.5c-.5-.4-1.4-1-2.2-1.4V42h-.5v-5.4h-2.7v-.5h6.2v.5h-3zm4 .4h.5v5h-.5v-5zm.6-1.4c.4.4.8.9 1 1.3l-.4.3c-.2-.3-.6-.9-1-1.3l.4-.3zm5.1 5.7c0 .3-.1.5-.3.6s-.7.1-1.3.1c0-.1-.1-.4-.2-.5h1.2c.1 0 .2 0 .2-.2v-4.9h-3.3v-.5h3.8v5.4h-.1zm7.2-4.9v.5H847v1.3c0 1.1-.1 2.7-.7 3.7-.1-.1-.3-.2-.5-.3.6-1 .7-2.4.7-3.4v-1.8h2.7c-.1-.2-.2-.5-.4-.7l.5-.1c.2.2.3.6.5.8h2.4zm-2.5 1.6h2.3v.5h-2.3v.9h1.9v2.5h-.5v-.3h-3v.3h-.5v-2.5h1.5v-2.2h.5l.1.8zm1.4 1.9h-3v1.2h3v-1.2zm8.1-.9h-1.5v3h-.5v-3h-2c-.1 1.1-.5 2.2-1.7 3l-.4-.4c1.2-.7 1.5-1.7 1.6-2.6H853v-.5h1.7v-2h-1.4V36h5.7v.5h-1.3v2h1.5v.5zm-2.1-.5v-2h-1.9v2h1.9zm9 2.6v.5H860v-.5h1.9v-5.4h.5v5.4h1.2v-5.4h.5v5.4h2zm-5-1.3c-.2-.6-.6-1.7-1-2.5l.5-.2c.4.8.8 1.8 1 2.4l-.5.3zm4.9-2.4c-.3.8-.8 1.8-1.2 2.4l-.4-.2c.4-.6.9-1.6 1.2-2.4l.4.2z"/></g><g><path class="st6" d="M471.6 88.9V77.1h-2.2v-1.2h3.5v13h-1.3zm10.9 0H481l3-4.4c-.4.2-.8.3-1.2.3-.6 0-1.1-.1-1.7-.3-.5-.2-1-.5-1.3-.9-.4-.4-.7-.8-.9-1.2-.3-.6-.5-1.3-.5-2 0-.8.2-1.6.6-2.3s.9-1.3 1.6-1.7 1.4-.6 2.3-.6c.8 0 1.6.2 2.3.6s1.2 1 1.6 1.7.5 1.5.5 2.2c0 .6-.1 1.1-.3 1.6s-.6 1.3-1.3 2.2l-3.2 4.8zm3.5-8.7c0-.5-.1-1.1-.4-1.6s-.6-.9-1.1-1.3c-.5-.3-1-.5-1.6-.5s-1.1.1-1.6.4-.9.7-1.1 1.2-.4 1.1-.4 1.7.1 1.2.4 1.7.7.9 1.1 1.2c.5.3 1 .4 1.5.4s.9-.1 1.3-.3.7-.4 1-.7c.3-.3.5-.7.6-1.1.2-.2.3-.6.3-1.1zm7.5 8.7H492l3-4.4c-.4.2-.8.3-1.2.3-.6 0-1.1-.1-1.7-.3-.5-.2-1-.5-1.3-.9-.4-.4-.7-.8-.9-1.2-.3-.6-.5-1.3-.5-2 0-.8.2-1.6.6-2.3s.9-1.3 1.6-1.7 1.4-.6 2.3-.6c.8 0 1.6.2 2.3.6s1.2 1 1.6 1.7.5 1.5.5 2.2c0 .6-.1 1.1-.3 1.6s-.6 1.3-1.3 2.2l-3.2 4.8zm3.5-8.7c0-.5-.1-1.1-.4-1.6s-.6-.9-1.1-1.3c-.5-.3-1-.5-1.6-.5s-1.1.1-1.6.4-.9.7-1.1 1.2-.4 1.1-.4 1.7.1 1.2.4 1.7.7.9 1.1 1.2c.5.3 1 .4 1.5.4s.9-.1 1.3-.3.7-.4 1-.7c.3-.3.5-.7.6-1.1.2-.2.3-.6.3-1.1zm7.6 8.7h-1.5l3-4.4c-.4.2-.8.3-1.2.3-.6 0-1.1-.1-1.7-.3-.5-.2-1-.5-1.3-.9-.4-.4-.7-.8-.9-1.2-.3-.6-.5-1.3-.5-2 0-.8.2-1.6.6-2.3s.9-1.3 1.6-1.7 1.4-.6 2.3-.6c.8 0 1.6.2 2.3.6s1.2 1 1.6 1.7.5 1.5.5 2.2c0 .6-.1 1.1-.3 1.6s-.6 1.3-1.3 2.2l-3.2 4.8zm3.4-8.7c0-.5-.1-1.1-.4-1.6s-.6-.9-1.1-1.3c-.5-.3-1-.5-1.6-.5s-1.1.1-1.6.4-.9.7-1.1 1.2-.4 1.1-.4 1.7.1 1.2.4 1.7.7.9 1.1 1.2c.5.3 1 .4 1.5.4s.9-.1 1.3-.3.7-.4 1-.7c.3-.3.5-.7.6-1.1.3-.2.3-.6.3-1.1z"/><path class="st7" d="M472.8 97.1l-.8.2v2.3h-.5v-2.2c-.4.1-.7.2-1 .3l-.1-.5c.3-.1.7-.2 1.2-.3v-1.8h-.6c-.1.4-.2.8-.3 1.1-.1-.1-.3-.1-.4-.2.3-.6.4-1.5.5-2.3l.4.1c0 .3-.1.6-.1.8h.5v-1.4h.5v1.4h.7v.5h-.8v1.6l.7-.2.1.6zm3.8 0h-.8v1.8c0 .3-.1.4-.3.5-.2.1-.5.1-1 .1 0-.2-.1-.4-.2-.5h.9c.1 0 .1 0 .1-.1v-1.8h-2.4v-.5h2.4V96h.5v.7h.8v.4zm-2.1-2.7H473v-.5h1.5v-.8h.5v.8h1.5v.5H475v.9h1.3v.5h-3v-.5h1.2v-.9zm-.8 2.9c.3.3.7.8.9 1.1l-.4.3c-.2-.3-.5-.8-.9-1.1l.4-.3zm9.7-2.9v1.5h-.5v-1.1h-2.2v1.6h-.5v-1.6H478v1.1h-.5v-1.5h2.7v-.5h-2.4v-.4h5.3v.4h-2.4v.5h2.7zm-5.3 2.3h4.7v2.8h-.5v-.2h-3.7v.3h-.5v-2.9zm0-.6c.4-.1 1-.1 1.7-.2v.3c-.5.1-1.1.2-1.5.3l-.2-.4zm.4-1.1c.5.1 1 .2 1.3.4l-.1.3c-.3-.1-.9-.3-1.3-.4l.1-.3zm.1 2.2v.7h1.6v-.7h-1.6zm1.6 1.7v-.7h-1.6v.7h1.6zm2.1-1.7h-1.6v.7h1.6v-.7zm0 1.7v-.7h-1.6v.7h1.6zm.3-2.4c-.4-.1-1.1-.3-1.6-.4l.1-.3c.5.1 1.2.2 1.6.3l-.1.4zm0-1.2c-.4.2-1 .3-1.4.4l-.2-.3c.4-.1 1-.3 1.3-.4l.3.3zm3.4 1.2c-.1.6-.3 1.3-.6 1.8.1.1.3.2.6.4.5.3 1.1.3 2 .3s2-.1 2.8-.2c-.1.1-.1.4-.1.5-.5 0-1.8.1-2.7.1-.9 0-1.5-.1-2-.4-.3-.2-.5-.4-.7-.4s-.4.4-.6.9l-.4-.5c.2-.3.5-.6.7-.8.2-.4.4-.9.5-1.4h-.9c.2-.4.4-1 .6-1.6h-.8v-.5h1.4c-.2.5-.4 1.1-.6 1.6h.6l.2.2zm-1-2c-.1-.3-.2-.8-.4-1.2l.5-.1c.1.4.3.8.4 1.1l-.5.2zm2 4h-.5v-3.6h2c-.4-.2-.9-.4-1.3-.6l.3-.3c.3.1.6.2 1 .4.3-.2.7-.4 1-.6h-2.9v-.4h3.5l.3.2c-.4.4-.9.7-1.4 1 .2.1.4.2.5.3h.9V98c0 .3-.1.4-.2.4-.2.1-.5.1-.9.1 0-.1-.1-.3-.1-.4h.7c.1 0 .1 0 .1-.1v-.6h-1.2v1.1h-.5v-1.1H487v1.1zm0-3.2v.7h1.2v-.6l-1.2-.1zm1.1 1.7v-.6H487v.6h1.1zm1.7-1.7h-1.2v.7h1.2v-.7zm0 1.7v-.6h-1.2v.6h1.2zm7.7 1.7v.5h-6.2v-.5h2.6v-5.4h.5v2.1h2.6v.6h-2.6v2.8l3.1-.1zm1.9-2.3c-.2-.2-.7-.5-1.1-.7l.3-.4c.4.2.9.5 1.1.7l-.3.4zm-1 2.8c.3-.5.7-1.5 1-2.3l.4.3c-.3.7-.6 1.6-.9 2.3l-.5-.3zm.5-5.9c.4.2.9.5 1.2.7l-.3.4c-.2-.2-.8-.6-1.2-.7l.3-.4zm2.1 1.1c-.2.4-.5.9-.8 1.2-.1-.1-.3-.2-.5-.3.5-.5.9-1.3 1.2-2.2l.5.1c-.1.2-.2.4-.3.7h3.2v.5H501zm3 2.6c0 .4-.1.8-.1 1.1h.5v.5h-.5c-.1.4-.1.6-.2.7-.1.2-.3.2-.5.2h-.9c0-.1-.1-.3-.1-.4h.8c.1 0 .2 0 .3-.1.1-.1.1-.2.2-.4h-3.1c.1-.4.2-1 .2-1.5h-.6v-.5h.7c.1-.5.1-1 .2-1.4h3.3v.2c0 .4 0 .8-.1 1.2h.5v.4h-.6zm-.5 1.1c0-.3.1-.6.1-1.1H501c0 .4-.1.8-.1 1.1h2.6zm-2.3-2.5c0 .3-.1.6-.1 1h1.5c-.1-.2-.5-.6-.8-.8l.3-.2c.3.2.6.6.8.8l-.3.2h1v-1h-2.4zm.7 1.4c.3.2.7.6.9.8l-.3.2c-.2-.2-.5-.6-.8-.9l.2-.1zm9.5-2.8h-4.9v1.5c0 1.1-.1 2.7-.8 3.8-.1-.1-.3-.2-.5-.3.7-1 .7-2.4.7-3.5v-2.1h5.5v.6zm6.7 1.4c-.3.9-.7 1.7-1.2 2.4.3.7.6 1.1.9 1.1.2 0 .3-.4.3-1.3.1.1.3.2.5.3-.1 1.2-.3 1.5-.8 1.5s-1-.4-1.3-1.2c-.4.4-.9.8-1.4 1.2l-.4-.4c.6-.3 1.2-.8 1.6-1.3-.2-.8-.4-1.8-.5-2.9h-2.4v.9h1.8v.1c0 1.6-.1 2.2-.2 2.3-.1.1-.2.2-.4.2h-.8c0-.2-.1-.4-.2-.5h.7c.1 0 .2 0 .2-.1.1-.1.1-.6.2-1.8h-1.3v.1c0 1-.1 2.4-.7 3.3-.1-.1-.3-.3-.4-.3.6-.8.6-2.1.6-2.9v-1.9h2.9v-1.2h.5v1.2h2.3v.5h-2.2c.1.9.2 1.8.4 2.4.4-.6.7-1.2.9-1.9l.4.2zm-1.2-2.4c.4.2 1 .6 1.2.8l-.3.4c-.3-.2-.8-.6-1.2-.8l.3-.4zm8.5 5.6v.5h-6.2v-.5h3.4c.4-.9.8-2.3 1-3.4l.6.1c-.3 1-.7 2.4-1.1 3.2h2.3v.1zm-.2-3.8h-5.6v-.5h5.6v.5zm-4 3.4c-.1-.8-.4-2-.7-2.9l.5-.1c.3.9.6 2.1.7 2.9l-.5.1zm1-4c-.1-.3-.2-.8-.3-1.1l.5-.1c.1.4.3.8.4 1.1l-.6.1z"/></g><g><path class="st6" d="M630.5 40.8v-1.2l4.5-4.4c.7-.7 1.2-1.2 1.5-1.6.3-.4.5-.7.7-1.1.2-.3.2-.7.2-1.1 0-.5-.1-.9-.4-1.3s-.6-.8-1-1-.9-.4-1.4-.4c-.4 0-.7.1-1 .2s-.6.3-.8.5-.4.4-.5.7c-.2.3-.3.5-.3.8-.1.3-.1.7-.1 1.1h-1.3c0-.6.1-1.1.2-1.5.2-.5.4-1 .8-1.5.4-.4.8-.8 1.4-1 .6-.3 1.2-.4 1.8-.4 1.3 0 2.3.5 3.1 1.5.6.8.9 1.6.9 2.5 0 .4 0 .7-.1 1s-.2.6-.4.8c-.1.2-.3.4-.5.7-.5.5-.9 1-1.4 1.5l-4.2 4h6.5v1.2h-8.2zm10.8-4.9v-3.6c0-1.4.4-2.6 1.2-3.4s1.9-1.3 3.2-1.3c.6 0 1.2.1 1.7.3.5.2.9.5 1.3.7.3.3.6.6.8 1 .2.3.3.8.4 1.3.1.4.1.9.1 1.7v3.5c0 1.8-.5 3.1-1.4 3.9-.8.7-1.8 1-2.9 1-.6 0-1.2-.1-1.7-.3s-1-.5-1.3-.7-.6-.6-.8-1-.3-.9-.4-1.5c-.1-.3-.2-.8-.2-1.6zm1.3 0c0 .8 0 1.3.1 1.7.1.5.3.9.5 1.2s.6.6 1 .8 1 .3 1.5.3c1 0 1.8-.4 2.4-1.2.4-.6.6-1.5.6-2.8v-3.3c0-.6 0-1.2-.1-1.6s-.2-.8-.5-1.1c-.2-.3-.6-.6-1-.8s-.9-.3-1.5-.3-1.2.1-1.7.4-.8.7-1.1 1.2c-.2.5-.3 1.2-.3 2.1l.1 3.4zm13.8 4.9V29h-2.2v-1.2h3.5v13h-1.3zm11.7-12.9h1.5l-3 4.4c.4-.2.8-.3 1.3-.3.7 0 1.5.2 2.1.6s1.2.9 1.6 1.6c.4.7.6 1.5.6 2.3s-.2 1.6-.6 2.3-.9 1.3-1.6 1.7-1.4.6-2.3.6c-.8 0-1.6-.2-2.3-.6s-1.2-1-1.6-1.7c-.4-.7-.6-1.5-.6-2.3 0-.6.1-1.1.3-1.6s.6-1.3 1.3-2.2l3.3-4.8zm-3.5 8.6c0 .5.1 1.1.4 1.6s.6 1 1.1 1.3 1 .5 1.6.5 1.1-.1 1.6-.4c.5-.3.9-.7 1.2-1.2s.4-1.1.4-1.7-.1-1.2-.4-1.7-.7-.9-1.2-1.2-1-.4-1.5-.4-.9.1-1.3.3-.7.4-1 .7-.5.7-.7 1.1-.2.7-.2 1.1z"/><path class="st7" d="M634 45.6v1h1.8V51h-.5v-.4h-4.4v.4h-.5v-4.4h1.7v-1h-2v-.5h6.1v.5H634zm1.3 4.5v-1.2h-1c-.6 0-.7-.2-.7-.7v-1.1h-1c0 .7-.3 1.5-1.3 2.1-.1-.1-.2-.3-.3-.4v1.3h4.3zm-4.4-3v1.7c.9-.5 1.1-1.1 1.2-1.7h-1.2zm2.6-1.5h-1v1h1v-1zm.5 1.5v1.1c0 .2 0 .2.3.2h.9v-1.3H634zm4.5-1.6H637v-.4h1.5v-.4h.5v.4h.9v.4h-.9v.4h-.5v-.4zm3.7 3c-.3.2-.6.4-1 .5.4.6 1.1 1.2 1.8 1.5l-.4.4c-.7-.3-1.4-1-1.8-1.7l-.2.1c.2.6.2 1.2-.2 1.5-.2.2-.4.2-.6.2h-.5c0-.1-.1-.3-.1-.5h.5c.1 0 .3 0 .4-.1.2-.1.3-.5.2-.9-.8.5-1.9 1.1-2.9 1.4-.1-.1-.2-.3-.3-.4 1-.2 2.3-.8 3-1.4-.1-.1-.1-.2-.2-.3-.7.4-1.7.9-2.4 1.1-.1-.1-.2-.3-.3-.4.8-.2 1.8-.6 2.5-1l-.3-.3c-.6.3-1.3.6-2 .8-.1-.1-.2-.3-.3-.4.8-.2 1.6-.5 2.2-.8h-1.7v-.4h5.1v.6H640c-.1.1-.2.1-.3.2.3.2.6.5.8.8.5-.2 1.1-.5 1.4-.8l.3.3zm.2-1.3v-.7h-4.7v.7h-.5v-1.1h5.7v1.1h-.5zm-4.2 0v-.4h3.8v.4h-3.8zm4.9-2.1v.4h-1.6v.4h-.5v-.4h-.8v-.4h.8v-.4h.5v.4h1.6zm3.6 1c-.7.6-1.7 1.1-2.6 1.4-.1-.1-.2-.3-.3-.4.9-.2 1.9-.7 2.6-1.2H644v-.5h2.7v-.7h.5v.7h2.8v.5h-2.8c1 .3 2.2.9 2.9 1.2l-.3.4c-.6-.3-1.7-.8-2.6-1.2v1.2h-.5v-1.4zm.5 2.9h2.9v.5h-2.9v1c0 .3-.1.4-.3.5s-.6.1-1.2.1c0-.1-.2-.3-.2-.5h1c.1 0 .2 0 .2-.1v-1h-2.8V49h2.8v-.3c.4-.1.8-.3 1.1-.5h-2.7v-.5h3.5l.3.3c-.5.3-1.1.7-1.7 1zm5.5.3c-.3.5-.9 1.2-1.4 1.6-.1-.1-.3-.2-.4-.3.5-.4 1-1 1.3-1.4l.5.1zm4.3-3.8v.5h-6v-.5h2.9c-.1-.2-.3-.5-.4-.8l.5-.2c.2.3.4.7.5.9l2.5.1zm-2.7 3.2v1.8c0 .3-.1.5-.3.5-.2.1-.6.1-1.2.1 0-.2-.1-.3-.2-.5h1c.1 0 .2 0 .2-.1v-1.8h-1.9v-2h4.4v2h-2zm-2-.5h3.3v-1.1h-3.3v1.1zm3.4.9c.5.5 1 1.1 1.3 1.5l-.5.3c-.3-.4-.8-1.1-1.3-1.5l.5-.3zm4.1-.3c-.3.7-.9 1.5-1.4 1.9-.1-.1-.3-.3-.4-.3.5-.4 1-1.1 1.3-1.7l.5.1zm1.8-.7v2.2c0 .3-.1.5-.3.5-.2.1-.6.1-1.1.1 0-.2-.1-.4-.2-.5h.9c.1 0 .1 0 .1-.1v-2.2h-1.5c-.4 0-.7 0-.8.1 0-.1-.1-.4-.2-.5.2 0 .3-.2.5-.5.1-.2.4-.6.7-1.1H658v-.5h1.9c.2-.3.3-.6.4-1l.5.2c-.1.2-.2.5-.3.7h3.2v.5h-3.5c-.3.6-.6 1.1-1 1.5h1.7v-1h.5v1h2v.5c.2.1-1.8.1-1.8.1zm1 .6c.5.5 1.2 1.3 1.5 1.8l-.5.2c-.3-.5-.9-1.2-1.4-1.8l.4-.2zm5.4-2.9c-.2.4-.4.7-.7 1-.1-.1-.3-.2-.4-.3.1-.1.2-.1.2-.2h-1.2v1h1.2v.2c-.1 2.3-.1 3-.3 3.3-.1.1-.2.2-.4.2h-.6c0-.1-.1-.3-.1-.5h.5c.1 0 .1 0 .2-.1.1-.2.2-.8.2-2.7h-.7c-.1 1.3-.3 2.5-.8 3.3-.1-.1-.2-.3-.4-.3.7-1 .7-2.7.8-4.5h-.7v-.5h2.4v.4c.3-.4.6-1 .8-1.6l.5.1c-.1.2-.1.5-.2.7h2.9v.4c-.2.1-3.2.1-3.2.1zm-2 0c-.1-.3-.3-.7-.5-1l.4-.2c.2.3.4.7.5 1l-.4.2zm5.1 3.4v.4h-3.8v-.4h.8V47h-.4v-.4h.4v-.5h.5v.5h1.4v-.5h.5v.5h.5v.4h-.5v2.2h.6zm-2.2.7c-.3.4-.8.9-1.2 1.2-.1-.1-.3-.2-.4-.3.4-.3.8-.6 1.1-1l.5.1zm-.4-2.9v.5h1.4V47h-1.4zm0 1.3h1.4v-.5h-1.4v.5zm0 .9h1.4v-.5h-1.4v.5zm1.3.6c.4.3.9.8 1.1 1l-.4.3c-.2-.3-.7-.8-1.1-1.1l.4-.2zm4.5.6c0 .2-.1.4-.2.5-.2.1-.4.1-.8.1 0-.1-.1-.3-.1-.5h.6c.1 0 .1 0 .1-.1v-2.3h-1.1c0 .9-.1 2.2-.6 3-.1-.1-.3-.2-.4-.3.5-.8.5-1.8.5-2.7h-.5v-.4h.5v-2.2h.6c.1-.3.2-.6.2-.9l.5.1c-.1.3-.2.5-.3.8h1v4.9zm-.4-2.7V46h-1.1v1.7h1.1zm-.5 1.9c-.1-.3-.3-.7-.5-1.1l.3-.2c.2.3.4.8.5 1.1l-.3.2zm-.2-3.3c.2.3.4.7.4 1l-.4.2c-.1-.3-.2-.7-.4-1l.4-.2zm4.2 4.2c.2 0 .2-.2.3-1.2.1.1.3.2.4.2-.1 1.1-.1 1.4-.7 1.4h-.5c-.4 0-.6-.1-.6-.6v-1.4c-.2.8-.7 1.5-1.5 2-.1-.1-.2-.3-.3-.4 1.4-.9 1.6-2.2 1.6-3.2V46h.5v1.4c0 .3 0 .7-.1 1.1h.4v1.7c0 .2.1.2.2.2l.3.1zm-2.1-1.9h-.5V45h2.8v3.6h-.5v-3.2h-1.9l.1 3.2zm9.7-3.1v.5h-5.1v1.3c0 1.1-.1 2.7-.7 3.7-.1-.1-.3-.2-.5-.3.6-1 .7-2.4.7-3.4v-1.8h2.7c-.1-.2-.2-.5-.4-.7l.5-.1c.2.2.3.6.5.8h2.3zm-2.5 1.6h2.3v.5h-2.3v.9h1.9V51h-.5v-.3h-3v.3h-.5v-2.5h1.5v-2.2h.5l.1.8zm1.4 1.9h-3v1.2h3V49zm-51.1 12c-1 .4-2 .9-2.8 1.2l-.2-.5c.3-.1.6-.2 1-.4l-.1-4.3h.5l.1 4.1c.5-.2.9-.4 1.4-.6l.1.5zm3.1 2c-.3-.5-1-1.2-1.6-1.8-.5.8-1.3 1.4-2.4 1.9-.1-.1-.3-.3-.4-.5 2.4-.9 3.1-2.6 3.5-5.6l.6.1c-.2 1.5-.4 2.7-.9 3.6.6.6 1.4 1.4 1.7 1.9l-.5.4zm-2.7-3.6c-.2-.5-.6-1.2-1.1-1.7l.5-.2c.5.5.9 1.2 1.1 1.7l-.5.2zm9.7-.3c-.3 1.1-.8 2-1.5 2.6.5.4 1.2.7 1.9.8-.1.1-.3.3-.4.5-.8-.2-1.4-.5-2-1-.7.5-1.4.8-2.2 1-.1-.2-.2-.4-.3-.5.8-.2 1.5-.5 2.1-.9-.6-.6-1.1-1.4-1.4-2.2h-.3c-.1 1.1-.5 2.4-1.7 3.5l-.4-.4c1.5-1.4 1.6-3.1 1.6-4.3v-.6h-1.2V57h4.3c-.1.6-.3 1.4-.5 2h1.5l.5.1zm-4-1v.8h1.5c.1-.4.3-1 .4-1.5h-1.9v.7zm.7 1.4c.3.8.7 1.4 1.3 1.9.6-.5 1-1.1 1.3-1.9h-2.6zm7.8.3c.5 1.3 1.4 2.3 2.8 2.7-.1.1-.3.3-.3.5-1.4-.5-2.3-1.4-2.9-2.8-.3 1-1.1 2-2.8 2.8-.1-.1-.2-.3-.3-.4 1.8-.7 2.5-1.8 2.7-2.7H644v-.5h2.7v-1.6h-2.5v-.5h5.5v.5h-2.5v1.6h2.8v.5c0-.1-2.6-.1-2.6-.1zm5.5-2.8l-.6.9c.4.8.5 1.6.5 2.4 0 1-.1 1.9-.3 2.3-.1.1-.2.2-.4.2h-.8c0-.2-.1-.4-.2-.5h.8c.1 0 .2 0 .2-.1.2-.2.2-1 .2-1.9v-.4c-.3.5-.8 1-1.2 1.3-.1-.1-.2-.3-.3-.5.5-.3 1.1-1 1.4-1.7-.1-.3-.1-.6-.2-.9-.3.3-.6.6-.9.8-.1-.1-.2-.3-.3-.5.3-.2.6-.5.9-.8-.2-.3-.4-.5-.7-.8l.3-.3c.3.2.5.5.7.7.2-.2.4-.5.5-.8l.4.6zm1 1h-.9v-.5h.9v-.9h.5v.9h.5v.5h-.5v.7h-.5V58zm-.6 1h3.6v4h-.5v-.3h-2.6v.3h-.5v-4zm.5.5v1.1h1v-1.1h-1zm0 2.7h1V61h-1v1.2zm3.4-4.7v.5h-.9v.7h-.5V58h-.6v-.5h.6v-.9h.5v.9h.9zm-.8 2h-1.1v1.1h1.1v-1.1zm0 2.7V61h-1.1v1.2h1.1zm4.6-4.4c-.2.4-.4.7-.7 1-.1-.1-.3-.2-.4-.3.1-.1.2-.1.2-.2H659v1h1.2v.2c-.1 2.3-.1 3-.3 3.3-.1.1-.2.2-.4.2h-.6c0-.1-.1-.3-.1-.5h.5c.1 0 .1 0 .2-.1.1-.2.2-.8.2-2.7h-.7c-.1 1.3-.3 2.5-.8 3.3-.1-.1-.2-.3-.4-.3.7-1 .7-2.7.8-4.5h-.7v-.5h2.4v.4c.3-.4.6-1 .8-1.6l.5.1c-.1.2-.1.5-.2.7h2.9v.4c-.2.1-3.3.1-3.3.1zm-2 0c-.1-.3-.3-.7-.5-1l.4-.2c.2.3.4.7.5 1l-.4.2zm5.1 3.4v.4h-3.8v-.4h.8V59h-.4v-.4h.4v-.5h.5v.5h1.4v-.5h.5v.5h.5v.4h-.5v2.2h.6zm-2.2.7c-.3.4-.8.9-1.2 1.2-.1-.1-.3-.2-.4-.3.4-.3.8-.6 1.1-1l.5.1zm-.3-2.9v.5h1.4V59h-1.4zm0 1.3h1.4v-.5h-1.4v.5zm0 .9h1.4v-.5h-1.4v.5zm1.3.5c.4.3.9.8 1.1 1l-.4.3c-.2-.3-.7-.8-1.1-1.1l.4-.2zm4.4.7c0 .2-.1.4-.2.5-.2.1-.4.1-.8.1 0-.1-.1-.3-.1-.5h.6c.1 0 .1 0 .1-.1v-2.3h-1.1c0 .9-.1 2.2-.6 3-.1-.1-.3-.2-.4-.3.5-.8.5-1.8.5-2.7h-.5v-.4h.5v-2.1h.6c.1-.3.2-.6.2-.9l.5.1c-.1.3-.2.5-.3.8h1v4.8zm-.4-2.7V58h-1.1v1.7h1.1zm-.5 1.9c-.1-.3-.3-.7-.5-1.1l.3-.2c.2.3.4.8.5 1.1l-.3.2zm-.2-3.4c.2.3.4.7.4 1l-.4.2c-.1-.3-.2-.7-.4-1l.4-.2zm4.3 4.2c.2 0 .2-.2.3-1.2.1.1.3.2.4.2-.1 1.1-.1 1.4-.7 1.4h-.5c-.4 0-.6-.1-.6-.6v-1.4c-.2.8-.7 1.5-1.5 2-.1-.1-.2-.3-.3-.4 1.4-.9 1.6-2.2 1.6-3.2V58h.5v1.4c0 .3 0 .7-.1 1.1h.4v1.7c0 .2.1.2.2.2h.3zm-2.2-1.8h-.5V57h2.8v3.6h-.5v-3.2h-1.9l.1 3.2zm9.7-3.1v.5h-5.1v1.3c0 1.1-.1 2.7-.7 3.7-.1-.1-.3-.2-.5-.3.6-1 .7-2.4.7-3.4v-1.8h2.7c-.1-.2-.2-.5-.4-.7l.5-.1c.2.2.3.6.5.8h2.3zm-2.5 1.5h2.3v.5h-2.3v.9h1.9v2.5h-.5v-.3h-3v.3h-.5v-2.5h1.5v-2.2h.5l.1.8zm1.4 1.9h-3v1.2h3v-1.2zm8.1 1.3v.5h-6.2v-.5h1v-3.3h.5v3.3h1.5v-4.5H679v-.5h5.7v.5h-2.5v1.9h2.2v.4h-2.2v2.2h2.8zm5-3.7c.2 2.3.7 4 1.4 4 .2 0 .3-.4.3-1.3.1.1.3.2.5.3-.1 1.2-.3 1.6-.8 1.6-1.1 0-1.7-2-1.9-4.6h-3.6V58h3.6v-1.3h.5V58h2.1v.5H690zm-2.2 3.4l1.5-.3v.5c-1.2.3-2.5.6-3.3.8l-.2-.5c.4-.1.9-.2 1.5-.3v-2h-1.2v-.5h3.1v.4h-1.3l-.1 1.9zm3.6-4.1c-.2-.2-.6-.6-1-.9l.3-.3c.4.2.8.6 1 .8l-.3.4zm7.6 4.4v.5h-6.2v-.5h2.6v-5.4h.5v2.1h2.6v.5h-2.6v2.8h3.1zm3.1-1.9v.4c-1.7.4-2 .4-2.1.5 0-.1-.1-.3-.2-.5.2 0 .3-.2.5-.5.1-.1.4-.5.7-.9-.8.1-1 .2-1.1.2 0-.1-.1-.4-.2-.5.1 0 .2-.2.4-.4s.7-1.1.9-2l.5.2c-.3.7-.7 1.5-1.1 2.1l.9-.1c.2-.3.3-.5.4-.8l.4.3c-.5.8-1 1.5-1.5 2.2l1.5-.2zm.1 1.6l-2.3.7-.1-.5c.6-.1 1.5-.4 2.3-.6l.1.4zm3.8-1.7c-.3.5-.8 1-1.4 1.5.2.5.5.8.8.8.2 0 .3-.2.3-.8.1.1.3.2.4.3-.1.8-.2 1-.7 1s-.9-.4-1.2-1c-.5.4-1.2.7-1.8.9-.1-.1-.2-.3-.3-.4.7-.2 1.4-.5 2-.9-.2-.4-.2-1-.3-1.5l-1.3.3-.1-.5 1.4-.2c0-.3-.1-.6-.1-.9l-1 .2-.1-.5 1.1-.2v-1.5h.5v1.4l1.7-.2.1.5-1.7.3c0 .3.1.6.1.9l1.7-.3.1.5-1.8.3c.1.5.2.9.3 1.3.4-.4.8-.8 1.1-1.2l.2-.1zm-.7-2.5c-.2-.2-.7-.5-1-.6l.3-.3c.3.2.8.4 1 .6l-.3.3z"/></g><g><path class="st6" d="M630.5 125.7v-1.2l4.5-4.4c.7-.7 1.2-1.2 1.5-1.6s.5-.7.7-1.1.2-.7.2-1.1-.1-.9-.4-1.3c-.2-.4-.6-.8-1-1s-.9-.4-1.4-.4c-.4 0-.7.1-1 .2s-.6.3-.8.5-.4.4-.5.7c-.2.3-.3.5-.3.8-.1.3-.1.7-.1 1.1h-1.3c0-.6.1-1.1.2-1.5.2-.6.4-1.1.8-1.5.4-.4.8-.8 1.4-1 .6-.3 1.2-.4 1.8-.4 1.3 0 2.3.5 3.1 1.4.6.8.9 1.6.9 2.5 0 .4 0 .7-.1 1s-.2.6-.4.8c-.1.2-.3.4-.5.7-.5.6-.9 1.1-1.4 1.5l-4.2 4h6.5v1.2l-8.2.1zm10.8-4.9v-3.6c0-1.4.4-2.6 1.2-3.4s1.9-1.3 3.2-1.3c.6 0 1.2.1 1.7.3.5.2.9.4 1.3.7.3.3.6.6.8 1s.3.8.4 1.3c.1.4.1.9.1 1.7v3.5c0 1.8-.5 3.1-1.4 3.9-.8.7-1.8 1-2.9 1-.6 0-1.2-.1-1.7-.3-.5-.2-1-.4-1.3-.7s-.6-.6-.8-1-.3-.9-.4-1.5c-.1-.3-.2-.8-.2-1.6zm1.3 0c0 .8 0 1.3.1 1.7.1.5.3.9.5 1.2.2.3.6.6 1 .8.4.2 1 .3 1.5.3 1 0 1.8-.4 2.4-1.2.4-.6.6-1.5.6-2.8v-3.3c0-.7 0-1.2-.1-1.6s-.2-.8-.5-1.1c-.2-.3-.6-.6-1-.8s-.9-.3-1.5-.3-1.2.2-1.7.4-.8.7-1.1 1.2c-.2.5-.3 1.2-.3 2.1l.1 3.4zm13.8 4.9v-11.8h-2.2v-1.2h3.5v13h-1.3zm13.3 0v-2.4h-6.5v-1.2l6.3-9.4h1.5v9.4h1.2v1.2H671v2.4h-1.3zm-5.1-3.5h5v-7.6l-5 7.6z"/><path class="st7" d="M635.2 133.8c-.4.6-.9 1.1-1.6 1.5.8.3 1.7.5 2.7.6-.1.1-.2.3-.3.5-1.1-.1-2.1-.4-2.9-.8-.9.4-1.9.7-2.9.8 0-.1-.2-.4-.2-.5.9-.1 1.8-.3 2.6-.7-.4-.3-.8-.6-1.1-1.1-.3.2-.7.5-1.2.7-.1-.1-.2-.3-.4-.4 1-.4 1.7-1 2.1-1.5h-2.2v-.4h2.8v-.5h-2.1v-.4h2.1v-.6h-2.5v-.4h2.5v-.6h.5v.6h2.6v.4h-2.6v.6h2.2v.4h-2.2v.6h2.9v.4h-3.4c-.2.2-.3.4-.5.6h2.6l.5.2zm-3.3.2c.3.4.7.8 1.2 1 .5-.3 1-.6 1.3-1h-2.5zm5 2.2c.3-.3.7-.7.8-1.2l.5.1c-.2.4-.5.9-.8 1.3l-.5-.2zm2.3-5.8c.3.4.8.9 1 1.2l-.4.2c-.1-.1-.1-.2-.2-.3-2 .2-2.3.2-2.5.3 0-.1-.1-.3-.2-.4.1 0 .2-.1.4-.2s.6-.6.9-1l.5.2c-.3.4-.6.7-.9 1l1.5-.1c-.2-.2-.3-.4-.4-.5l.3-.4zm.6 3.9c0 .2-.1.4-.2.4-.2.1-.5.1-1 .1 0-.1-.1-.3-.1-.4h.7c.1 0 .1 0 .1-.1v-.6c-.5.2-.9.4-1.3.5l-.2-.4c-.1.4-.2.8-.4 1.1-.1-.1-.3-.2-.4-.3.3-.4.4-1 .4-1.5v-1.2h2.4v2.4zm-2-1.2v.7c.4-.1.9-.3 1.5-.5v-1h-1.5v.8zm.3-.6c.4.1.8.3 1.1.5l-.2.3c-.2-.1-.7-.4-1.1-.5l.2-.3zm1.3 2.7c.1.4.2.8.2 1.1l-.5.1c0-.3 0-.8-.1-1.1l.4-.1zm1.5-.1c.2.3.3.8.4 1.1l-.5.1c-.1-.3-.2-.8-.4-1.1l.5-.1zm.2-2.8c-.6 0-.7-.2-.7-.7V130h.5v.7h1.8v.4h-1.8v.5c0 .2 0 .3.2.3h1.8v.4h-1.8zm.1 2.5c-.7 0-.8-.1-.8-.7v-1.7h.5v.6h1.8v.4h-1.8v.6c0 .2.1.2.4.2h1.1c.2 0 .3-.1.3-.5.1.1.3.1.5.2-.1.6-.2.8-.7.8l-1.3.1zm1.1.2c.3.4.7.9.9 1.2l-.5.2c-.2-.3-.5-.8-.9-1.2l.5-.2zm7.8.4v.5h-6.2v-.5h2.8v-4h-2.5v-.5h5.5v.5h-2.5v4h2.9zm6.9-4.4h-4.9v1.5c0 1.1-.1 2.7-.8 3.8-.1-.1-.3-.2-.5-.3.7-1 .7-2.4.7-3.5v-2.1h5.5v.6zm6.7 1.4c-.3.9-.7 1.7-1.2 2.4.3.7.6 1.1.9 1.1.2 0 .3-.4.3-1.3.1.1.3.2.5.3-.1 1.2-.3 1.5-.8 1.5s-1-.4-1.3-1.1c-.4.4-.9.9-1.4 1.2l-.4-.4c.6-.3 1.2-.8 1.6-1.3-.2-.8-.4-1.8-.5-2.9H659v.9h1.8v.2c0 1.6-.1 2.1-.2 2.3-.1.1-.2.2-.4.2h-.8c0-.2-.1-.4-.2-.5h.7c.1 0 .2 0 .2-.1.1-.1.1-.6.2-1.8H659v.1c0 1-.1 2.4-.7 3.3l-.4-.4c.6-.9.6-2.1.6-2.9v-1.9h2.9v-1.2h.5v1.2h2.3v.5H662c.1.9.2 1.8.4 2.4.4-.6.7-1.2.9-1.9l.4.1zm-1.2-2.3c.4.2 1 .6 1.2.8l-.3.4c-.3-.2-.8-.6-1.2-.8l.3-.4zm8.6 5.5v.5h-6.2v-.5h3.4c.4-.9.8-2.3 1-3.4l.6.1c-.3 1-.7 2.4-1.1 3.2l2.3.1zm-.3-3.8h-5.6v-.5h5.6v.5zm-4 3.5c-.1-.8-.4-2-.7-2.9l.5-.1c.3.9.6 2.1.7 2.9l-.5.1zm1-4.1c-.1-.3-.2-.8-.3-1.1l.5-.1c.1.4.3.8.4 1.1l-.6.1z"/></g><g><path class="st6" d="M630.5 173.4v-1.2l4.5-4.4c.7-.7 1.2-1.2 1.5-1.6.3-.4.5-.7.7-1.1s.2-.7.2-1.1c0-.4-.1-.9-.4-1.3s-.6-.8-1-1-.9-.4-1.4-.4c-.4 0-.7.1-1 .2s-.6.3-.8.5-.4.4-.5.7c-.2.3-.3.5-.3.8-.1.3-.1.7-.1 1.1h-1.3c0-.6.1-1.1.2-1.5.2-.6.4-1.1.8-1.5.4-.4.8-.8 1.4-1 .6-.3 1.2-.4 1.8-.4 1.3 0 2.3.5 3.1 1.4.6.8.9 1.6.9 2.5 0 .4 0 .7-.1 1s-.2.6-.4.9c-.1.2-.3.4-.5.7-.5.6-.9 1.1-1.4 1.5l-4.2 4h6.5v1.2h-8.2zm10.8-5v-3.6c0-1.4.4-2.6 1.2-3.4.8-.8 1.9-1.3 3.2-1.3.6 0 1.2.1 1.7.3s.9.4 1.3.7c.3.3.6.6.8 1 .2.3.3.8.4 1.3.1.4.1.9.1 1.7v3.5c0 1.8-.5 3.1-1.4 3.9-.8.7-1.8 1-2.9 1-.6 0-1.2-.1-1.7-.3s-1-.4-1.3-.7-.6-.6-.8-1-.3-.9-.4-1.5c-.1-.3-.2-.8-.2-1.6zm1.3 0c0 .8 0 1.3.1 1.7.1.5.3.9.5 1.2s.6.6 1 .8 1 .3 1.5.3c1 0 1.8-.4 2.4-1.2.4-.6.6-1.5.6-2.8v-3.3c0-.6 0-1.2-.1-1.6-.1-.4-.2-.8-.5-1.1-.2-.3-.6-.6-1-.8s-.9-.3-1.5-.3-1.2.1-1.7.4c-.5.3-.8.7-1.1 1.2-.2.5-.3 1.2-.3 2.1l.1 3.4zm13.8 5v-11.8h-2.2v-1.2h3.5v13h-1.3zm7.2 0v-1.2l4.5-4.4c.7-.7 1.2-1.2 1.5-1.6.3-.4.5-.7.7-1.1s.2-.7.2-1.1c0-.4-.1-.9-.4-1.3s-.6-.8-1-1-.9-.4-1.4-.4c-.4 0-.7.1-1 .2s-.6.3-.8.5-.4.4-.5.7c-.2.3-.3.5-.3.8-.1.3-.1.7-.1 1.1h-1.3c0-.6.1-1.1.2-1.5.2-.6.4-1.1.8-1.5.4-.4.8-.8 1.4-1 .6-.3 1.2-.4 1.8-.4 1.3 0 2.3.5 3.1 1.4.6.8.9 1.6.9 2.5 0 .4 0 .7-.1 1s-.2.6-.4.9c-.1.2-.3.4-.5.7-.5.6-.9 1.1-1.4 1.5l-4.2 4h6.5v1.2h-8.2z"/><path class="st7" d="M633 182v.2c-.1.8-.2 1.1-.3 1.2-.1.1-.2.1-.4.1h-.7c0-.1-.1-.3-.1-.4h.6c.1 0 .2 0 .2-.1.1-.1.1-.3.2-.7h-.9c-.2.6-.6 1-1.4 1.2 0-.1-.2-.3-.2-.4.6-.2 1-.5 1.2-.9h-.9v-.2h1c0-.1.1-.3.1-.5h.5c0 .2 0 .3-.1.5h1.2zm3.1-4.3v.4h-2.8v.4h2.3v.4h-5.1v-.4h2.3v-.4H630v-.4h2.8v-.5h.5v.5h2.8zm-1.5 3c-.1.1-.2.3-.3.4h1.8v.4h-6v-.4h1.8c-.1-.1-.2-.3-.3-.4l.3-.1h-1.1v-1.3h4.6v1.3h-1.2l.4.1zm-3.3-.5h3.6v-.6h-3.6v.6zm.8.4c.1.1.2.3.3.5l-.2.1h1.6c.1-.2.2-.4.3-.5l-2-.1zm1.3 1.3h2.4v1.7h-.5v-.2h-1.4v.2h-.5v-1.7zm.5.4v.8h1.4v-.8h-1.4zm9.2-1.4v.4h-6.2v-.4h1.4c-.1-.2-.2-.4-.4-.6l.5-.1c.2.2.3.5.4.6l-.3.1h2.6c.1-.2.3-.5.4-.7l.5.1c-.1.2-.2.4-.4.6h1.5zm-.1-.7h-5.8v-.4h2.6v-.5h-2v-.4h2v-.5h-2.4v-.4h1.4c-.1-.2-.2-.4-.4-.6l.5-.2c.2.2.4.4.4.6l-.4.1h2c.2-.2.3-.5.4-.8l.5.1c-.1.2-.3.5-.4.7h1.4v.4h-2.5v.5h2v.4h-2v.5h2.7v.5zm-5.1 1.5h4.3v1.9h-.5v-.2h-3.3v.2h-.5v-1.9zm.5.5v.8h3.3v-.8h-3.3zm11.7.2v.6h-6.2v-.6h6.2zm-.6-4.1v.6h-5v-.6h5zm4.7 3.6h-3.4v-.5h.7v-2.8h-.6v-.5h.6v-.9h.5v.9h1.3v-.9h.5v.9h.5v.5h-.5v2.8h.5l-.1.5zm-1.9.3c-.2.5-.7 1.1-1 1.4-.1-.1-.3-.2-.4-.3.4-.3.8-.8 1-1.2l.4.1zm-.3-3.6v.6h1.3v-.6H652zm0 1.8h1.3v-.7H652v.7zm0 1.1h1.3v-.7H652v.7zm1.2.6c.3.3.6.8.7 1l-.4.2c-.1-.3-.4-.7-.7-1.1l.4-.1zm3.8.9c0 .3-.1.5-.3.5-.2.1-.5.1-1 .1 0-.1-.1-.4-.2-.5h.8c.1 0 .2 0 .2-.1v-1.7H655c-.1.8-.2 1.7-.7 2.4-.1-.1-.3-.3-.4-.3.6-.9.6-2.2.6-3.2v-2.5h2.4l.1 5.3zm-.5-2.2v-1.2H655v1.2h1.5zm-1.5-2.7v1.1h1.4v-1.1H655zm9.1 4.5v.5h-6.2v-.5h2.8v-4h-2.5v-.6h5.5v.5h-2.5v4h2.9v.1zm6.9-4.3h-5v1.5c0 1.1-.1 2.7-.8 3.8-.1-.1-.3-.2-.5-.3.7-1 .7-2.4.7-3.5v-2.1h5.5l.1.6zm7.1 2.4h-1.5v3h-.6v-3h-2c-.1 1.1-.5 2.2-1.7 3l-.4-.4c1.2-.7 1.5-1.6 1.6-2.6h-1.6v-.5h1.7v-2h-1.4v-.5h5.7v.5h-1.3v2h1.5v.5zm-2.1-.5v-2h-2v2h2zm9 2.4v.5h-6.2v-.5h2.8v-4h-2.5v-.6h5.5v.5h-2.5v4h2.9v.1z"/></g><g><path class="st6" d="M309.4 167.9v-11.8h-2.2v-1.2h3.5v13h-1.3zm11 0h-1.5l3-4.4c-.4.2-.8.3-1.2.3-.6 0-1.1-.1-1.7-.3s-1-.5-1.3-.9c-.4-.4-.7-.8-.9-1.2-.3-.6-.5-1.3-.5-2 0-.8.2-1.6.6-2.3s.9-1.3 1.6-1.7 1.4-.6 2.3-.6c.8 0 1.6.2 2.3.6.7.4 1.2 1 1.6 1.7s.5 1.5.5 2.2c0 .6-.1 1.1-.3 1.6s-.6 1.3-1.3 2.2l-3.2 4.8zm3.5-8.7c0-.5-.1-1.1-.4-1.6s-.6-.9-1.1-1.3-1-.5-1.6-.5-1.1.1-1.6.4c-.5.3-.9.7-1.1 1.2s-.4 1.1-.4 1.7c0 .6.1 1.2.4 1.7s.7.9 1.1 1.2c.5.3 1 .4 1.5.4s.9-.1 1.3-.3.7-.4 1-.7.5-.6.6-1.1c.2-.2.3-.7.3-1.1zm7.5 8.7h-1.5l3-4.4c-.4.2-.8.3-1.2.3-.6 0-1.1-.1-1.7-.3s-1-.5-1.3-.9c-.4-.4-.7-.8-.9-1.2-.3-.6-.5-1.3-.5-2 0-.8.2-1.6.6-2.3s.9-1.3 1.6-1.7 1.4-.6 2.3-.6c.8 0 1.6.2 2.3.6.7.4 1.2 1 1.6 1.7s.5 1.5.5 2.2c0 .6-.1 1.1-.3 1.6s-.6 1.3-1.3 2.2l-3.2 4.8zm3.5-8.7c0-.5-.1-1.1-.4-1.6s-.6-.9-1.1-1.3-1-.5-1.6-.5-1.1.1-1.6.4c-.5.3-.9.7-1.1 1.2s-.4 1.1-.4 1.7c0 .6.1 1.2.4 1.7s.7.9 1.1 1.2c.5.3 1 .4 1.5.4s.9-.1 1.3-.3.7-.4 1-.7.5-.6.6-1.1c.2-.2.3-.7.3-1.1zm4.9 8.7l5.4-11.8H339v-1.2h7.5v1.2l-5.3 11.8h-1.4z"/><path class="st7" d="M309.2 174.6c-.1 1-.3 1.8-.6 2.4.7.7 1.6.8 2.8.8h2.1c-.1.1-.2.3-.2.5h-2c-1.3 0-2.3-.2-3-.9-.2.4-.5.8-.9 1l-.4-.4c.4-.2.7-.6.9-1.1-.3-.4-.5-.8-.6-1.3l.4-.1c.1.4.3.8.5 1 .2-.5.3-1 .4-1.6h-1.1c.3-.5.7-1.3 1-1.9h-1.2v-.5h2c-.3.6-.7 1.4-1 1.9h.6l.3.2zm1.7-1.4h-1.3v-.4h1.3v-.6h.5v.6h1.5v.9h.5v.4h-.5v.9h-1.5v.5h1.6v.4h-1.6v.6h1.9v.4h-1.9v.7h-.5v-.6h-1.7v-.4h1.7v-.6h-1.4v-.4h1.4v-.6h-1.4v-.4h1.4v-.5h-1.8v-.4h1.8v-.5zm.5 0v.5h1v-.5h-1zm1.1.9h-1v.5h1v-.5zm7.9 3.6v.5h-6.2v-.5h3.4c.4-.9.8-2.3 1-3.4l.6.1c-.3 1-.7 2.4-1.1 3.2l2.3.1zm-.3-3.7h-5.6v-.5h5.6v.5zm-4 3.4c-.1-.8-.4-2-.7-2.9l.5-.1c.3.9.6 2.1.7 2.9l-.5.1zm1-4c-.1-.3-.2-.8-.3-1.1l.5-.1c.1.4.3.8.4 1.1l-.6.1zm5.7.6c-.2 1-.6 2.3-1.3 3-.1-.1-.4-.2-.5-.3.6-.7 1-1.9 1.2-2.9l.6.2zm1.8-1.8v5.6c0 .4-.1.5-.4.6-.2.1-.7.1-1.3.1 0-.1-.1-.4-.2-.5h1.1c.1 0 .2-.1.2-.2v-5.6h.6zm1.6 1.6c.6 1 1.2 2.2 1.4 3.1l-.5.2c-.2-.8-.7-2.1-1.3-3.1l.4-.2zm8.2 4v.5h-6.3v-.5h2.9v-.9h-2.2v-.5h2.2v-.8h.5v.8h2.1v.5h-2.1v.9h2.9zm-4.8-3.5c-.1.6-.3 1.2-1 1.7-.1-.1-.2-.3-.3-.4.6-.4.8-.8.9-1.3h-.9v-.5h.9v-1h-.6v-.5h3.1v.5h-.7v1h.8v.5h-.8v1.5h-.5v-1.5h-.9zm0-.4h.9v-1h-.9v1zm3.1 1h-.5v-2.3h.5v2.3zm1.3.4c0 .3-.1.4-.3.5s-.5.1-1 .1c0-.1-.1-.3-.2-.5h.9c.1 0 .1 0 .1-.1v-3.1h.5v3.1zm1.3-1.2c.4.2 1 .5 1.3.7l-.3.4c-.3-.2-.8-.6-1.3-.8l.3-.3zm1.3 1.8l.4.3c-.4.7-.8 1.6-1.2 2.2l-.4-.3c.2-.5.8-1.5 1.2-2.2zm-.9-3.7c.5.2 1 .5 1.3.7l-.3.4c-.3-.2-.9-.6-1.3-.8l.3-.3zm2.5 1.2c-.2.9-.5 1.9-.9 2.5-.1-.1-.3-.2-.5-.3.4-.6.7-1.5.9-2.3l.5.1zm2.8 2.1c-.6 1.7-1.8 2.6-3.8 3.1-.1-.1-.2-.4-.3-.5 2-.4 3.1-1.2 3.6-2.8l.5.2zm-1.6-3.3v4.2h-.5v-4.2h.5zm1.1 1c.4.6.8 1.4 1 1.9l-.5.2c-.1-.5-.5-1.3-1-1.9l.5-.2zm7.1 1.9c-.3.9-.8 1.6-1.4 2.1.6.4 1.3.7 2.2.9-.1.1-.2.3-.3.5-.9-.2-1.6-.5-2.3-1-.6.5-1.4.8-2.1 1-.1-.1-.2-.3-.3-.4.7-.2 1.4-.5 2-.9-.4-.4-.8-.8-1-1.4-.5.9-1.1 1.6-2 2.1l-.4-.4c1.3-.8 2-1.9 2.5-3.4h-1c-.4 0-.7 0-.7.1 0-.1-.1-.4-.2-.5.1 0 .2-.1.2-.3.1-.1.3-.7.5-1.2l.5.1c-.1.4-.3.9-.5 1.3h1.3c.1-.5.2-1 .3-1.6l.6.1-.3 1.5h3v.5h-3.1c-.1.2-.2.5-.2.7h2.4l.3.2zm-2.9.4c.3.6.6 1 1.1 1.4.5-.4.8-.9 1.1-1.4h-2.2zm2.6-2c-.2-.3-.6-.7-.9-1l.4-.2c.3.3.7.7.9 1l-.4.2zm4 .9h1.7v.5h-1.7v.7h1.4v1.9c0 .2 0 .4-.2.5s-.4.1-.8.1c0-.1-.1-.3-.1-.4h.6c.1 0 .1 0 .1-.1V176h-1v2.5h-.5V176h-.9v1.9h-.5v-2.4h1.4v-.7h-1.7v-.5h1.7v-.7h-.9c-.1.3-.2.5-.4.7-.1-.1-.3-.1-.5-.2.3-.5.6-1.2.7-1.8l.5.1c-.1.2-.1.5-.2.7h.7v-1h.5v1h1.4v.5h-1.4l.1.8zm2.6 2.2h-.5v-3.8h.5v3.8zm1.3-4.4v5.6c0 .3-.1.5-.3.6-.2.1-.6.1-1.1.1 0-.1-.1-.4-.2-.5h.9c.1 0 .1 0 .1-.1v-5.6h.6v-.1zm2.7 3.3c-.2.6-.4 1.3-.7 1.9.1.1.3.2.5.3.5.3 1.1.4 1.9.4.9 0 2-.1 2.8-.1-.1.1-.1.4-.1.5-.5 0-1.8.1-2.6.1-.9 0-1.5-.1-2-.4-.3-.2-.5-.4-.7-.4-.1 0-.4.4-.6.9l-.4-.5c.3-.4.6-.7.8-.8.2-.4.4-.9.5-1.4h-1c.2-.4.4-1 .6-1.5h-.9v-.5h1.6c-.2.5-.4 1.1-.6 1.6h.7l.2-.1zm-1.1-2c-.1-.3-.2-.8-.4-1.1l.5-.1c.1.4.3.8.4 1.1l-.5.1zm2 0c-.2.3-.4.5-.5.7-.1-.1-.3-.2-.5-.2.4-.4.8-1.1 1-1.7l.5.1c-.1.2-.2.4-.3.7h.8v-.9h.5v.9h1.7v.4h-1.7v.9h2v.4h-4.5v-.4h2v-.9h-1zm2.5 4v-.2H359v.2h-.5v-2.1h3.3v2.1h-.5zm0-.7v-1H359v1h2.3zm7.9.4h-2.5v1.3h-.5v-1.3h-3.1v-.5h3.1v-1.1h-1.6c-.4 0-.7 0-.8.1 0-.1-.1-.4-.2-.5.1 0 .3-.2.5-.5.1-.1.3-.5.5-1h-1.5v-.5h1.7c.1-.3.3-.7.4-1.1l.6.2c-.1.3-.2.6-.4.9h3.5v.5h-3.8c-.3.5-.6 1.1-.9 1.5h1.8v-1.1h.5v1.1h1.9v.5h-1.9v1.1h2.5l.2.4zm1.2-3.5h.5v4.8h-.5v-4.8zm.5-1.5c.3.3.7.7.9 1l-.4.3c-.2-.3-.5-.7-.8-1l.3-.3zm1 1.9h2.6v3.2h-2.6v-3.2zm4.2 3.8c0 .3-.1.4-.2.5-.2.1-.5.1-.9.1 0-.1-.1-.4-.2-.5h.7c.1 0 .1 0 .1-.1V173h-3.4v-.5h3.9v5.4zm-2-3.3l-1.7-.1-.1.9 1.7.1.1-.9zm-1.7 2.2h1.7v-.9h-1.7v.9zm7.1-.5c.5-.2.9-.6.9-1h-.1c-.3 0-.5-.2-.5-.5s.2-.5.5-.5c.4 0 .6.3.6.8 0 .8-.5 1.3-1.2 1.6l-.2-.4zm-66.4 9.5v.3c-.1 2.8-.2 3.8-.5 4.1-.2.2-.3.2-.6.3h-1.1c0-.1-.1-.4-.2-.5.5.1.9.1 1.1.1.1 0 .2 0 .3-.1.2-.2.3-1.1.4-3.5h-2.4c-.2 1.4-.7 2.9-2.5 4.1l-.4-.4c1.7-1.1 2.2-2.5 2.4-3.7h-2.2v-.5h2.2v-1.6h.5v1.6l3-.2zm-4.4-.2c-.1-.3-.5-.7-.7-1.1l.5-.2c.3.3.6.7.8 1l-.6.3zm2.5 3.1c-.2-.4-.6-.9-.9-1.4l.4-.2c.4.4.8 1 1 1.3l-.5.3zm5.9.1l.1.4c-1 .4-2.1.9-2.9 1.2l-.2-.5c.5-.2 1.2-.4 2-.7v-2.8h-1.8v-.5h1.8v-1.6h.5v4.7l.5-.2zm2.3.9c.3 0 .4-.3.4-1.7.1.1.4.2.5.2-.1 1.4-.2 1.9-.9 1.9h-.9c-.6 0-.8-.2-.8-.9v-5h.5v1.6h2v.5h-2v2.9c0 .4 0 .4.3.4l.9.1zm6.6-3.1v.6c.2 1.4.7 2.2 1.5 2.9-.1.1-.3.3-.3.4-.7-.6-1.1-1.2-1.4-2.1-.2.7-.5 1.5-1.2 2.1l-.3-.3h-3v-5.6h3v.5h-2.5v.8l.4-.2c.3.4.6.9.9 1.3.2-.5.4-1.1.6-1.6l.5.1c-.2.7-.5 1.4-.7 2 .4.6.6 1.1.8 1.5l-.5.2c-.1-.4-.4-.8-.6-1.3-.3.6-.6 1.1-1 1.5l-.3-.3v.6h2.5v.3c1.1-1.1 1.1-2.5 1.1-3.5v-.5h.5v.6zm-4.2 2.5c.4-.4.8-1 1.1-1.6-.3-.6-.7-1.1-1.1-1.6v3.2zm3.4-3.4c-.2.5-.4 1-.6 1.4-.1-.1-.3-.2-.4-.3.5-.6.8-1.7.9-2.7l.5.1c-.1.4-.1.7-.2 1.1h1.9l.3.1c-.1.6-.3 1.3-.5 1.8l-.4-.1c.1-.3.2-.8.4-1.3l-1.9-.1zm8.4-1.3c0 3.3 0 5.4.5 5.4.1 0 .1-.5.1-1.1.1.1.2.3.3.4-.1.9-.2 1.2-.5 1.2-.9 0-.9-1.9-.9-5.5h-3.6v1.6c0 1.2-.1 2.9-.9 4l-.4-.4c.8-1.1.8-2.6.8-3.6v-2.1h4.6v.1zm-1.2 1.2c-.2.7-.5 1.3-.9 2 .5.7 1 1.3 1.3 1.8l-.5.3c-.2-.4-.6-1-1.1-1.6-.5.7-1 1.3-1.5 1.7l-.4-.4c.6-.4 1.1-1 1.6-1.8-.4-.6-.9-1.1-1.3-1.6l.4-.2c.4.4.8.9 1.1 1.4.3-.5.5-1.1.7-1.6h.6zm2.6 1.6c.2-.5.3-1.2.3-1.8l.4.1c0 .6-.2 1.4-.3 1.9l-.4-.2zm1-3.1h.5v6.4h-.5v-6.4zm.9 1c.2.3.4.8.4 1l-.4.2c-.1-.3-.3-.7-.4-1.1l.4-.1zm4.5 1.3v.4h-4.2v-.4h1.8v-.5h-1.5v-.4h1.5v-.4h-1.7v-.4h1.7v-.5h.5v.5h1.7v.4h-1.7v.4h1.5v.4h-1.5v.5h1.9zm-.5 3.5c0 .3-.1.4-.2.5-.2.1-.5.1-1 .1 0-.1-.1-.3-.1-.4h.8c.1 0 .1 0 .1-.1v-.5H338c-.1.4-.2.8-.5 1.2l-.4-.4c.4-.5.4-1.2.4-1.8v-1.3h3.4v2.7zm-.4-.9v-.5h-2.4v.5h2.4zm-2.4-1.4v.5h2.4v-.5h-2.4zm6.1-1.3h1.7v.5h-1.7v.7h1.4v1.9c0 .2 0 .4-.2.4-.2.1-.4.1-.8.1 0-.1-.1-.3-.1-.4h.6c.1 0 .1 0 .1-.1V188h-1v2.5h-.5V188h-.9v1.9h-.5v-2.4h1.4v-.7H342v-.5h1.7v-.7h-.9c-.1.3-.2.5-.4.7-.1-.1-.3-.1-.5-.2.3-.5.6-1.2.7-1.8l.5.1c-.1.2-.1.5-.2.7h.7v-1h.5v1h1.4v.5h-1.4l.1.7zm2.7 2.3h-.5v-3.8h.5v3.8zm1.3-4.4v5.6c0 .3-.1.5-.3.6-.2.1-.6.1-1.1.1 0-.1-.1-.4-.2-.6h.9c.1 0 .1 0 .1-.1v-5.6h.6zm2.7 3.2c-.2.6-.4 1.3-.7 1.9.1.1.3.2.5.3.5.3 1.1.4 1.9.4.9 0 2-.1 2.8-.1-.1.1-.1.4-.1.5-.5 0-1.8.1-2.6.1-.9 0-1.5-.1-2-.4-.3-.2-.5-.4-.7-.4-.1 0-.4.4-.6.9l-.4-.5c.3-.4.6-.7.8-.8.2-.4.4-.9.5-1.4h-1c.2-.4.4-1 .6-1.5h-.9v-.5h1.6c-.2.5-.4 1.1-.6 1.6h.7l.2-.1zm-1.1-1.9c-.1-.3-.2-.8-.4-1.1l.5-.1c.1.4.3.8.4 1.1l-.5.1zm2-.1c-.2.3-.4.5-.5.7-.1-.1-.3-.2-.5-.2.4-.4.8-1.1 1-1.7l.5.1c-.1.2-.2.4-.3.7h.8v-.9h.5v.9h1.7v.4h-1.7v.9h2v.4h-4.5v-.4h2v-.9h-1zm2.4 4v-.2h-2.3v.2h-.5v-2.1h3.3v2.1h-.5zm0-.6v-1h-2.3v1h2.3zm2-2.7c.4.2 1 .5 1.3.7l-.3.4c-.3-.2-.8-.6-1.3-.8l.3-.3zm1.3 1.7l.4.3c-.4.7-.8 1.6-1.2 2.2l-.4-.3c.2-.5.8-1.4 1.2-2.2zm-.9-3.6c.5.2 1 .5 1.3.7l-.3.4c-.3-.2-.9-.6-1.3-.8l.3-.3zm2.5 1.2c-.2.9-.5 1.9-.9 2.5-.1-.1-.3-.2-.5-.3.4-.6.7-1.5.9-2.3l.5.1zm2.8 2c-.6 1.7-1.8 2.6-3.8 3.1-.1-.1-.2-.4-.3-.5 2-.4 3.1-1.2 3.6-2.8l.5.2zm-1.6-3.2v4.2h-.5v-4.2h.5zm1.1 1c.4.6.8 1.4 1 1.9l-.5.2c-.1-.5-.5-1.3-1-1.9l.5-.2zm7.1 1.9c-.3.9-.8 1.6-1.4 2.1.6.4 1.3.7 2.2.9-.1.1-.2.3-.3.5-.9-.2-1.6-.5-2.3-1-.6.5-1.4.8-2.1 1-.1-.1-.2-.3-.3-.4.7-.2 1.4-.5 2-.9-.4-.4-.8-.8-1-1.4-.5.9-1.1 1.6-2 2.1l-.4-.4c1.3-.8 2-1.9 2.5-3.4h-1c-.4 0-.7 0-.7.1 0-.1-.1-.4-.2-.5.1 0 .2-.1.2-.3.1-.1.3-.7.5-1.2l.5.1c-.1.4-.3.9-.5 1.3h1.3c.1-.5.2-1 .3-1.6l.6.1-.3 1.5h3v.5H366c-.1.2-.2.5-.2.7h2.4l.3.2zm-2.9.3c.3.6.6 1 1.1 1.4.5-.4.8-.9 1.1-1.4h-2.2zm2.6-1.9c-.2-.3-.6-.7-.9-1l.4-.2c.3.3.7.7.9 1l-.4.2z"/></g><g><path class="st6" d="M168.8 94.9V83.1h-2.2v-1.2h3.5v13h-1.3zm11 0h-1.5l3-4.4c-.4.2-.8.3-1.2.3-.6 0-1.1-.1-1.7-.3-.5-.2-1-.5-1.3-.9-.4-.4-.7-.8-.9-1.2-.3-.6-.4-1.3-.4-2 0-.8.2-1.6.6-2.3s.9-1.3 1.6-1.7c.7-.4 1.4-.6 2.3-.6.8 0 1.6.2 2.3.6s1.2 1 1.6 1.7.6 1.5.6 2.2c0 .6-.1 1.1-.3 1.6s-.6 1.3-1.3 2.2l-3.4 4.8zm3.5-8.7c0-.5-.1-1.1-.4-1.6s-.6-.9-1.1-1.3c-.5-.3-1-.5-1.6-.5s-1.1.1-1.6.4-.9.7-1.1 1.2-.4 1.1-.4 1.7.1 1.2.4 1.7.7.9 1.1 1.2c.5.3 1 .4 1.6.4.5 0 .9-.1 1.3-.3s.7-.4 1-.7c.3-.3.5-.7.6-1.1.1-.2.2-.6.2-1.1zm7.5 8.7h-1.5l3-4.4c-.4.2-.8.3-1.2.3-.6 0-1.1-.1-1.7-.3-.5-.2-1-.5-1.3-.9-.4-.4-.7-.8-.9-1.2-.3-.6-.4-1.3-.4-2 0-.8.2-1.6.6-2.3s.9-1.3 1.6-1.7c.7-.4 1.4-.6 2.3-.6.8 0 1.6.2 2.3.6s1.2 1 1.6 1.7.6 1.5.6 2.2c0 .6-.1 1.1-.3 1.6s-.6 1.3-1.3 2.2l-3.4 4.8zm3.5-8.7c0-.5-.1-1.1-.4-1.6s-.6-.9-1.1-1.3c-.5-.3-1-.5-1.6-.5s-1.1.1-1.6.4-.9.7-1.1 1.2-.4 1.1-.4 1.7.1 1.2.4 1.7.7.9 1.1 1.2c.5.3 1 .4 1.6.4.5 0 .9-.1 1.3-.3s.7-.4 1-.7c.3-.3.5-.7.6-1.1.1-.2.2-.6.2-1.1zm4.2 2.1l1.2-6.4h5.8v1.2h-4.8l-.6 3.6c.4-.2.8-.4 1.1-.5s.7-.1 1.1-.1c.8 0 1.5.2 2.1.6s1.2.9 1.6 1.7c.4.7.6 1.5.6 2.3s-.2 1.6-.6 2.3-.9 1.3-1.6 1.7-1.4.6-2.2.6c-.6 0-1.2-.1-1.8-.4s-1-.6-1.4-1.1c-.4-.4-.7-.9-.9-1.5-.1-.3-.2-.8-.3-1.4h1.3c.1.7.3 1.2.5 1.7s.6.8 1.1 1.1 1 .4 1.5.4c.6 0 1.1-.1 1.6-.4s.9-.7 1.1-1.2.4-1.1.4-1.7-.1-1.2-.4-1.7c-.3-.5-.7-.9-1.1-1.2s-1-.4-1.5-.4c-.4 0-.7.1-1 .2s-.6.3-.8.4c-.2.2-.5.4-.8.8l-1.2-.6z"/><path class="st7" d="M161.1 103l-.8.2v2.3h-.5v-2.2c-.4.1-.7.2-1.1.3l-.1-.5c.3-.1.7-.2 1.2-.3V101h-.6c-.1.4-.2.8-.3 1.1-.1-.1-.3-.1-.4-.2.3-.6.4-1.5.5-2.3l.4.1c0 .3-.1.6-.1.8h.5v-1.4h.5v1.4h.7v.5h-.7v1.6l.7-.2.1.6zm3.9.1h-.8v1.8c0 .3-.1.4-.3.5s-.6.1-1.1.1c0-.2-.1-.4-.2-.5h.9c.1 0 .1 0 .1-.1v-1.8h-2.4v-.5h2.4v-.7h.5v.7h.8v.5h.1zm-2.2-2.7h-1.5v-.5h1.5v-.8h.5v.8h1.5v.5h-1.5v.9h1.3v.5h-3v-.5h1.2v-.9zm-.7 2.9c.3.3.7.8.9 1.1l-.4.3c-.2-.3-.6-.8-.9-1.1l.4-.3zm9.6-2.9v1.5h-.5v-1.1H169v1.6h-.5v-1.6h-2.2v1.1h-.5v-1.5h2.7v-.5h-2.4v-.4h5.3v.4H169v.5h2.7zm-5.3 2.3h4.7v2.8h-.5v-.2H167v.3h-.5l-.1-2.9zm.1-.7c.4-.1 1-.1 1.7-.2v.3c-.5.1-1.1.2-1.5.3l-.2-.4zm.3-1c.4.1 1 .2 1.3.4l-.1.3c-.3-.1-.9-.3-1.3-.4l.1-.3zm.1 2.1v.7h1.6v-.7h-1.6zm1.6 1.8v-.7H167v.7h1.5zm2.2-1.8H169v.7h1.6l.1-.7zm0 1.8v-.7H169v.7h1.7zm.2-2.4c-.4-.1-1.1-.3-1.6-.4l.1-.3c.5.1 1.2.2 1.6.3l-.1.4zm.1-1.3c-.4.2-1 .3-1.4.4l-.2-.3c.4-.1 1-.3 1.3-.4l.3.3zm3.3 1.3c-.1.6-.3 1.3-.6 1.8.1.1.3.2.6.4.5.3 1.1.3 1.9.3.9 0 2-.1 2.8-.2-.1.1-.1.4-.1.5-.5 0-1.8.1-2.7.1s-1.5-.1-2-.4c-.3-.2-.5-.4-.7-.4s-.4.4-.6.9l-.4-.5c.2-.3.5-.6.7-.8.2-.4.4-.9.5-1.4h-.9c.2-.4.4-1 .6-1.6h-.8v-.5h1.4c-.2.5-.4 1.1-.6 1.6h.6l.3.2zm-.9-2c-.1-.3-.2-.8-.4-1.2l.5-.1c.1.4.3.8.4 1.1l-.5.2zm1.9 4h-.5v-3.6h2c-.4-.2-.9-.4-1.3-.6l.3-.3c.3.1.6.2 1 .4.3-.2.7-.4 1-.6h-2.9v-.4h3.5l.3.2c-.4.4-.9.7-1.4 1 .2.1.4.2.5.3h.9v3.1c0 .3-.1.4-.2.4-.2.1-.5.1-.9.1 0-.1-.1-.3-.1-.4h.7c.1 0 .1 0 .1-.1v-.6H177v1.1h-.5v-1.1h-1.2v1.1zm0-3.2v.6h1.2v-.6h-1.2zm1.2 1.6v-.6h-1.2v.6h1.2zm1.7-1.6H177v.6h1.2v-.6zm0 1.6v-.6H177v.6h1.2zm2.3-2l-.6.6c-.1-.1-.2-.3-.4-.3.8-.6 1.3-1.4 1.6-2l.5.1c-.1.2-.2.4-.4.7h1.6l-.3-.6.5-.2.4.8h2.1v.4h-2.2v.5h2v.4h-2v.5h2v.4h-2v.5h2.5v.4H181v.2h-.5v-2.4zm1.5 3.5c-.5.4-1.4.8-2.1.9-.1-.1-.2-.3-.3-.4.7-.1 1.6-.4 2-.7l.4.2zm3.9-1v.4H183v1.7h-.5v-1.7h-2.8v-.4h2.8v-.4h.5v.5l2.9-.1zm-3.2-3.1H181v.5h1.7v-.5zm0 .9H181v.5h1.7v-.5zm0 .8H181v.5h1.7v-.5zm1 2.2c.7.2 1.6.5 2.1.7l-.3.4c-.5-.2-1.4-.6-2.1-.8l.3-.3zm8.9-4.7v6.1h-.6v-.3h-4.7v.3h-.5v-6.1h5.8zm-.5 5.3V100h-4.7v4.8h4.7zm-.4-3.2h-1.1v2.2c0 .3-.1.4-.2.5-.2.1-.4.1-.9.1 0-.1-.1-.3-.2-.5h.7c.1 0 .1 0 .1-.1v-1.6c-.6.7-1.3 1.2-2 1.6-.1-.1-.2-.3-.3-.3.8-.4 1.6-1.1 2.2-1.9h-2.1v-.5h2.2v-.9h.5v.9h1.1v.5zm7.7-.1c-.3.9-.7 1.7-1.2 2.4.3.7.6 1.1.9 1.1.2 0 .3-.4.3-1.3.1.1.3.2.4.3-.1 1.2-.3 1.5-.8 1.5s-1-.4-1.3-1.2c-.4.4-.9.8-1.4 1.2l-.4-.4c.6-.3 1.2-.8 1.6-1.3-.2-.8-.4-1.8-.5-2.9h-2.4v.9h1.8v.2c0 1.6-.1 2.2-.2 2.3-.1.1-.2.2-.4.2h-.8c0-.2-.1-.4-.1-.5h.7c.1 0 .2 0 .2-.1.1-.1.1-.6.2-1.8h-1.3v.1c0 1-.1 2.4-.7 3.3-.1-.1-.3-.3-.4-.3.6-.8.6-2.1.6-2.9v-1.9h2.9v-1.2h.5v1.2h2.3v.5h-2.2c.1.9.2 1.8.4 2.4.4-.6.7-1.2.9-1.9l.4.1zm-1.2-2.3c.4.2 1 .6 1.2.8l-.3.4c-.3-.2-.8-.6-1.2-.8l.3-.4zm8.6 5.5v.5h-6.2v-.5h3.4c.4-.9.8-2.3 1-3.4l.6.1c-.3 1-.7 2.4-1.1 3.2h2.3v.1zm-.3-3.7h-5.6v-.5h5.6v.5zm-4 3.4c-.1-.8-.4-2-.7-2.9l.5-.1c.3.9.6 2.1.7 2.9l-.5.1zm1-4c-.1-.3-.2-.8-.3-1.1l.5-.1c.1.4.3.8.4 1.1l-.6.1z"/></g><g><path class="st6" d="M24.9 163.8V152h-2.2v-1.2h3.5v13h-1.3zm11 0h-1.5l3-4.4c-.4.2-.8.3-1.2.3-.6 0-1.2-.1-1.7-.3s-1-.5-1.3-.9c-.4-.4-.7-.8-.9-1.2-.3-.6-.5-1.3-.5-2 0-.8.2-1.6.6-2.3.4-.7.9-1.3 1.6-1.7s1.4-.6 2.3-.6c.8 0 1.6.2 2.3.6.7.4 1.2 1 1.6 1.7s.5 1.5.5 2.2c0 .6-.1 1.1-.3 1.6s-.6 1.3-1.3 2.2l-3.2 4.8zm3.5-8.7c0-.5-.1-1.1-.4-1.6s-.6-.9-1.1-1.3c-.5-.3-1-.5-1.6-.5s-1.1.1-1.6.4-.9.7-1.1 1.2c-.3.5-.4 1.1-.4 1.7 0 .6.1 1.2.4 1.7.3.5.7.9 1.1 1.2.5.3 1 .4 1.5.4s.9-.1 1.3-.3c.4-.2.7-.4 1-.7s.5-.6.6-1.1c.2-.2.3-.6.3-1.1zm5.9 1.5c-.5-.4-.9-.8-1.2-1.2-.2-.4-.4-.9-.4-1.4 0-.6.2-1.1.4-1.6.3-.5.7-.9 1.3-1.2.5-.3 1.1-.4 1.7-.4.6 0 1.2.1 1.7.4.5.3 1 .7 1.2 1.2.3.5.5 1.1.5 1.6 0 .4-.1.8-.2 1.1-.1.4-.4.7-.6 1-.2.2-.4.4-.7.6.5.2.8.5 1.1.7.4.4.6.8.9 1.2s.3 1 .3 1.5c0 .7-.2 1.3-.5 2-.4.6-.9 1.1-1.5 1.5s-1.3.4-2 .4-1.4-.2-2.1-.5c-.7-.4-1.2-.9-1.5-1.5-.4-.6-.5-1.3-.5-1.9 0-.5.1-1 .3-1.5s.5-.9.9-1.3c.2-.3.5-.6.9-.7zm-.9 3.4c0 .8.3 1.5.8 2.1s1.2.8 2.1.8c.5 0 1-.1 1.4-.4.4-.2.8-.6 1-1 .2-.5.4-.9.4-1.4s-.1-1-.4-1.4-.6-.8-1.1-1-.9-.4-1.4-.4-.9.1-1.4.4c-.5.2-.8.6-1 1-.3.4-.4.8-.4 1.3zm.7-6.1c0 .3.1.6.2.9.1.3.4.6.7.8s.7.4 1.2.4c.6 0 1.1-.2 1.5-.6.4-.4.6-.9.6-1.5s-.2-1.1-.6-1.5c-.4-.4-.9-.6-1.5-.6s-1.1.2-1.5.6c-.4.4-.6.9-.6 1.5zm10.3 9.9l5.3-11.8h-6.2v-1.2H62v1.2l-5.3 11.8h-1.3z"/><path class="st7" d="M5.8 174.2c.3-.4.5-1 .7-1.5l.5.1c-.1.6-.4 1.2-.7 1.6l-.5-.2zm5.4-2.1H6.8v-2.2H8c-.1-.3-.4-.8-.7-1.2l.4-.2c.3.4.6.8.7 1.2l-.4.2h1.4c.3-.4.6-1 .8-1.4l.5.2c-.2.4-.5.8-.7 1.2h1.1l.1 2.2zm-.6-1.7H7.4v1.2h3.3l-.1-1.2zm-.6 3.9c.3 0 .4-.1.4-.7.1.1.3.2.5.2-.1.8-.2 1-.9 1H8.5c-.8 0-1-.1-1-.7v-1.4H8v1.4c0 .2.1.2.5.2H10zm-1.2-2.1c.5.3 1 .8 1.3 1.1l-.4.3c-.3-.3-.8-.8-1.2-1.1l.3-.3zm2.4.4c.4.5.8 1.1 1 1.5l-.4.3c-.1-.4-.6-1.1-1-1.6l.4-.2zm4.1 1.1c0 .1 0 .3.1.4-1.2.4-1.4.4-1.5.5 0-.1-.1-.3-.2-.4.1-.1.2-.2.2-.5v-.7c-.2.2-.4.3-.7.4-.1-.1-.2-.3-.3-.4.5-.3 1.1-.7 1.5-1.1H13v-.4h1.7c-.1-.2-.2-.4-.3-.5l.4-.1c.1.2.3.5.4.7h1.2v.4h-1.6c-.2.2-.4.5-.6.7v1.2l1.1-.2zm3.5-2.3c-.3.7-.6 1.4-1.1 2 .2.6.5.9.8.9.2 0 .2-.3.3-1.1.1.1.3.2.4.3-.1 1.1-.3 1.4-.8 1.4s-.8-.4-1.1-1c-.4.4-.8.8-1.2 1.1-.1-.1-.2-.3-.4-.4.5-.3 1-.7 1.4-1.2-.2-.6-.3-1.5-.4-2.4h-3.9v-.5h1.6v-.8h-1.3v-.4h1.3v-.7h.6v.7h1.3v.4H15v.8h1.8c0-.6-.1-1.2-.1-1.9h.5v1.9H19v.5h-1.8c.1.7.1 1.4.3 1.9.3-.5.6-1 .8-1.5h.5zm-2.5 1.1l-.6.6c.3.2.5.4.6.6l-.3.3c-.3-.4-1-.9-1.5-1.2l.3-.3c.2.1.4.2.6.4.2-.2.4-.4.5-.6l.4.2zm2.2-2.5c-.2-.3-.6-.8-1-1.1l.4-.3c.4.3.8.8 1 1.1l-.4.3zm5.1 2.1c.6.9 1.7 1.7 2.6 2.1l-.4.4c-.9-.5-1.9-1.3-2.6-2.3v2.5h-.5v-2.5c-.7.9-1.7 1.8-2.6 2.2-.1-.1-.2-.3-.4-.4.9-.4 2-1.2 2.6-2.1h-2.4v-.5h2.8v-1.7h-2.5v-.5h2.5v-.8h.5v.8h2.5v.5h-2.5v1.7H26v.5l-2.4.1zm-2.4-2.1c.3.4.6.9.7 1.3l-.5.2c-.1-.4-.4-.9-.6-1.3l.4-.2zm2.8 1.4l.7-1.4.5.2c-.2.5-.5 1-.8 1.4l-.4-.2zm5 2.3l1.5-.3v.4c-1.2.2-2.6.5-3.5.7l-.1-.5c.4-.1 1-.2 1.6-.3v-1.2h-1.4v-.5h1.4v-.8h.5v.8h1.4v.5H29v1.2zm-2-4.8h3.6v.5h-1.9c-.2.5-.5.9-.8 1.3l1.8-.1c-.2-.2-.4-.5-.5-.7l.4-.2c.4.5.9 1.1 1.1 1.5l-.4.3c-.1-.1-.1-.3-.2-.4-2.2.2-2.4.2-2.6.3 0-.1-.1-.4-.2-.5.1 0 .2-.1.3-.3.1-.1.4-.6.6-1.1H27v-.6zm4.4 4.4h-.5v-4.2h.5v4.2zm1.4-4.7v5.4c0 .3-.1.5-.3.6s-.6.1-1.1.1c0-.1-.1-.4-.2-.5h.9c.1 0 .1 0 .1-.1v-5.5h.6zM40 174v.5h-6.2v-.5h2.6v-5.4h.6v2.1h2.6v.5H37v2.8h3zm1.9-2.3c-.2-.2-.7-.5-1.1-.7l.3-.4c.4.2.9.5 1.1.7l-.3.4zm-1 2.8c.3-.5.7-1.5 1-2.3l.4.3c-.3.7-.6 1.6-.9 2.3l-.5-.3zm.5-5.9c.4.2.9.5 1.2.7l-.3.4c-.2-.2-.8-.5-1.2-.7l.3-.4zm2.1 1.2c-.2.4-.5.9-.8 1.2-.1-.1-.3-.2-.5-.3.5-.5.9-1.3 1.2-2.1l.5.1c-.1.2-.2.4-.3.7h3.2v.5l-3.3-.1zm3 2.5c0 .4-.1.8-.1 1.1h.5v.5h-.5c-.1.4-.1.6-.2.7-.1.2-.3.2-.5.2h-.9c0-.1-.1-.3-.1-.4h.8c.1 0 .2 0 .3-.1s.1-.2.2-.4h-3.1c.1-.4.2-1 .2-1.5h-.6v-.5h.7c.1-.5.1-1 .2-1.4h3.3v.2c0 .4 0 .8-.1 1.2h.5v.5l-.6-.1zm-.5 1.1c0-.3.1-.6.1-1.1h-2.5c0 .4-.1.8-.1 1.1H46zm-2.3-2.5c0 .3-.1.6-.1 1h1.5c-.2-.2-.5-.6-.8-.8l.3-.2c.3.2.6.5.8.8l-.3.2h1v-1h-2.4zm.7 1.4c.3.2.7.6.8.8l-.3.2c-.2-.2-.5-.6-.8-.9l.3-.1zm9.6.6h-2.8v1.3c0 .3-.1.5-.3.5-.2.1-.6.1-1.3.1 0-.1-.1-.4-.2-.5h1.1c.2 0 .2 0 .2-.1v-1.3h-2.8v-.5h2.8v-.5c.4-.1.9-.4 1.2-.6H49v-.5h3.5l.3.3c-.5.4-1.1.8-1.7 1.1v.3H54v.4zm-5.5-1.9H48v-1.4h1.2c-.1-.3-.4-.6-.6-.9l.4-.2c.3.3.5.7.7.9l-.3.1h1.5c-.1-.3-.3-.7-.5-1l.5-.2c.2.3.5.8.6 1.1l-.4.1h1.1c.3-.3.5-.8.7-1.1l.5.2c-.2.3-.5.6-.7.9h1.1v1.4h-.5v-.9h-4.9l.1 1zm10.9 1.5c-1.4.5-3 1-4.1 1.4l-.2-.5c1-.3 2.7-.9 4.2-1.4l.1.5zm1.2-3.2c0 3.7-.1 4.8-.4 5.2-.2.2-.3.3-.6.3h-1.1c0-.1-.1-.4-.2-.5h1.1c.1 0 .2 0 .3-.1.2-.2.3-1.5.3-4.7h-4.8v-.5h5.3l.1.3zm-4.2.8c.6.4 1.4 1 1.9 1.4l-.4.4c-.4-.4-1.2-1-1.8-1.5l.3-.3zm-37.6 11.6v3.3h-.5v-.4h-2v2.3h-.5v-2.3h-2v.4h-.5v-3.3h2.5v-1.2h.5v1.2h2.5zm-3.1 2.4v-1.9h-2v1.9h2zm2.5 0v-1.9h-2v1.9h2zm6.8-1.9c-.4 1.1-.9 2-1.6 2.7.8.6 1.7 1.1 2.8 1.4-.1.1-.3.3-.4.5-1.1-.3-2.1-.8-2.9-1.5-.8.7-1.8 1.2-2.9 1.6-.1-.1-.2-.4-.3-.5 1.1-.3 2.1-.8 2.8-1.4-.7-.7-1.3-1.6-1.7-2.7h-1.1v-.5H26v.5h-1v-.1zm-3.5 0c.4.9.9 1.7 1.5 2.3.6-.6 1.1-1.4 1.4-2.3h-2.9zm1.4-.5c-.1-.3-.3-.8-.5-1.1l.5-.1c.2.3.4.8.5 1.1l-.5.1zm5.8.8h1.2v.5h-1.2v.2c.3.3 1 1.1 1.2 1.4l-.3.4c-.2-.3-.6-.8-.9-1.2v3.1h-.5v-3.1c-.3.8-.8 1.6-1.2 2.1-.1-.1-.2-.4-.3-.5.5-.5 1.1-1.5 1.4-2.4h-1.2v-.5h1.4v-1.2c-.4.1-.8.1-1.1.2 0-.1-.1-.3-.1-.4.9-.1 2-.3 2.6-.6l.4.4c-.3.1-.7.2-1.2.3v1.3h-.2zm4-1.4v5.4h-.5v-.5h-1.6v.6h-.5v-5.4h2.6v-.1zm-.5 4.3v-3.9h-1.6v3.9h1.6zm7.5-3.7v3.3h-.5v-.4h-2v2.3h-.5v-2.3h-2v.4h-.5v-3.3h2.5v-1.2h.5v1.2h2.5zm-3.1 2.4v-1.9h-2v1.9h2zm2.6 0v-1.9h-2v1.9h2zm7.6-3.3v6.1h-.5v-.4h-4.7v.4H41v-6.1h5.8zm-.6 5.2v-4.8h-4.7v4.8h4.7zm-.4-1.1v.4H42v-.4h1.6v-1.2h-1.3v-.4h1.3v-1h-1.5v-.5h3.6v.5h-1.6v1h1.4v.4h-1.4v1.2h1.7zm-.9-1c.3.2.6.5.7.8l-.4.2c-.1-.2-.4-.6-.7-.8l.4-.2zm8-1.7c-.4 1.1-.9 2-1.6 2.7.8.6 1.7 1.1 2.8 1.4-.1.1-.3.3-.4.5-1.1-.3-2.1-.8-2.9-1.5-.8.7-1.8 1.2-2.9 1.6-.1-.1-.2-.4-.3-.5 1.1-.3 2.1-.8 2.8-1.4-.7-.7-1.3-1.6-1.7-2.7h-1.1v-.5H54v.5h-1.1v-.1zm-3.5 0c.4.9.9 1.7 1.5 2.3.6-.6 1.1-1.4 1.4-2.3h-2.9zm1.5-.5c-.1-.3-.3-.8-.5-1.1l.5-.1c.2.3.5.8.5 1.1l-.5.1zm6.1-1.1c-.2.4-.4.9-.7 1.3v4.9h-.5v-4.1c-.3.4-.6.8-.9 1.1-.1-.1-.2-.4-.3-.5.8-.7 1.5-1.7 2-2.8l.4.1zm3 5.5c.4 0 .5-.3.5-1.5.1.1.3.2.5.2-.1 1.3-.2 1.7-1 1.7h-1.3c-.7 0-.9-.2-.9-.9v-5.1h.5v1.9h2.5v.5h-2.5v2.7c0 .4.1.4.4.4l1.3.1z"/></g><g><path class="st6" d="M24.9 242.6v-11.8h-2.2v-1.2h3.5v13h-1.3zm11 0h-1.5l3-4.4c-.4.2-.8.3-1.2.3-.6 0-1.2-.1-1.7-.3s-1-.5-1.3-.9c-.4-.4-.7-.8-.9-1.2-.3-.6-.5-1.3-.5-2 0-.8.2-1.6.6-2.3.4-.7.9-1.3 1.6-1.7s1.4-.6 2.3-.6c.8 0 1.6.2 2.3.6.7.4 1.2 1 1.6 1.7s.5 1.5.5 2.2c0 .6-.1 1.1-.3 1.6s-.6 1.3-1.3 2.2l-3.2 4.8zm3.5-8.6c0-.5-.1-1.1-.4-1.6s-.6-.9-1.1-1.3c-.5-.3-1-.5-1.6-.5s-1.1.1-1.6.4-.9.7-1.1 1.2c-.3.5-.4 1.1-.4 1.7 0 .6.1 1.2.4 1.7.3.5.7.9 1.1 1.2.5.3 1 .4 1.5.4s.9-.1 1.3-.3c.4-.2.7-.4 1-.7s.5-.6.6-1.1c.2-.2.3-.7.3-1.1zm7.5 8.6h-1.5l3-4.4c-.4.2-.8.3-1.2.3-.6 0-1.2-.1-1.7-.3s-1-.5-1.3-.9c-.4-.4-.7-.8-.9-1.2-.3-.6-.5-1.3-.5-2 0-.8.2-1.6.6-2.3.4-.7.9-1.3 1.6-1.7s1.4-.6 2.3-.6c.8 0 1.6.2 2.3.6.7.4 1.2 1 1.6 1.7s.5 1.5.5 2.2c0 .6-.1 1.1-.3 1.6s-.6 1.3-1.3 2.2l-3.2 4.8zm3.5-8.6c0-.5-.1-1.1-.4-1.6s-.6-.9-1.1-1.3-1-.5-1.6-.5-1.1.1-1.6.4-.9.7-1.1 1.2c-.3.5-.4 1.1-.4 1.7 0 .6.1 1.2.4 1.7.3.5.7.9 1.1 1.2.5.3 1 .4 1.5.4s.9-.1 1.3-.3c.4-.2.7-.4 1-.7s.5-.6.6-1.1c.2-.2.3-.7.3-1.1zm3.6 4.6h1.3c0 .6.2 1.2.4 1.6.2.4.5.8 1 1.1.4.3 1 .4 1.5.4.9 0 1.5-.3 2-.8s.8-1.2.8-2c0-.5-.1-1-.3-1.4s-.5-.7-.8-.9-.6-.4-1-.5-.9-.1-1.6-.2v-1.1h.5c.8 0 1.4-.2 1.8-.6.4-.4.6-.9.6-1.4 0-.6-.2-1.1-.6-1.5s-.9-.6-1.4-.6c-.6 0-1 .2-1.4.6-.4.4-.6 1-.6 1.7h-1.3c0-.7.2-1.3.4-1.8.3-.5.6-.9 1.2-1.2.5-.3 1.1-.4 1.7-.4.6 0 1.2.1 1.7.4s.9.7 1.2 1.2.4 1.1.4 1.7c0 .5-.1.9-.3 1.3s-.5.8-1 1.1c.4.2.8.5 1 .7.3.3.6.7.9 1.2s.3 1 .3 1.6c0 .7-.2 1.4-.5 2.1s-.9 1.2-1.5 1.5-1.3.5-2 .5c-.5 0-1-.1-1.4-.2-.5-.2-.9-.4-1.2-.7l-.9-.9c-.3-.3-.4-.8-.5-1.2-.3-.3-.3-.8-.4-1.3z"/><path class="st7" d="M12.8 252.1c.3-.4.5-1 .7-1.5l.5.1c-.1.6-.4 1.2-.7 1.6l-.5-.2zm5.4-2.2h-4.4v-2.2H15c-.1-.3-.4-.8-.7-1.2l.4-.2c.3.4.6.8.7 1.2l-.4.2h1.4c.3-.4.6-1 .8-1.4l.5.2c-.2.4-.5.8-.7 1.2h1.1l.1 2.2zm-.6-1.7h-3.3v1.2h3.3v-1.2zm-.6 4c.3 0 .4-.1.4-.7.1.1.3.2.5.2-.1.8-.2 1-.9 1h-1.6c-.8 0-1-.1-1-.7v-1.4h.6v1.4c0 .2.1.2.5.2H17zm-1.3-2.2c.5.3 1 .8 1.3 1.1l-.4.3c-.3-.3-.8-.8-1.2-1.1l.3-.3zm2.5.5c.4.5.8 1.1 1 1.5l-.4.3c-.1-.4-.6-1.1-1-1.6l.4-.2zm4 1.1c0 .1 0 .3.1.4-1.2.4-1.4.4-1.5.5 0-.1-.1-.3-.2-.4.1-.1.2-.2.2-.5v-.6c-.2.2-.5.3-.7.4-.1-.1-.2-.3-.3-.4.5-.3 1.1-.7 1.5-1.1H20v-.4h1.7c-.1-.2-.2-.4-.3-.5l.4-.1c.1.2.3.5.4.7h1.2v.4h-1.6c-.2.2-.4.5-.6.7v1.2l1-.3zm3.6-2.4c-.3.7-.6 1.4-1.1 2 .2.6.5.9.8.9.2 0 .2-.3.3-1.1.1.1.3.2.4.3-.1 1.1-.3 1.4-.8 1.4s-.8-.4-1.1-1c-.4.4-.8.8-1.2 1.1-.1-.1-.2-.3-.4-.4.5-.3 1-.7 1.4-1.2-.2-.6-.3-1.5-.4-2.4h-3.9v-.5h1.6v-.8h-1.3v-.5h1.3v-.7h.6v.7h1.3v.4H22v.8h1.8c0-.6-.1-1.2-.1-1.9h.5v1.9H26v.5h-1.8c.1.7.1 1.4.3 1.9.3-.5.6-1 .8-1.5l.5.1zm-2.5 1.2l-.6.6c.3.2.5.4.6.6l-.3.3c-.3-.4-1-.9-1.5-1.2l.3-.3c.2.1.4.2.6.4.2-.2.4-.4.5-.6l.4.2zm2.2-2.5c-.2-.3-.6-.8-.9-1.1l.4-.3c.4.3.8.8 1 1.1l-.5.3zm7.5-.5v.5h-3.8c-.2.5-.5 1-.9 1.4v3.4h-.5V250c-.2.3-.5.5-.8.7 0-.1-.2-.4-.3-.5.8-.6 1.4-1.4 1.8-2.3h-1.7v-.5h1.9c.1-.4.3-.7.4-1.1l.5.1-.3.9H33v.1zm-1.9 4.7H33v.5h-4.2v-.5h1.9v-2h-1.6v-.5h1.6v-1.3h.5v1.3h1.6v.5h-1.6l-.1 2zm8.6-4.5v3.3h-.5v-.4h-2v2.3h-.5v-2.3h-2v.4h-.5v-3.3h2.5v-1.2h.5v1.2h2.5zm-3.1 2.3V248h-2v1.9h2zm2.6 0V248h-2v1.9h2zm7.6-3.2v6.1h-.5v-.4h-4.7v.4H41v-6.1h5.8zm-.6 5.2v-4.8h-4.7v4.8h4.7zm-.4-1.1v.4H42v-.4h1.6v-1.2h-1.3v-.4h1.3v-1h-1.5v-.5h3.6v.5h-1.6v1h1.4v.4h-1.4v1.2h1.7zm-.9-1c.3.2.6.5.7.8l-.4.2c-.1-.2-.4-.6-.7-.8l.4-.2zm9.1 0h-1.5v3H52v-3h-2c-.1 1.1-.5 2.2-1.7 3l-.4-.4c1.2-.7 1.5-1.6 1.6-2.6h-1.6v-.5h1.7v-2h-1.4v-.5h5.7v.5h-1.3v2H54v.5zm-2.1-.5v-2H50v2h1.9zm5.1-1c0 .8-.1 1.7-.5 2.6l.8.8-.3.4c-.2-.2-.4-.5-.7-.7-.3.5-.7 1-1.3 1.4-.1-.1-.2-.3-.4-.3.6-.4 1-.9 1.3-1.4-.4-.3-.7-.6-1.1-.9.2-.4.3-1.1.5-1.8h-.6l-.1-.5h.8c.1-.5.2-1.1.2-1.6h.5c-.1.5-.1 1-.2 1.5h.6v-.5h.5v.5h.3v.4l-.3.1zm-1.2.1c-.1.6-.3 1.1-.4 1.6.2.2.5.4.7.6.3-.8.4-1.6.4-2.2h-.7zm4.1-1c.5.6 1 1.4 1.2 1.9l-.5.2c-.1-.1-.1-.3-.2-.5-2.5.2-2.9.2-3 .3 0-.1-.1-.4-.2-.5.1 0 .3-.2.5-.4s.8-1.2 1.1-2.1l.5.2c-.4.8-.8 1.6-1.3 2.2l2.2-.1c-.2-.4-.5-.7-.7-1l.4-.2zm-2.3 2.5h3.1v2.8h-.5v-.3h-2.1v.3h-.5v-2.8zm.5.5v1.6h2.1v-1.6h-2.1zm-36.3 8.1c-.2.5-.4 1-.7 1.5v4.7h-.5v-3.9c-.2.3-.4.6-.7.8 0-.1-.2-.4-.3-.5.7-.7 1.3-1.7 1.7-2.8l.5.2zm3.4 5.7c.4 0 .5-.2.6-1 .1.1.3.2.5.2-.1 1-.2 1.3-1 1.3h-1.8c-.8 0-1.1-.2-1.1-1v-2.3l-.7.3-.2-.5.9-.4V259h.5v1.6l1-.4v-1.9h.5v1.7l1.2-.5.1-.1.4.1v.1c0 1-.1 2.3-.2 3.2l-.4-.1c.1-.7.1-1.7.1-2.6l-1.1.4v2.6H24v-2.4l-1 .4v2.5c0 .4.1.5.6.5l1.6.1zm3.5-5.8c-.1.3-.2.7-.4 1h1.2v4.5h-1.9v.5h-.5v-5.1h.8c.1-.3.2-.8.3-1.1l.5.2zm.3 1.5h-1.5v1.5H29v-1.5zm0 3.6v-1.7h-1.5v1.7H29zm3.9-3.8c-.1 3.2-.2 4.3-.5 4.6-.2.2-.3.3-.6.3h-1c0-.1-.1-.4-.2-.5h1c.1 0 .2 0 .3-.1.2-.2.3-1.3.4-4.1h-1.8c-.2.5-.4.9-.7 1.2-.1-.1-.3-.2-.4-.3.5-.6.8-1.6 1.1-2.5l.5.1c-.1.3-.2.7-.3 1h2.1v.3h.1zm-1.5 3.1c-.2-.4-.7-1.1-1.1-1.6l.4-.2c.4.5.9 1.2 1.1 1.6l-.4.2zm8.6-3.7v.5h-6.1v-.5h2.9c-.1-.2-.2-.5-.2-.7l.5-.1c.1.2.2.5.3.8H40zm-.4 5c0 .3-.1.4-.3.5s-.6.1-1.2.1c0-.1-.1-.3-.2-.4h1c.2 0 .1 0 .1-.1V261h-1.4v.5c0 .1 0 .2.1.2h1v.4h-1.1c-.4 0-.5-.2-.5-.6v-.5h-.8c-.1.7-.4 1.1-1.4 1.3 0-.1-.1-.3-.2-.4.8-.1 1.1-.4 1.2-1h-1.2v3.7h-.5v-4.2h3.2c.2-.3.4-.7.5-1l.5.1c-.2.3-.4.6-.5.8h1.6v3.8h.1zm-3.8-4.6l.4.8-.5.2c-.1-.2-.3-.5-.4-.8l.5-.2zm.3 4.3v.3h-.5v-1.9h2.6v1.6h-2.1zm0-1.2v.8h1.7v-.8h-1.7zm7.2-1.7v.2c-.1 2.3-.1 3-.3 3.3-.1.1-.2.2-.4.2H42c0-.1-.1-.3-.1-.5h.6c.1 0 .1 0 .2-.1s.2-.8.2-2.7H42c0 1.1-.2 2.3-1 3.3-.1-.1-.2-.2-.4-.3.8-1.1.9-2.4.9-3.4v-.9h-.8v-.5h2.7v.5H42v.9h1.3zm-1.2-1.5c-.1-.3-.2-.7-.4-1l.4-.1c.2.3.3.7.4.9l-.4.2zm2.3.3c-.2.4-.4.8-.7 1-.1-.1-.3-.2-.4-.3.5-.5.9-1.3 1.1-2.1l.5.1c-.1.3-.2.6-.3.8H47v.5h-2.6zm2.6 1.8c-.3.3-.7.7-1.1.9.3.8.6 1.5 1.2 1.8l-.4.4c-.9-.7-1.4-2.1-1.6-3.8-.2.1-.4.1-.6.1v2.9l1-.5c0 .1 0 .4.1.5-1.3.6-1.5.7-1.6.8 0-.1-.2-.3-.3-.4.1-.1.2-.2.2-.6v-3c.9-.2 1.9-.5 2.5-.8l.4.4c-.4.2-.8.3-1.3.5.1.4.1.8.2 1.2.3-.2.6-.5.9-.8l.4.4zm7 2.5v.5h-6.2v-.5h2.8v-1.8h-2.1v-.5h2.1v-1.5H49c-.2.4-.5.8-.7 1.1-.1-.1-.3-.2-.5-.3.6-.6 1-1.6 1.3-2.6l.5.1c-.1.4-.2.8-.4 1.1h1.4v-1.3h.5v1.3h2.5v.5h-2.5v1.5h2.2v.5h-2.2v1.8l2.9.1zm1.8-2.6c-.2-.2-.7-.5-1.1-.8l.3-.3c.4.2.9.5 1.1.7l-.3.4zm.5 1c-.3.7-.7 1.5-1 2.1l-.5-.3c.3-.5.7-1.4 1-2.1l.5.3zm-.2-2.8c-.2-.2-.7-.6-1.1-.8l.4-.3c.4.2.9.5 1.1.8l-.4.3zm1.1 1c0 1.2-.1 2.9-.8 4.1-.1-.1-.3-.2-.4-.2.7-1.1.8-2.7.8-3.9v-2H61v.5h-3.9c.1 0 .1 1.5.1 1.5zm3.9 3.4v.5H57v-.5h1.9v-1h-1.4v-.4h1.4v-.6h.5v.6h1.4v.4h-1.4v1h1.7zm-2.2-2.7v-.9h-1.3v-.4h1.3v-.7h.5v.7h1.3v.4h-1.3v.9H61v.4h-3.6v-.4h1.5z"/></g><g><path class="st6" d="M320.5 241v-11.8h-2.2V228h3.5v13h-1.3zm10.9 0h-1.5l3-4.4c-.4.2-.8.3-1.2.3-.6 0-1.1-.1-1.7-.3s-1-.5-1.3-.9c-.4-.4-.7-.8-.9-1.2-.3-.6-.5-1.3-.5-2 0-.8.2-1.6.6-2.3s.9-1.3 1.6-1.7 1.4-.6 2.3-.6c.8 0 1.6.2 2.3.6.7.4 1.2 1 1.6 1.7s.5 1.5.5 2.2c0 .6-.1 1.1-.3 1.6-.2.5-.6 1.3-1.3 2.2l-3.2 4.8zm3.5-8.7c0-.5-.1-1.1-.4-1.6s-.6-.9-1.1-1.3-1-.5-1.6-.5-1.1.1-1.6.4c-.5.3-.9.7-1.1 1.2s-.4 1.1-.4 1.7c0 .6.1 1.2.4 1.7s.7.9 1.1 1.2c.5.3 1 .4 1.5.4s.9-.1 1.3-.3.7-.4 1-.7.5-.6.6-1.1c.2-.2.3-.7.3-1.1zm7.5 8.7H341l3-4.4c-.4.2-.8.3-1.2.3-.6 0-1.1-.1-1.7-.3s-1-.5-1.3-.9c-.4-.4-.7-.8-.9-1.2-.3-.6-.5-1.3-.5-2 0-.8.2-1.6.6-2.3s.9-1.3 1.6-1.7 1.4-.6 2.3-.6c.8 0 1.6.2 2.3.6.7.4 1.2 1 1.6 1.7s.5 1.5.5 2.2c0 .6-.1 1.1-.3 1.6-.2.5-.6 1.3-1.3 2.2l-3.3 4.8zm3.5-8.7c0-.5-.1-1.1-.4-1.6s-.6-.9-1.1-1.3-1-.5-1.6-.5-1.1.1-1.6.4c-.5.3-.9.7-1.1 1.2s-.4 1.1-.4 1.7c0 .6.1 1.2.4 1.7s.7.9 1.1 1.2c.5.3 1 .4 1.5.4s.9-.1 1.3-.3.7-.4 1-.7.5-.6.6-1.1c.2-.2.3-.7.3-1.1zm9.8 8.7v-2.4h-6.5v-1.2l6.3-9.4h1.5v9.4h1.2v1.2H357v2.4h-1.3zm-5-3.6h5v-7.6l-5 7.6z"/><path class="st7" d="M324 248.4h-1.5v3h-.5v-3h-2c-.1 1.1-.5 2.2-1.7 3l-.4-.4c1.2-.7 1.5-1.6 1.6-2.6h-1.6v-.5h1.7V246h-1.4v-.5h5.7v.5h-1.3v2h1.5l-.1.4zm-2.1-.5v-2H320v2h1.9zm4-.9v.4c0 1.2-.1 2.9-.8 4-.1-.1-.3-.2-.5-.3.7-1.1.8-2.6.8-3.8v-2h5.2v1.6h-4.7v.1zm0-1.2v.7h4.2v-.7h-4.2zm4.7 3.8c-.3.2-.8.5-1.1.7.4.3.9.5 1.6.7-.1.1-.2.3-.3.4-1.2-.3-2.1-1-2.6-2.1h-1v1.4l1.5-.3v.4c-1.8.4-2 .5-2.1.6 0-.1-.1-.3-.2-.4.1-.1.3-.2.3-.5v-1.1h-.7v-.4h1.2v-.7h-1v-.4h1v-.9h.5v.6h1.4v-.6h.5v.6h1.2v.4h-1.2v.7h1.5v.4h-2.4c.1.3.3.5.6.7.4-.2.8-.5 1-.7l.3.5zm-2.9-.8h1.4v-.7h-1.4v.7zm9.6-1c-.3.3-.7.5-1.1.8.3.9 1 1.7 1.9 2.1-.1.1-.3.3-.3.4-.9-.4-1.5-1.2-1.9-2.2-.1.1-.2.1-.3.2.2.9.1 1.8-.3 2.1-.2.2-.4.2-.7.2h-.6c0-.1-.1-.4-.1-.5h.6c.2 0 .3 0 .5-.1s.3-.6.3-1.2c-.8.6-2 1.2-3 1.5-.1-.1-.2-.3-.3-.4 1.1-.3 2.5-.9 3.2-1.5 0-.2-.1-.3-.2-.5-.7.5-1.8 1-2.6 1.2-.1-.1-.2-.3-.3-.4.9-.2 2-.7 2.6-1.2-.1-.1-.2-.3-.3-.4-.6.4-1.3.6-2 .8 0-.1-.2-.3-.3-.4.9-.2 1.8-.6 2.5-1H333v-.5h4v.5h-1.7c-.1.1-.3.2-.5.4.3.3.6.7.7 1.1.5-.3 1.1-.8 1.5-1.2l.3.2zm-4.8-.7h-.5v-1.4h2.6c-.1-.2-.2-.4-.3-.5l.5-.1c.1.2.3.5.3.7h2.6v1.4h-.5v-.9h-4.8l.1.8zm8.6 3.1c-.5.4-1.4.9-2.1 1.2-.1-.1-.2-.3-.4-.4.7-.3 1.6-.7 2-1.1l.5.3zm3.9-.3h-6.2v-.5h1v-4h4.2v4h1v.5zm-4.7-4.1v.6h3.1v-.6h-3.1zm3.2 1h-3.1v.6h3.1v-.6zm-3.2 1v.6h3.1v-.6h-3.1zm0 1.6h3.1v-.6h-3.1v.6zm2.6.5c.8.3 1.6.8 2.1 1.1l-.4.4c-.5-.3-1.3-.8-2-1.1l.3-.4zm5-4.5c-.4 1.2-1.1 2.2-1.9 2.8l-.4-.4c.8-.6 1.5-1.5 1.8-2.6l.5.2zm3.1 2.2v.2c-.1 2.1-.2 2.9-.4 3.2-.1.2-.3.2-.5.2H349c0-.2-.1-.4-.2-.5.5 0 .9.1 1 .1s.2 0 .3-.1c.2-.2.3-.9.4-2.6h-1.8c-.2 1.4-.6 2.6-2.4 3.3-.1-.1-.2-.3-.3-.5 1.6-.6 2-1.6 2.2-2.8h-1.4v-.5h4.2zm-.9-2.5c.4 1.1 1.1 2.1 2 2.6-.1.1-.3.3-.4.5-.9-.6-1.6-1.5-2-2.6h-1.2v-.5h1.6zm3.4 1.2c-.2.3-.4.6-.6.8 0-.1-.2-.4-.3-.5.4-.4.8-1 1-1.7l.5.1c-.1.2-.2.5-.3.7h1.4v.5l-1.7.1zm.8 2.1h1v.5h-1v1.5l.8-.4c0 .1.1.3.1.4-1.2.6-1.4.8-1.5.9 0-.1-.1-.3-.2-.4.1-.1.3-.3.3-.6v-1.4h-1v-.5h1v-.9h-.7v-.5h2v.5h-.8v.9zm1.8-1.7c-.1-.3-.4-.9-.7-1.3l.4-.2c.3.4.6.9.7 1.2l-.4.3zm2.7.3v3.8c0 .3-.1.4-.2.5-.2.1-.5.1-1 .1 0-.1-.1-.3-.2-.5h.8c.1 0 .1 0 .1-.1v-.9H356v1.5h-.5V247h1.4v-2h.5v2h1.4zm-2.8.5v.7h2.3v-.7H356zm2.3 1.9v-.8H356v.8h2.3zm.7-4c-.2.4-.5 1-.8 1.3l-.4-.2c.2-.3.6-.9.7-1.3l.5.2zm6.9 5.1v.5h-6.1v-.5h1.9v-5.4h.5v5.4h1.2v-5.4h.5v5.4h2zm-5.1-1.3c-.2-.6-.6-1.7-1-2.4l.5-.1c.4.8.8 1.8 1 2.4l-.5.1zm4.9-2.3c-.3.8-.8 1.8-1.2 2.4l-.4-.2c.4-.6.9-1.6 1.2-2.4l.4.2zm6.6-1c-.4.6-1.1 1.1-1.8 1.5.7.2 1.6.4 2.5.4-.1.1-.2.3-.3.5-1.1-.1-2-.3-2.9-.6-.9.4-2 .6-3 .7 0-.1-.1-.3-.2-.4.9-.1 1.8-.2 2.6-.5-.4-.2-.8-.5-1-.8-.3.2-.6.4-1 .6-.1-.1-.2-.3-.3-.4 1-.5 1.7-1.2 2-1.8l.5.1c-.1.2-.3.4-.5.6h2.9l.5.1zm0 3v.2c-.1 1.3-.3 1.8-.5 2-.1.1-.3.2-.6.2h-1c0-.1-.1-.3-.2-.5.4 0 .9.1 1.1.1.1 0 .2 0 .3-.1.2-.1.3-.6.4-1.5h-2.1c-.4 1.1-1.3 1.7-2.7 2-.1-.1-.2-.3-.3-.4 1.2-.2 2-.7 2.4-1.6h-1.9v-.4h2.1c.1-.2.1-.4.1-.7h.5c0 .2-.1.4-.1.6l2.5.1zm-3.8-2.6c.3.4.8.7 1.3.9.7-.3 1.2-.6 1.6-1h-2.8l-.1.1z"/></g><g><path class="st6" d="M471.7 140.9v-1.2l4.5-4.4c.7-.7 1.2-1.2 1.5-1.6.3-.4.5-.7.7-1.1s.2-.7.2-1.1c0-.4-.1-.9-.4-1.3s-.6-.8-1-1-.9-.4-1.4-.4c-.4 0-.7.1-1 .2s-.6.3-.8.5-.4.4-.5.7-.3.5-.3.8c-.1.3-.1.7-.1 1.1h-1.3c0-.6.1-1.1.2-1.5.1-.6.4-1.1.8-1.5s.8-.8 1.4-1c.6-.3 1.2-.4 1.8-.4 1.3 0 2.3.5 3.1 1.4.6.8.9 1.6.9 2.5 0 .4 0 .7-.1 1s-.2.6-.4.9c-.1.2-.3.4-.5.7-.5.6-.9 1.1-1.4 1.5l-4.2 4h6.5v1.2h-8.2zm10.8-5v-3.6c0-1.4.4-2.6 1.2-3.4.8-.8 1.9-1.3 3.2-1.3.6 0 1.2.1 1.7.3.5.2.9.5 1.3.7.3.3.6.6.8 1 .2.3.3.8.4 1.3.1.4.1.9.1 1.7v3.5c0 1.8-.5 3.1-1.4 3.9-.8.7-1.8 1-2.9 1-.6 0-1.2-.1-1.7-.3s-1-.4-1.3-.7-.6-.6-.8-1c-.2-.4-.3-.9-.4-1.5-.2-.3-.2-.8-.2-1.6zm1.3 0c0 .8 0 1.3.1 1.7.1.5.3.9.5 1.2s.6.6 1 .8 1 .3 1.5.3c1 0 1.8-.4 2.4-1.2.4-.6.6-1.5.6-2.8v-3.3c0-.6 0-1.2-.1-1.6-.1-.4-.2-.8-.5-1.1s-.6-.6-1-.8-.9-.3-1.5-.3-1.2.1-1.7.4c-.5.3-.9.7-1.1 1.2s-.3 1.2-.3 2.1l.1 3.4zm9.7 0v-3.6c0-1.4.4-2.6 1.2-3.4.8-.8 1.9-1.3 3.2-1.3.6 0 1.2.1 1.7.3.5.2.9.5 1.3.7.3.3.6.6.8 1 .2.3.3.8.4 1.3.1.4.1.9.1 1.7v3.5c0 1.8-.5 3.1-1.4 3.9-.8.7-1.8 1-2.9 1-.6 0-1.2-.1-1.7-.3s-1-.4-1.3-.7-.6-.6-.8-1c-.2-.4-.3-.9-.4-1.5-.1-.3-.2-.8-.2-1.6zm1.3 0c0 .8 0 1.3.1 1.7.1.5.3.9.5 1.2s.6.6 1 .8 1 .3 1.5.3c1 0 1.8-.4 2.4-1.2.4-.6.6-1.5.6-2.8v-3.3c0-.6 0-1.2-.1-1.6-.1-.4-.2-.8-.5-1.1s-.6-.6-1-.8-.9-.3-1.5-.3-1.2.1-1.7.4c-.5.3-.9.7-1.1 1.2s-.3 1.2-.3 2.1l.1 3.4zm10 5v-1.2l4.5-4.4c.7-.7 1.2-1.2 1.5-1.6.3-.4.5-.7.7-1.1s.2-.7.2-1.1c0-.4-.1-.9-.4-1.3s-.6-.8-1-1-.9-.4-1.4-.4c-.4 0-.7.1-1 .2s-.6.3-.8.5-.4.4-.5.7-.3.5-.3.8c-.1.3-.1.7-.1 1.1h-1.3c0-.6.1-1.1.2-1.5.1-.6.4-1.1.8-1.5s.8-.8 1.4-1c.6-.3 1.2-.4 1.8-.4 1.3 0 2.3.5 3.1 1.4.6.8.9 1.6.9 2.5 0 .4 0 .7-.1 1s-.2.6-.4.9c-.1.2-.3.4-.5.7-.5.6-.9 1.1-1.4 1.5l-4.2 4h6.5v1.2h-8.2z"/><path class="st7" d="M472.7 149.9v1.9c0 .3-.1.4-.2.5-.2.1-.4.1-.9.1 0-.1-.1-.4-.1-.5h.7c.1 0 .1 0 .1-.1V150c-.3.1-.5.2-.8.2l-.1-.5.9-.3V148h-.8v-.5h.8v-1.4h.5v1.4h.8v.5h-.8v1.4l.7-.2.1.5-.9.2zm4.9-2.2h-3.2v1.2c0 1.1-.1 2.6-.9 3.6-.1-.1-.3-.2-.4-.3.8-1 .9-2.3.9-3.3v-1.7h1.7c-.1-.2-.3-.6-.4-.9l.5-.1c.2.3.4.7.5.9l-.2.1h1.6l-.1.5zm2.7.9c-.1 1-.3 1.8-.6 2.4.7.7 1.6.8 2.8.8h2.1c-.1.1-.2.3-.2.5h-2c-1.3 0-2.3-.2-3-.9-.2.4-.5.8-.9 1l-.4-.4c.4-.2.7-.6.9-1.1-.3-.4-.5-.8-.6-1.3l.4-.1c.1.4.3.8.5 1 .2-.5.3-1 .4-1.6h-1.1c.3-.5.7-1.3 1-1.9h-1.2v-.5h2c-.3.6-.7 1.4-1 1.9h.6l.3.2zm1.8-1.4h-1.3v-.4h1.3v-.6h.5v.6h1.5v.9h.5v.4h-.5v.9h-1.5v.5h1.6v.4h-1.6v.6h1.9v.4h-1.9v.7h-.5v-.6h-1.7v-.4h1.7v-.6h-1.4v-.4h1.4v-.6h-1.4v-.4h1.4v-.5h-1.8v-.4h1.8v-.5zm.5 0v.5h1v-.5h-1zm1 .9h-1v.5h1v-.5zm8 3.6v.5h-6.2v-.5h2.6v-5.4h.5v2.1h2.6v.5h-2.6v2.8h3.1zm1.8-2.4c-.2-.2-.7-.5-1.1-.7l.3-.4c.4.2.9.5 1.1.7l-.3.4zm-1 2.8c.3-.5.7-1.5 1-2.3l.4.3c-.3.7-.6 1.6-.9 2.3l-.5-.3zm.5-5.9c.4.2.9.5 1.2.7l-.3.4c-.2-.2-.8-.6-1.2-.7l.3-.4zm2.1 1.2c-.2.4-.5.9-.8 1.2-.1-.1-.3-.2-.5-.3.5-.5.9-1.3 1.2-2.1l.5.1c-.1.2-.2.4-.3.7h3.2v.5l-3.3-.1zm3.1 2.6c0 .4-.1.8-.1 1.1h.5v.5h-.5c-.1.4-.1.6-.2.7-.1.2-.3.2-.5.2h-.9c0-.1-.1-.3-.1-.4h.8c.1 0 .2 0 .3-.1.1-.1.1-.2.2-.4h-3.1c.1-.4.2-1 .2-1.5h-.6v-.5h.7c.1-.5.1-1 .2-1.4h3.3v.2c0 .4 0 .8-.1 1.2h.5v.5l-.6-.1zm-.6 1.1c0-.3.1-.6.1-1.1h-2.5c0 .4-.1.8-.1 1.1h2.5zm-2.3-2.6c0 .3-.1.6-.1 1h1.5c-.1-.2-.5-.6-.8-.8l.3-.2c.3.2.6.6.8.8l-.3.2h1v-1h-2.4zm.7 1.5c.3.2.7.6.9.8l-.3.2c-.2-.2-.5-.6-.8-.9l.2-.1zm9.6 1.5v.5h-6.2v-.5h2.8v-4h-2.5v-.5h5.5v.5h-2.5v4h2.9zm6.9-4.3h-4.9v1.5c0 1.1-.1 2.7-.8 3.8-.1-.1-.3-.2-.5-.3.7-1 .7-2.4.7-3.5v-2.1h5.5v.6zm3.2 3.1c.5-.2.8-.6.9-1h-.1c-.3 0-.5-.2-.5-.5s.2-.5.5-.5c.4 0 .6.3.6.8 0 .8-.5 1.3-1.2 1.6l-.2-.4zm-38.2 10.9h-5v.5c0 .8-.1 2-.7 2.9l-.4-.4c.5-.8.6-1.8.6-2.5v-.9h3.3c.2-.3.4-.8.6-1.2l.6.2c-.2.3-.4.7-.6 1h1.7l-.1.4zm-.1-1.8h-5.5v-.5h2.6c-.1-.2-.3-.5-.4-.7l.5-.1c.2.3.4.6.5.8h2.3v.5zm-3.9 1.3c-.1-.3-.4-.7-.6-1l.5-.2c.2.3.5.7.6 1l-.5.2zm7.8 3.2c0 .3-.1.4-.2.5-.2.1-.5.1-.9.1 0-.1-.1-.3-.2-.4h.7c.1 0 .1 0 .1-.1v-1.1c-.5.3-.9.5-1.3.8l-.2-.4c-.1.5-.2.9-.5 1.3-.1-.1-.2-.3-.4-.4.4-.5.4-1.3.4-1.9v-1.7h2.4l.1 3.3zm-.5-5.3c.3.5.7 1.1.9 1.5l-.5.2c-.1-.1-.1-.3-.2-.5-1.9.1-2.1.2-2.3.3 0-.1-.1-.4-.2-.5.1 0 .2-.1.4-.3.1-.1.6-.7.9-1.3l.5.2c-.3.4-.6.9-1 1.3l1.4-.1c-.1-.2-.3-.5-.4-.7l.5-.1zm-1.5 3.7c0 .3 0 .6-.1.9.4-.2.9-.4 1.5-.7V161h-1.5l.1 1.3zm.4-.9c.4.2.9.5 1.1.7l-.3.3c-.2-.2-.7-.5-1.1-.8l.3-.2zm3-.3c-.6 0-.8-.2-.8-.8v-2.2h.5v1h1.9v.5h-1.9v.8c0 .2.1.3.3.3h1.9c0 .1 0 .3.1.4h-2zm1.3 2.9c.3 0 .3-.1.4-.9.1.1.3.2.5.2-.1.9-.2 1.1-.8 1.1h-1.2c-.7 0-.9-.2-.9-.7v-2.4h.5v.8h2v.5h-2v1.1c0 .2.1.3.4.3h1.1zm2.8-3.4c-.3.4-.7.9-1.1 1.1h2.6v2.7h-.4v-.3H486v.4h-.4v-2.7l-.1.1c0-.1-.1-.3-.2-.4.4-.3 1-.8 1.3-1.2h-1.2v-.4h1.4v-1c-.4 0-.8.1-1.2.1 0-.1-.1-.3-.1-.4.9-.1 2-.2 2.7-.3l.3.4c-.3.1-.7.1-1.1.2v1.1h.2c.1-.3.3-.7.4-.9l.4.1c-.1.3-.3.6-.4.8h.5v.4h-1.1c.3.2 1 .7 1.2.9l-.3.4c-.2-.2-.7-.6-1-.9v1h-.5l-.1-1.2zm-.7-1.7c.1.2.2.6.3.7l-.4.1c-.1-.2-.2-.5-.3-.8h.4zm0 3.2v.6h.8v-.6h-.8zm.7 1.6v-.6h-.7v.6h.7zm1.1-1.6h-.7v.6h.7v-.6zm0 1.6v-.6h-.7v.6h.7zm2.1.2c0 .3 0 .4-.2.5-.1.1-.4.1-.8.1 0-.1-.1-.3-.1-.4h.6c.1 0 .1 0 .1-.1v-2c-.3.3-.6.6-.8.9l-.2-.4 1.1-1.1v-2.5h-.9v-.4h1.4l-.2 5.4zm-1.1-4.3c.2.4.4 1 .5 1.4l-.4.1c-.1-.4-.3-1-.5-1.4l.4-.1zm2.6 4.3c0 .3 0 .4-.2.5s-.4.1-.8.1c0-.1-.1-.3-.1-.5h.6c.1 0 .1 0 .1-.1V162c-.3.3-.5.6-.8.8l-.2-.4c.2-.2.6-.6 1-1.1v-2.5h-1v-.4h1.4v5.5zm-1-4.3c.2.4.4 1 .5 1.3l-.4.1c-.1-.4-.3-.9-.5-1.4h.4zm3.9-1.3c-.2.5-.4 1.1-.7 1.5v4.7h-.5v-3.9c-.2.3-.4.6-.6.8-.1-.1-.2-.4-.3-.5.6-.7 1.3-1.7 1.6-2.8l.5.2zm4.3 2.6v.5h-4.5v-.5h2.7c.2-.4.4-1 .6-1.4l.5.1c-.2.4-.4.9-.6 1.3h1.3zm-.2-1.5h-4v-.5h1.8c0-.2-.1-.5-.2-.8l.5-.1c.1.3.2.6.2.8h1.7v.6zm-3.7 2.5h3.3v2.5h-.5v-.3h-2.3v.3h-.5v-2.5zm.6-1.1c-.1-.3-.2-.8-.4-1.2l.4-.1c.2.4.4.9.5 1.2l-.5.1zm-.1 1.6v1.3h2.3v-1.3h-2.3z"/></g><g><path class="st6" d="M471.7 191.8v-1.2l4.5-4.4c.7-.7 1.2-1.2 1.5-1.6.3-.4.5-.7.7-1.1s.2-.7.2-1.1c0-.4-.1-.9-.4-1.3s-.6-.8-1-1-.9-.4-1.4-.4c-.4 0-.7.1-1 .2s-.6.3-.8.5-.4.4-.5.7-.3.5-.3.8c-.1.3-.1.7-.1 1.1h-1.3c0-.6.1-1.1.2-1.5.1-.6.4-1.1.8-1.5s.8-.8 1.4-1c.6-.3 1.2-.4 1.8-.4 1.3 0 2.3.5 3.1 1.4.6.8.9 1.6.9 2.5 0 .4 0 .7-.1 1s-.2.6-.4.9c-.1.2-.3.4-.5.7-.5.6-.9 1.1-1.4 1.5l-4.2 4h6.5v1.2h-8.2zm10.8-5v-3.6c0-1.4.4-2.6 1.2-3.4.8-.8 1.9-1.3 3.2-1.3.6 0 1.2.1 1.7.3s.9.4 1.3.7c.3.3.6.6.8 1 .2.3.3.8.4 1.3.1.4.1.9.1 1.7v3.5c0 1.8-.5 3.1-1.4 3.9-.8.7-1.8 1-2.9 1-.6 0-1.2-.1-1.7-.3s-1-.4-1.3-.7-.6-.6-.8-1c-.2-.4-.3-.9-.4-1.5-.2-.3-.2-.8-.2-1.6zm1.3 0c0 .8 0 1.3.1 1.7.1.5.3.9.5 1.2s.6.6 1 .8 1 .3 1.5.3c1 0 1.8-.4 2.4-1.2.4-.6.6-1.5.6-2.8v-3.3c0-.6 0-1.2-.1-1.6-.1-.4-.2-.8-.5-1.1s-.6-.6-1-.8-.9-.3-1.5-.3-1.2.1-1.7.4c-.5.3-.9.7-1.1 1.2s-.3 1.2-.3 2.1l.1 3.4zm9.7 0v-3.6c0-1.4.4-2.6 1.2-3.4.8-.8 1.9-1.3 3.2-1.3.6 0 1.2.1 1.7.3s.9.4 1.3.7c.3.3.6.6.8 1 .2.3.3.8.4 1.3.1.4.1.9.1 1.7v3.5c0 1.8-.5 3.1-1.4 3.9-.8.7-1.8 1-2.9 1-.6 0-1.2-.1-1.7-.3s-1-.4-1.3-.7-.6-.6-.8-1c-.2-.4-.3-.9-.4-1.5-.1-.3-.2-.8-.2-1.6zm1.3 0c0 .8 0 1.3.1 1.7.1.5.3.9.5 1.2s.6.6 1 .8 1 .3 1.5.3c1 0 1.8-.4 2.4-1.2.4-.6.6-1.5.6-2.8v-3.3c0-.6 0-1.2-.1-1.6-.1-.4-.2-.8-.5-1.1s-.6-.6-1-.8-.9-.3-1.5-.3-1.2.1-1.7.4c-.5.3-.9.7-1.1 1.2s-.3 1.2-.3 2.1l.1 3.4zm14.5-8h1.5l-3 4.4c.4-.2.8-.3 1.3-.3.7 0 1.5.2 2.1.6s1.2.9 1.6 1.6c.4.7.6 1.5.6 2.3s-.2 1.6-.6 2.3c-.4.7-.9 1.3-1.6 1.7s-1.4.6-2.3.6c-.8 0-1.6-.2-2.3-.6s-1.2-.9-1.6-1.7-.6-1.5-.6-2.3c0-.6.1-1.1.3-1.6s.6-1.3 1.3-2.2l3.3-4.8zm-3.5 8.7c0 .5.1 1.1.4 1.6s.6.9 1.1 1.3 1 .5 1.6.5 1.1-.1 1.6-.4c.5-.3.9-.7 1.1-1.2s.4-1.1.4-1.7-.1-1.2-.4-1.7-.7-.9-1.2-1.2-1-.4-1.5-.4-.9.1-1.3.3-.7.4-1 .7-.5.6-.6 1.1c-.1.2-.2.6-.2 1.1z"/><path class="st7" d="M472.8 199.9l-.8.2v2.3h-.5v-2.2c-.4.1-.7.2-1 .3l-.1-.5c.3-.1.7-.2 1.2-.3V198h-.6c-.1.4-.2.8-.3 1.1-.1-.1-.3-.1-.4-.2.3-.6.4-1.5.5-2.4l.4.1c0 .3-.1.6-.1.9h.5V196h.5v1.4h.7v.5h-.8v1.6l.7-.2.1.6zm3.8.1h-.8v1.8c0 .3-.1.4-.3.5-.2.1-.5.1-1 .1 0-.1-.1-.4-.2-.5h.9c.1 0 .1 0 .1-.1V200h-2.4v-.5h2.4v-.7h.5v.7h.8v.5zm-2.1-2.7H473v-.5h1.5v-.8h.5v.8h1.5v.5H475v.9h1.3v.5h-3v-.5h1.2v-.9zm-.8 2.9c.3.3.7.8.9 1.1l-.4.3c-.2-.3-.5-.8-.9-1.1l.4-.3zm9.7-2.9v1.5h-.5v-1.1h-2.2v1.6h-.5v-1.6H478v1.1h-.5v-1.5h2.7v-.5h-2.4v-.4h5.3v.4h-2.4v.5h2.7zm-5.3 2.3h4.7v2.8h-.5v-.2h-3.7v.3h-.5v-2.9zm0-.7c.4-.1 1-.1 1.7-.2v.3c-.5.1-1.1.2-1.5.3l-.2-.4zm.4-1c.5.1 1 .2 1.3.4l-.1.3c-.3-.1-.9-.3-1.3-.4l.1-.3zm.1 2.1v.6h1.6v-.6h-1.6zm1.6 1.7v-.7h-1.6v.7h1.6zm2.1-1.7h-1.6v.6h1.6v-.6zm0 1.7v-.7h-1.6v.7h1.6zm.3-2.3c-.4-.1-1.1-.3-1.6-.4l.1-.3c.5.1 1.2.2 1.6.3l-.1.4zm0-1.3c-.4.2-1 .3-1.4.4l-.2-.3c.4-.1 1-.3 1.3-.4l.3.3zm3.4 1.3c-.1.6-.3 1.3-.6 1.8.1.1.3.2.6.4.5.3 1.1.4 2 .4s2-.1 2.8-.1c-.1.1-.1.4-.1.5-.5 0-1.8.1-2.7.1-.9 0-1.5-.1-2-.4-.3-.2-.5-.4-.7-.4s-.4.4-.6.9l-.4-.5c.2-.4.5-.6.7-.8.2-.4.4-.9.5-1.4h-.9c.2-.4.4-1 .6-1.6h-.8v-.5h1.4c-.2.5-.4 1.1-.6 1.6h.8zm-1-2c-.1-.3-.2-.8-.4-1.1l.5-.1c.1.4.3.8.4 1.1l-.5.1zm2 4h-.5v-3.6h2c-.4-.2-.9-.4-1.3-.6l.3-.3c.3.1.6.2 1 .4.3-.1.7-.4 1-.6h-2.9v-.4h3.5l.3.2c-.4.4-.9.7-1.4 1 .2.1.4.2.5.3h.9v3.1c0 .3-.1.4-.2.4-.2.1-.5.1-.9.1 0-.1-.1-.3-.1-.4h.7c.1 0 .1 0 .1-.1v-.6h-1.2v1.1h-.5v-1.1H487v1.1zm0-3.2v.6h1.2v-.6H487zm1.1 1.6v-.6H487v.6h1.1zm1.7-1.6h-1.2v.6h1.2v-.6zm0 1.6v-.6h-1.2v.6h1.2zm4.5 1v.2c-.1.8-.1 1.1-.3 1.2-.1.1-.2.1-.4.1h-.7c0-.1-.1-.3-.1-.4h.6c.1 0 .2 0 .2-.1.1-.1.1-.3.2-.7h-.9c-.2.6-.6 1-1.4 1.2 0-.1-.2-.3-.2-.4.6-.2 1-.5 1.2-.9h-.9v-.4h1c0-.1.1-.3.1-.5h.5c0 .2 0 .3-.1.5l1.2.2zm3.2-4.3v.4h-2.8v.4h2.3v.4h-5.1v-.4h2.3v-.4h-2.8v-.4h2.8v-.5h.5v.5h2.8zm-1.6 3c-.1.1-.2.3-.3.4h1.8v.4h-6v-.4h1.8c-.1-.1-.2-.3-.3-.4l.3-.1h-1.1v-1.3h4.6v1.3h-1.2l.4.1zm-3.3-.5h3.6v-.6h-3.6v.6zm.8.4c.1.1.2.3.3.5l-.2.1h1.6c.1-.2.2-.4.3-.5l-2-.1zm1.3 1.3h2.4v1.7h-.5v-.2h-1.4v.2h-.5v-1.7zm.5.4v.8h1.4v-.8h-1.4zm9.3-1.4v.4h-6.2v-.4h1.4c-.1-.2-.2-.4-.4-.6l.5-.1c.2.2.3.5.4.6l-.3.1h2.6c.1-.2.3-.5.4-.7l.5.1c-.1.2-.2.4-.4.6h1.5zm-.2-.7h-5.8v-.4h2.6v-.5h-2v-.4h2v-.5h-2.4v-.4h1.4c-.1-.2-.2-.4-.4-.6l.5-.2c.2.2.4.4.4.6l-.4.1h2c.1-.2.3-.5.4-.8l.5.1c-.1.2-.3.5-.4.7h1.4v.4h-2.5v.5h2v.4h-2v.5h2.7v.5zm-5 1.5h4.3v1.9h-.5v-.2h-3.3v.2h-.5v-1.9zm.5.4v.8h3.3v-.8h-3.3zm11.6-3.8h-4.9v1.5c0 1.1-.1 2.7-.8 3.8-.1-.1-.3-.2-.5-.3.7-1 .7-2.4.7-3.5v-2.1h5.5v.6zm6.7 1.3c-.3.9-.7 1.7-1.2 2.4.3.7.6 1.1.9 1.1.2 0 .3-.4.3-1.3.1.1.3.2.5.3-.1 1.2-.3 1.5-.8 1.5s-1-.4-1.3-1.1c-.4.4-.9.9-1.4 1.2l-.4-.4c.6-.3 1.2-.8 1.6-1.3-.2-.8-.4-1.8-.5-2.9h-2.4v.9h1.8v.2c0 1.6-.1 2.1-.2 2.3-.1.1-.2.2-.4.2h-.8c0-.2-.1-.4-.2-.5h.7c.1 0 .2 0 .2-.1.1-.1.1-.5.2-1.8h-1.3v.1c0 1-.1 2.4-.7 3.3l-.4-.4c.6-.9.6-2.1.6-2.9v-1.9h2.9v-1.2h.5v1.2h2.3v.5h-2.2c.1.9.2 1.8.4 2.4.4-.6.7-1.2.9-1.9l.4.1zm-1.2-2.3c.4.2 1 .6 1.2.8l-.3.4c-.3-.2-.8-.6-1.2-.8l.3-.4zm8.5 5.5v.5h-6.2v-.5h3.4c.4-.9.8-2.3 1-3.4l.6.1c-.3 1-.7 2.4-1.1 3.2l2.3.1zm-.2-3.7h-5.6v-.5h5.6v.5zm-4 3.4c-.1-.8-.4-2-.7-2.9l.5-.1c.3.9.6 2.1.7 2.9l-.5.1zm1-4c-.1-.3-.2-.8-.3-1.1l.5-.1c.1.4.3.8.4 1.1l-.6.1z"/></g><g><path class="st6" d="M776.6 89.4v-1.2l4.5-4.4c.7-.7 1.2-1.2 1.5-1.6s.5-.7.7-1.1.2-.7.2-1.1-.1-.9-.4-1.3c-.2-.4-.6-.8-1-1s-.9-.4-1.4-.4c-.4 0-.7.1-1 .2s-.6.3-.8.5-.4.4-.5.7c-.2.3-.3.5-.3.8-.1.3-.1.7-.1 1.1h-1.3c0-.6.1-1.1.2-1.5.2-.6.4-1.1.8-1.5.4-.4.8-.8 1.4-1 .6-.3 1.2-.4 1.8-.4 1.3 0 2.3.5 3.1 1.4.6.8.9 1.6.9 2.5 0 .4 0 .7-.1 1s-.2.6-.4.8c-.1.2-.3.4-.5.7-.5.6-.9 1.1-1.4 1.5l-4.2 4h6.5v1.2l-8.2.1zm10.8-5v-3.6c0-1.4.4-2.6 1.2-3.4s1.9-1.3 3.2-1.3c.6 0 1.2.1 1.7.3.5.2.9.4 1.3.7.3.3.6.6.8 1s.3.8.4 1.3c.1.4.1.9.1 1.7v3.5c0 1.8-.5 3.1-1.4 3.9-.8.7-1.8 1-2.9 1-.6 0-1.2-.1-1.7-.3-.5-.2-1-.4-1.3-.7s-.6-.6-.8-1-.3-.9-.4-1.5c-.1-.2-.2-.8-.2-1.6zm1.3.1c0 .8 0 1.3.1 1.7.1.5.3.9.5 1.2.2.3.6.6 1 .8.4.2 1 .3 1.5.3 1 0 1.8-.4 2.4-1.2.4-.6.6-1.5.6-2.8v-3.3c0-.7 0-1.2-.1-1.6s-.2-.8-.5-1.1c-.2-.3-.6-.6-1-.8s-.9-.3-1.5-.3-1.2.2-1.7.4-.8.7-1.1 1.2c-.2.5-.3 1.2-.3 2.1l.1 3.4zm13.8 4.9V77.6h-2.2v-1.2h3.5v13h-1.3zm11 0H812l3-4.4c-.4.2-.8.3-1.2.3-.6 0-1.2-.1-1.7-.3-.5-.2-1-.5-1.3-.9-.4-.4-.7-.8-.9-1.2-.3-.6-.5-1.3-.5-2 0-.8.2-1.6.6-2.3s.9-1.3 1.6-1.7 1.4-.6 2.3-.6c.8 0 1.6.2 2.3.6s1.2 1 1.6 1.7.5 1.5.5 2.2c0 .6-.1 1.1-.3 1.6s-.6 1.3-1.3 2.2l-3.2 4.8zm3.5-8.7c0-.5-.1-1.1-.4-1.6s-.6-.9-1.1-1.3c-.5-.3-1-.5-1.6-.5s-1.1.1-1.6.4-.9.7-1.1 1.2-.4 1.1-.4 1.7.1 1.2.4 1.7c.3.5.7.9 1.2 1.2.5.3 1 .4 1.5.4s.9-.1 1.3-.3.7-.4 1-.7c.3-.3.5-.7.7-1.1 0-.2.1-.6.1-1.1z"/><path class="st7" d="M780.3 94.7v1h1.8v4.4h-.5v-.4h-4.4v.4h-.5v-4.4h1.7v-1h-2v-.5h6.1v.5h-2.2zm1.2 4.4v-1.2h-1c-.6 0-.7-.2-.7-.7v-1.1h-1c0 .7-.3 1.5-1.3 2.1-.1-.1-.2-.3-.3-.4v1.3h4.3zm-4.4-3v1.7c.9-.5 1.1-1.1 1.2-1.7h-1.2zm2.7-1.4h-1v1h1v-1zm.5 1.4v1.1c0 .2 0 .2.3.2h.9v-1.3h-1.2zm4.5-1.5h-1.5v-.4h1.5v-.4h.5v.4h.9v.4h-.9v.4h-.5v-.4zm3.6 3c-.3.2-.6.4-1 .5.4.6 1.1 1.2 1.8 1.4l-.4.4c-.7-.3-1.4-1-1.8-1.7l-.2.1c.2.6.2 1.2-.2 1.5-.2.2-.4.2-.6.2h-.5c0-.1-.1-.3-.1-.5h.5c.1 0 .3 0 .4-.1.2-.1.3-.5.2-.9-.8.5-1.9 1.1-2.9 1.4-.1-.1-.2-.3-.3-.4 1-.2 2.3-.8 3-1.4-.1-.1-.1-.2-.2-.3-.7.4-1.7.9-2.4 1.1-.1-.1-.2-.3-.3-.4.8-.2 1.8-.6 2.5-1l-.3-.3c-.6.3-1.3.6-2 .8-.1-.1-.2-.3-.3-.4.8-.2 1.6-.4 2.2-.8h-1.7v-.4h5.1v.6h-2.6c-.1.1-.2.1-.3.2.3.2.6.5.8.8.5-.2 1.1-.5 1.4-.8l.2.4zm.2-1.4v-.7h-4.7v.7h-.5v-1.1h5.7v1.1h-.5zm-4.2 0v-.4h3.8v.4h-3.8zm4.9-2.1v.4h-1.6v.4h-.5v-.4h-.8v-.4h.8v-.4h.5v.4h1.6zm3.7 1c-.7.6-1.7 1.1-2.6 1.4-.1-.1-.2-.3-.3-.4.9-.2 1.9-.7 2.6-1.2h-2.4v-.4h2.7v-.7h.5v.7h2.8v.4h-2.8c1 .3 2.2.9 2.9 1.2l-.3.4c-.6-.3-1.7-.8-2.6-1.2v1.2h-.5v-1.4zm.5 2.9h2.9v.5h-2.9v1c0 .3-.1.4-.3.5s-.6.1-1.2.1c0-.1-.2-.3-.2-.5h1c.1 0 .2 0 .2-.1v-1h-2.8V98h2.8v-.4c.4-.1.8-.3 1.1-.5h-2.7v-.5h3.5l.3.3c-.5.3-1.1.7-1.7.9v.2zm9.6-4v6.1h-.5v-.3h-4.7v.3h-.5V94h5.7zm-.5 5.2v-4.8h-4.7v4.8h4.7zm-.4-1v.4h-3.8v-.4h1.6V97h-1.3v-.4h1.3v-1h-1.5v-.5h3.6v.5h-1.6v1h1.4v.4h-1.4v1.2h1.7zm-1-1.1c.3.2.6.5.7.8l-.4.2c-.1-.2-.4-.6-.7-.8l.4-.2zm8.8 2.3c0 .3-.1.5-.3.6s-.7.1-1.3.1c0-.1-.1-.4-.2-.5h1.1c.1 0 .2-.1.2-.2v-4h-2c0 .3 0 .6-.1.9.7.6 1.5 1.4 2 1.9l-.4.3c-.4-.5-1.1-1.2-1.7-1.8-.3.7-.8 1.3-1.7 1.9-.1-.1-.2-.3-.4-.4 1.5-.8 1.8-2 1.8-2.9h-2v4.7h-.5v-5.2h2.5v-1.2h.5v1.2h2.5v4.6zm4.5-4.3c-.1.2-.2.4-.2.6h2.2v4.3h-.5v-.4h-3.6v.4h-.5v-4.3h1.8c.1-.2.1-.4.2-.6h-2.8v-.5h1.8c-.1-.2-.4-.6-.6-.8l.5-.2c.2.2.5.6.7.8l-.3.2h1.8c.2-.3.5-.7.6-1l.6.2c-.2.3-.4.6-.6.8h1.8v.5h-2.9zm1.5 1.1h-3.6v.7h3.6v-.7zm0 1.1h-3.6v.7h3.6v-.7zm0 1.9v-.7h-3.6v.7h3.6zm7.6-2.7c-.3.3-.7.5-1.1.8.3.9 1 1.7 1.9 2.1-.1.1-.3.3-.3.4-.9-.4-1.5-1.2-1.9-2.2-.1.1-.2.1-.3.2.2.9.1 1.8-.3 2.1-.2.2-.4.2-.7.2h-.6c0-.2-.1-.3-.1-.5h.6c.2 0 .3 0 .5-.2s.3-.6.3-1.2c-.8.6-2 1.2-3 1.5-.1-.1-.2-.3-.3-.4 1.1-.3 2.5-.9 3.2-1.5 0-.2-.1-.3-.2-.5-.7.5-1.8 1-2.6 1.2-.1-.1-.2-.3-.3-.4.9-.2 2-.7 2.7-1.2-.1-.2-.2-.3-.3-.4-.6.3-1.3.6-2 .8 0-.1-.2-.3-.3-.4.9-.2 1.8-.6 2.5-1h-1.6v-.4h4v.4h-1.7c-.2.1-.3.2-.5.4.3.3.6.7.7 1.1.5-.3 1.1-.8 1.5-1.2l.2.3zm-4.8-.8h-.5v-1.4h2.6c-.1-.2-.2-.4-.3-.5l.5-.2c.1.2.3.5.3.7h2.6v1.4h-.5v-.9h-4.8l.1.9zm8.6 1.6v.4c-1.7.4-2 .4-2.1.5 0-.1-.1-.3-.2-.5.2 0 .3-.2.5-.4.1-.1.4-.5.7-.9-.8.1-1 .2-1.1.2 0-.1-.1-.4-.2-.5.1 0 .2-.2.4-.4s.7-1.1.9-1.9l.5.2c-.3.7-.7 1.5-1.1 2.1l.9-.1c.2-.3.3-.5.4-.8l.4.3c-.5.8-1 1.5-1.5 2.2l1.5-.4zm.1 1.7l-2.3.7-.1-.5c.6-.1 1.5-.4 2.3-.6l.1.4zm3.8-1.7c-.3.5-.8 1-1.4 1.4.2.5.5.8.8.8.2 0 .3-.2.3-.8.1.1.3.2.4.3-.1.8-.2 1-.7 1s-.9-.4-1.2-1c-.5.4-1.2.7-1.8.9-.1-.1-.2-.3-.3-.4.7-.2 1.4-.5 2-.9-.2-.4-.2-1-.3-1.5l-1.3.3-.1-.5 1.4-.2c0-.3-.1-.6-.1-.9l-1 .2-.1-.5 1.1-.2v-1.5h.5v1.4l1.7-.2.1.4-1.7.3c0 .3.1.6.1.9l1.7-.3.1.4-1.8.3c.1.5.2.9.3 1.3.4-.4.8-.8 1.1-1.2l.2.2zm-.7-2.6c-.2-.2-.7-.5-1-.6l.3-.3c.3.2.8.4 1 .6l-.3.3zm4.7 0v1.2l.1-.1c.8.4 1.9 1 2.5 1.4l-.4.5c-.5-.4-1.4-1-2.2-1.4v3.7h-.5v-5.3h-2.7v-.5h6.2v.5h-3zm4 .4h.5v5h-.5v-5zm.6-1.4c.4.4.8.9 1 1.3l-.4.3c-.2-.3-.6-.9-1-1.3l.4-.3zm5.1 5.7c0 .3-.1.5-.3.6s-.7.1-1.3.1c0-.1-.1-.4-.2-.5h1.2c.1 0 .2-.1.2-.2v-4.9h-3.3V94h3.8v5.4h-.1zm7.2-4.9v.5H847v1.3c0 1.1-.1 2.7-.7 3.7-.1-.1-.3-.2-.5-.3.6-1 .7-2.4.7-3.4v-1.8h2.7c-.1-.2-.2-.5-.4-.7l.5-.1c.2.2.3.6.5.8h2.4zm-2.5 1.6h2.3v.5h-2.3v.9h1.9v2.5h-.5v-.3h-3v.3h-.5v-2.5h1.5v-2.2h.5l.1.8zm1.4 1.9h-3v1.2h3V98zm8.1-.9h-1.5v3h-.5v-3h-2c-.1 1.1-.5 2.2-1.7 3l-.4-.4c1.2-.7 1.5-1.7 1.6-2.6H853v-.5h1.7v-2h-1.4v-.5h5.7v.5h-1.3v2h1.5v.5zm-2.1-.5v-2h-1.9v2h1.9zm9 2.6v.5H860v-.5h1.9v-5.4h.5v5.4h1.2v-5.4h.5v5.4h2zm-5-1.3c-.2-.6-.6-1.7-1-2.4l.5-.2c.4.8.8 1.8 1 2.4l-.5.2zm4.9-2.4c-.3.8-.8 1.8-1.2 2.4l-.4-.2c.4-.6.9-1.6 1.2-2.4l.4.2z"/></g><g><path class="st6" d="M822.9 173.4v-1.2l4.5-4.4c.7-.7 1.2-1.2 1.5-1.6.3-.4.5-.7.7-1.1s.2-.7.2-1.1c0-.4-.1-.9-.4-1.3s-.6-.8-1-1-.9-.4-1.4-.4c-.4 0-.7.1-1 .2s-.6.3-.8.5-.4.4-.5.7c-.2.3-.3.5-.3.8-.1.3-.1.7-.1 1.1H823c0-.6.1-1.1.2-1.5.2-.6.4-1.1.8-1.5.4-.4.8-.8 1.4-1 .6-.3 1.2-.4 1.8-.4 1.3 0 2.3.5 3.1 1.4.6.8.9 1.6.9 2.5 0 .4 0 .7-.1 1s-.2.6-.4.9c-.1.2-.3.4-.5.7-.5.6-.9 1.1-1.4 1.5l-4.2 4h6.5v1.2h-8.2zm10.8-4.9v-3.6c0-1.4.4-2.6 1.2-3.4.8-.8 1.9-1.3 3.2-1.3.6 0 1.2.1 1.7.3s.9.4 1.3.7c.3.3.6.6.8 1 .2.3.3.8.4 1.3.1.4.1.9.1 1.7v3.5c0 1.8-.5 3.1-1.4 3.9-.8.7-1.8 1-2.9 1-.6 0-1.2-.1-1.7-.3s-1-.4-1.3-.7-.6-.6-.8-1-.3-.9-.4-1.5c-.2-.3-.2-.8-.2-1.6zm1.3 0c0 .8 0 1.3.1 1.7.1.5.3.9.5 1.2s.6.6 1 .8 1 .3 1.5.3c1 0 1.8-.4 2.4-1.2.4-.6.6-1.5.6-2.8v-3.3c0-.6 0-1.2-.1-1.6-.1-.4-.2-.8-.5-1.1-.2-.3-.6-.6-1-.8s-.9-.3-1.5-.3-1.2.1-1.7.4c-.5.3-.8.7-1.1 1.2-.2.5-.3 1.2-.3 2.1l.1 3.4zm13.8 4.9v-11.8h-2.2v-1.2h3.5v13h-1.3zm11 0h-1.5l3-4.4c-.4.2-.8.3-1.2.3-.6 0-1.2-.1-1.7-.3s-1-.5-1.3-.9c-.4-.4-.7-.8-.9-1.2-.3-.6-.5-1.3-.5-2 0-.8.2-1.6.6-2.3s.9-1.3 1.6-1.7 1.4-.6 2.3-.6c.8 0 1.6.2 2.3.6.7.4 1.2 1 1.6 1.7s.5 1.5.5 2.2c0 .6-.1 1.1-.3 1.6s-.6 1.3-1.3 2.2l-3.2 4.8zm3.4-8.7c0-.5-.1-1.1-.4-1.6s-.6-.9-1.1-1.3-1-.5-1.6-.5-1.1.1-1.6.4c-.5.3-.9.7-1.1 1.2s-.4 1.1-.4 1.7c0 .6.1 1.2.4 1.7.3.5.7.9 1.2 1.2s1 .4 1.5.4.9-.1 1.3-.3.7-.4 1-.7.5-.6.7-1.1c.1-.2.1-.6.1-1.1z"/><path class="st7" d="M822.5 181.7c-.2.5-.5 1-.7 1.4-.1-.1-.3-.2-.4-.2.3-.3.5-.8.7-1.3l.4.1zm.9-.5v2.4h-.5v-2.4h-1.4v-.4h1.4v-.8h-1.4v-.4h1.9c.1-.3.3-.8.4-1.1l.5.1c-.1.3-.3.7-.4 1h.9v.4h-1.3v.7h1.3v.4l-1.4.1zm1.2-2.8h-3.1v-.4h1.4l-.3-.6.5-.1c.2.2.3.5.4.8h1.1v.3zm-2.3 1.1c0-.3-.2-.7-.3-1l.4-.1c.1.3.3.7.3.9l-.4.2zm1.7 2c.2.3.5.8.6 1.1l-.4.2c-.1-.3-.4-.8-.6-1.1l.4-.2zm3.8-1.4h-.8v3.5h-.5v-3.5h-1v.2c0 1-.1 2.4-.7 3.3-.1-.1-.3-.3-.4-.3.6-.8.6-2 .6-3v-2.4c.8-.1 1.7-.3 2.2-.5l.4.4c-.6.2-1.4.4-2.1.5v1.3h2.2l.1.5zm1.8-.9v.4c0 1.2-.1 2.9-.8 4-.1-.1-.3-.2-.5-.3.7-1.1.8-2.6.8-3.8v-2h5.2v1.6h-4.7v.1zm0-1.2v.7h4.2v-.7h-4.2zm4.7 3.9c-.3.2-.8.5-1.1.7.4.3.9.5 1.6.7-.1.1-.2.3-.3.4-1.2-.3-2.1-1-2.6-2.1h-1v1.4l1.5-.3v.4c-1.8.4-2 .5-2.1.6 0-.1-.1-.3-.2-.4.1-.1.3-.2.3-.5v-1.1h-.8v-.4h1.2v-.7h-1v-.4h1v-.6h.5v.6h1.4v-.6h.5v.6h1.2v.4h-1.2v.7h1.5v.4h-2.4c.2.3.3.5.6.7.3-.2.8-.5 1-.7l.4.2zm-2.9-.8h1.4v-.7h-1.4v.7zm10.3-2.9h-5.2v1.9c0 1.1-.1 2.6-.7 3.5-.1-.1-.3-.3-.4-.3.6-.9.6-2.2.6-3.2v-2.4h5.7v.5zm-4.8 1.1h4.7v.5h-1.9v3.2c0 .3-.1.5-.3.6s-.7.1-1.3.1c0-.1-.1-.4-.2-.5h1.1c.1 0 .2 0 .2-.1v-3.2h-2.3v-.6zm11.5.4c-.3 1.1-.8 2-1.5 2.6.5.4 1.2.7 1.9.8-.1.1-.3.3-.4.5-.8-.2-1.4-.5-2-1-.7.5-1.4.8-2.2 1-.1-.1-.2-.4-.3-.5.8-.2 1.5-.5 2.1-.9-.6-.6-1.1-1.4-1.4-2.2h-.3c-.1 1.1-.5 2.4-1.7 3.4l-.4-.4c1.5-1.4 1.6-3.1 1.6-4.4v-.6h-1.2v-.5h4.3c-.1.6-.3 1.4-.5 2h1.5l.5.2zm-4-1v.9h1.5c.1-.4.3-1 .4-1.5h-1.9v.6zm.7 1.4c.3.8.7 1.4 1.3 1.9.6-.5 1-1.1 1.3-1.9h-2.6zm4.3-2.5h2.5v.5h-1.1c-.1.6-.3 1.1-.4 1.7h1.4v3h-1.4v.6h-.4v-2.5c-.1.2-.2.4-.4.6 0-.1-.2-.4-.2-.6.5-.7.8-1.6 1-2.7h-.9l-.1-.6zm1.8 2.6h-.9v2.1h.9v-2.1zm4.5.4h-.8v3h-.5v-3h-1.1c0 1.1-.2 2.2-1 3-.1-.1-.3-.2-.4-.3.7-.8.9-1.8.9-2.7h-.8v-.5h.8v-2h-.6v-.5h3.3v.5h-.7v2h.8l.1.5zm-1.3-.5v-2h-1.1v2h1.1zm7.5.1c-.3.9-.8 1.6-1.4 2.1.6.4 1.3.7 2.2.9-.1.1-.2.3-.3.5-.9-.2-1.7-.5-2.3-1-.6.5-1.4.8-2.2 1-.1-.1-.2-.3-.3-.4.7-.2 1.4-.5 2-.9-.4-.4-.8-.8-1-1.4-.5.9-1.1 1.6-2 2.1l-.4-.4c1.3-.8 2-1.9 2.5-3.4h-1c-.4 0-.7 0-.7.1 0-.1-.1-.4-.2-.5.1 0 .2-.1.2-.3.1-.1.3-.7.5-1.2l.5.1c-.1.4-.3.9-.5 1.3h1.3c.1-.5.2-1 .3-1.6l.6.1-.3 1.5h3v.5h-3.1c-.1.2-.2.5-.2.7h2.4l.4.2zm-2.9.4c.3.6.6 1 1.1 1.4.5-.4.8-.9 1.1-1.4H859zm2.6-2c-.2-.3-.6-.7-.9-1l.4-.2c.3.3.7.7.9 1l-.4.2zm7.7-.1v3.3h-.5v-.4h-2v2.3h-.5v-2.3h-2v.4h-.5v-3.3h2.5v-1.2h.5v1.2h2.5zm-3.1 2.4V179h-2v1.9h2zm2.5 0V179h-2v1.9h2zm2.7-1.1c-.1.8-.3 2-.6 2.7l-.5-.2c.3-.7.5-1.8.6-2.6l.5.1zm1.2-.6v3.4c0 .3.1.4.5.4h1.3c.4 0 .5-.2.5-1.4.1.1.3.2.5.2-.1 1.3-.2 1.7-1 1.7H873c-.8 0-1-.2-1-.9v-3.4h.6zm.1-1.7c.7.4 1.5 1.1 1.9 1.5l-.4.4c-.4-.4-1.2-1.1-1.8-1.6l.3-.3zm3 2c.4.8.8 1.9.9 2.6l-.5.2c-.1-.7-.5-1.8-.9-2.6l.5-.2zm7.4.1c-.3.9-.7 1.7-1.2 2.4.3.7.6 1.1.9 1.1.2 0 .3-.4.3-1.3.1.1.3.2.5.3-.1 1.2-.3 1.5-.8 1.5s-1-.4-1.3-1.1c-.4.4-.9.9-1.4 1.2l-.4-.4c.6-.3 1.2-.8 1.6-1.3-.2-.8-.4-1.8-.5-2.9h-2.4v.9h1.8v.2c0 1.6-.1 2.1-.2 2.3-.1.1-.2.2-.4.2h-.8c0-.2-.1-.4-.2-.5h.7c.1 0 .2 0 .2-.1.1-.1.1-.5.2-1.8h-1.3v.1c0 1-.1 2.4-.7 3.3l-.4-.4c.6-.9.6-2.1.6-2.9v-1.9h2.9v-1.2h.5v1.2h2.3v.5h-2.2c.1.9.2 1.8.4 2.4.4-.6.7-1.2.9-1.9l.4.1zm-1.2-2.3c.4.2 1 .6 1.2.8l-.3.4c-.3-.2-.8-.6-1.2-.8l.3-.4zm8.6 5.5v.5h-6.2v-.5h3.4c.4-.9.8-2.3 1-3.4l.6.1c-.3 1-.7 2.4-1.1 3.2l2.3.1zm-.3-3.7h-5.6v-.5h5.6v.5zm-4 3.4c-.1-.8-.4-2-.7-2.9l.5-.1c.3.9.6 2.1.7 2.9l-.5.1zm1.1-4c-.1-.3-.2-.8-.3-1.1l.5-.1c.1.4.3.8.4 1.1l-.6.1z"/></g><g><path class="st8" d="M360.6 97V79.7c0-4-3.2-7.2-7.2-7.2h-34.2c-4 0-7.2 3.2-7.2 7.2V97h48.6z"/><path class="st8" d="M312 85.8h22.8c.8 0 1.5.6 1.5 1.2v8.7m24.3-9.9h-22.8c-.8 0-1.5.6-1.5 1.2v8.7"/><path class="st8" d="M312 86.2s-1-1.5-3.2-1.3-2.6 1.7-2.8 2.4c-.2.7 0 13.1 0 13.1s.1 1.7 3 1.7h56s2-.1 2-2.1V87.8c0-1-.5-2.1-1.4-2.6-.6-.4-1.4-.6-2.4-.4-1.4 0-2.5 1-2.5 2"/><path class="st8" d="M362.3 102.1v5.8c0 .7-.5 1.2-1.2 1.2h-1.6c-.7 0-1.2-.6-1.2-1.2v-5.8m-44.3 0v5.8c0 .7-.5 1.2-1.2 1.2h-1.6c-.7 0-1.2-.6-1.2-1.2v-5.8"/></g><g><path class="st8" d="M203.2 264.1c0 6.9-5.6 12.4-12.4 12.4-6.9 0-12.4-5.5-12.4-12.4s5.6-12.4 12.4-12.4c4 0 7.5 1.9 9.8 4.8m-9.9-1.3v8m.7 1.9l4.1 4.2"/><circle class="st8" cx="190.8" cy="264.1" r="1"/><path class="st8" d="M199 256.7l2 .4.1-2"/><path class="st8" d="M211.7 240.4h2.6c2.9 0 5.3 2.4 5.3 5.3v35c0 3-2.4 5.3-5.3 5.3h-47.1c-2.9 0-5.3-2.4-5.3-5.3v-35c0-2.9 2.4-5.3 5.3-5.3h3.7m7.8 0h24.5"/><path class="st8" d="M175.6 233.8h-1.2c-1.7 0-3.1 1.4-3.1 3.1v5.4c0 1.7 1.4 3.1 3.1 3.1h1.2c1.7 0 3.1-1.4 3.1-3.1v-5.4c0-1.7-1.4-3.1-3.1-3.1zm32.5 0h-1.2c-1.7 0-3.1 1.4-3.1 3.1v5.4c0 1.7 1.4 3.1 3.1 3.1h1.2c1.7 0 3.1-1.4 3.1-3.1v-5.4c0-1.7-1.4-3.1-3.1-3.1z"/></g><g><path class="st8" d="M657.3 273.4l4.2-40.2h8.4l1.3 13.4"/><path class="st8" d="M668.8 273.4v-27.9l17.4 9v-9l16.2 9v-9h18.4v27.9m-35.7-59.5s-6.4-5.6-11.1-1.4c-2.9 2.6-1.9 9.4-1.9 9.4s0-.1-.1-.2c-1.4-2.9-5.5-2-5 1.9.1.5.4 1.1.8 1.6-2.8-.7-3.7 1.7-2.9 3.6-3.2-.4-3 3.9-1.3 4.6"/><path class="st8" d="M667.9 232.7s1.5-1.2.4-3.7c3.2.1 4.3-.5 4.6-3.4 3.9 1.1 5.1-.1 5.5-2.5 1 1.9 3.2 3.8 5.4 2.3 2.4-1.6 1.3-5.2 1-6.2m-13.6 54.2v-3.5h7.6v3.5m8.4 0v-3.5h7.6v3.5m8.7 0v-3.5h7.6v3.5m-62.1 0h79.1v6.7H649v-6.7zm55.7-25.1h4v2.4h-4v-2.4zm0 4.4h4v2.4h-4v-2.4zm9.6-4.4h4v2.4h-4v-2.4zm0 4.4h4v2.4h-4v-2.4z"/></g></svg>
