<?xml version="1.0" encoding="utf-8"?>
<!-- Generator: Adobe Illustrator 22.0.0, SVG Export Plug-In . SVG Version: 6.00 Build 0)  -->
<svg version="1.1" id="图层_1" xmlns="http://www.w3.org/2000/svg" xmlns:xlink="http://www.w3.org/1999/xlink" x="0px" y="0px"
	 viewBox="0 0 53.9 56.7" enable-background="new 0 0 53.9 56.7" xml:space="preserve">
<path fill="none" stroke="#000000" stroke-width="2" stroke-linecap="round" stroke-linejoin="round" stroke-miterlimit="10" d="
	M52.4,34.6c-2.9,11.3-13.1,19.6-25.3,19.6C12.7,54.3,1,42.6,1,28.1S12.7,2,27.1,2c11.9,0,22,8,25.1,18.9"/>
<path fill="none" stroke="#000000" stroke-width="2" stroke-linecap="round" stroke-linejoin="round" stroke-miterlimit="10" d="
	M31.8,43.3h-8.6c-2,0-3.5-1.6-3.5-3.5V17.1c0-2,1.6-3.5,3.5-3.5h8.6c2,0,3.5,1.6,3.5,3.5v22.7C35.4,41.8,33.8,43.3,31.8,43.3z"/>
<path fill="none" stroke="#000000" stroke-width="2" stroke-linecap="round" stroke-linejoin="round" stroke-miterlimit="10" d="
	M15.1,30.6c-1.3-1.2-2.1-2.9-2.1-4.8c0-1.9,0.8-3.6,2.2-4.8"/>
<path fill="none" stroke="#000000" stroke-width="2" stroke-linecap="round" stroke-linejoin="round" stroke-miterlimit="10" d="
	M17.8,28.6C17,28,16.5,27,16.5,25.9c0-1.1,0.5-2.1,1.3-2.8"/>
<path fill="none" stroke="#000000" stroke-width="2" stroke-linecap="round" stroke-linejoin="round" stroke-miterlimit="10" d="
	M40.2,30.6c1.3-1.2,2.1-2.9,2.1-4.8c0-1.9-0.8-3.6-2.2-4.8"/>
<path fill="none" stroke="#000000" stroke-width="2" stroke-linecap="round" stroke-linejoin="round" stroke-miterlimit="10" d="
	M37.5,28.6c0.8-0.7,1.3-1.7,1.3-2.8c0-1.1-0.5-2.1-1.3-2.8"/>
<line fill="none" stroke="#000000" stroke-width="2" stroke-linecap="round" stroke-linejoin="round" stroke-miterlimit="10" x1="19.7" y1="37.6" x2="35.4" y2="37.6"/>
<line fill="none" stroke="#000000" stroke-width="2" stroke-linecap="round" stroke-linejoin="round" stroke-miterlimit="10" x1="26.1" y1="40.2" x2="29.1" y2="40.2"/>
</svg>
