<?xml version="1.0" encoding="utf-8"?>
<!-- Generator: Adobe Illustrator 22.0.0, SVG Export Plug-In . SVG Version: 6.00 Build 0)  -->
<svg version="1.1" id="图层_1" xmlns="http://www.w3.org/2000/svg" xmlns:xlink="http://www.w3.org/1999/xlink" x="0px" y="0px"
	 viewBox="0 0 400 301.4" enable-background="new 0 0 400 301.4" xml:space="preserve">
<polygon fill="#6F6259" points="7.3,190.7 29.6,190.7 29.6,191.3 28.6,191.3 23.4,194.4 23.4,221.4 32.5,221.4 44.9,211 45,209.8 
	45.5,209.8 44.8,222.2 7.2,222.2 7.2,221.6 8.2,221.6 13.2,218.6 13.2,194.2 8.4,191.3 7.3,191.3 "/>
<polygon fill="#6F6259" points="61.6,190.7 99.7,190.7 99.7,202.2 99.2,202.2 99.2,201.4 89.5,191.5 78,191.5 78,205.4 83.1,205.4 
	89.1,199.1 89.1,197.3 89.7,197.3 89.7,213.5 89.2,213.5 89.2,211 83.2,206.2 77.9,206.2 77.9,221.4 89.6,221.4 99.7,210.4 
	99.7,209.4 100.1,209.4 99.5,222.2 61.7,222.2 61.7,221.6 62.9,221.6 67.8,218.6 67.8,194.3 62.7,191.3 61.6,191.3 "/>
<path fill="#6F6259" d="M135.8,190.3h0.8l18.1,28.4l3.6,2.9h0.9v0.6h-20.8v-0.6h1.1l3.4-3l-3.9-6.1h-15.1l-0.6,1l3.4,8.1h1.1v0.6
	h-12.4v-0.6h0.9l6.2-8.1L135.8,190.3z M131.1,200.1l-6.7,11.6h14.2L131.1,200.1z"/>
<polygon fill="#6F6259" points="169.1,190.7 207.4,190.7 207.4,204.7 206.9,204.7 206.9,203.6 196.8,191.5 193.4,191.5 193.4,218.6 
	198.2,221.6 199.7,221.6 199.7,222.2 176.8,222.2 176.8,221.6 178.1,221.6 183.2,218.5 183.2,191.5 179.8,191.5 169.7,203.5 
	169.7,204.7 169.1,204.7 "/>
<polygon fill="#6F6259" points="224.9,190.7 247.2,190.7 247.2,191.3 246.1,191.3 241.1,194.3 241.1,205.7 256.6,205.7 256.6,194.3 
	251.8,191.3 250.7,191.3 250.7,190.7 272.7,190.7 272.7,191.3 271.8,191.3 266.8,194.3 266.8,218.7 271.5,221.6 272.8,221.6 
	272.8,222.2 250.6,222.2 250.6,221.6 251.7,221.6 256.6,218.6 256.6,206.6 241.2,206.6 241.2,218.6 246.1,221.6 247.3,221.6 
	247.3,222.2 224.9,222.2 224.9,221.6 226.1,221.6 230.8,218.6 230.8,194.3 225.9,191.3 224.9,191.3 "/>
<polygon fill="#6F6259" points="289.4,190.7 327.5,190.7 327.5,202.2 327,202.2 327,201.4 317.3,191.5 305.8,191.5 305.8,205.4 
	310.9,205.4 316.9,199.1 316.9,197.3 317.5,197.3 317.5,213.5 317,213.5 317,211 311,206.2 305.8,206.2 305.8,221.4 317.4,221.4 
	327.5,210.4 327.6,209.4 328,209.4 327.3,222.2 289.6,222.2 289.6,221.6 290.7,221.6 295.6,218.6 295.6,194.3 290.6,191.3 
	289.4,191.3 "/>
<g>
	<path fill="#6F6259" d="M345.2,190.7H372c2.3,0,4.6,0.2,6.8,0.7c2.2,0.5,3.9,1.1,5.2,1.8c1.3,0.7,2.3,1.6,3.1,2.7
		c0.7,1.1,1.1,2.2,1.1,3.4c0,1.2-0.4,2.4-1.2,3.4c-0.8,1-1.9,1.8-3.5,2.5c-1.5,0.7-3.4,1.2-5.7,1.6c-2.3,0.4-4.8,0.6-7.6,0.6v0.1
		c0.7,0.3,1.2,0.5,1.6,0.6c1.1,0.3,2.2,0.5,3.2,0.6c1.1,0.1,2.1,0.2,3,0.2h3l5.6,9.6l5,3.1h1.3v0.6h-15.8l-8.7-14.7h-7v11.1l5,3h1
		v0.6h-22.4v-0.6h1.1l4.9-3.1v-24.3l-4.9-3h-1V190.7z M361.4,191.4v15.2h7.8c2,0,3.6-0.3,4.9-0.8c1.3-0.5,2.2-1.4,2.9-2.5
		c0.6-1.1,1-2.5,1-4.2c0-5.1-3-7.6-9.1-7.6H361.4z"/>
	<path fill="#6F6259" d="M8.7,242.5h26.8c2.3,0,4.6,0.2,6.8,0.7c2.2,0.5,3.9,1.1,5.2,1.8c1.3,0.7,2.3,1.6,3.1,2.7
		c0.7,1.1,1.1,2.2,1.1,3.4c0,1.2-0.4,2.4-1.2,3.4c-0.8,1-1.9,1.8-3.5,2.5c-1.5,0.7-3.4,1.2-5.7,1.6c-2.3,0.4-4.8,0.6-7.6,0.6v0.1
		c0.7,0.3,1.2,0.5,1.6,0.6c1.1,0.3,2.2,0.5,3.2,0.6c1.1,0.1,2.1,0.2,3,0.2h3l5.6,9.6l5,3.1h1.3v0.6H40.7L32,259.3h-7v11.1l5,3h1v0.6
		H8.6v-0.6h1.1l4.9-3.1v-24.3l-4.9-3h-1V242.5z M25,243.3v15.2h7.8c2,0,3.6-0.3,4.9-0.8c1.3-0.5,2.2-1.4,2.9-2.5
		c0.6-1.1,1-2.5,1-4.2c0-5.1-3-7.6-9.1-7.6H25z"/>
	<polygon fill="#6F6259" points="64.5,242.5 102.5,242.5 102.5,254.1 102.1,254.1 102.1,253.3 92.4,243.4 80.9,243.4 80.9,257.2 
		85.9,257.2 92,251 92,249.2 92.6,249.2 92.6,265.4 92.1,265.4 92.1,262.9 86.1,258.1 80.8,258.1 80.8,273.3 92.5,273.3 
		102.5,262.2 102.6,261.2 103,261.2 102.4,274 64.6,274 64.6,273.5 65.8,273.5 70.7,270.4 70.7,246.2 65.6,243.1 64.5,243.1 	"/>
	<path fill="#6F6259" d="M113.9,242.5h24.2c1.4,0,2.8,0.1,4.3,0.3c1.5,0.2,2.8,0.5,4.1,0.8c1.2,0.4,2.2,0.8,3,1.3
		c1.4,0.8,2.5,1.7,3.2,2.9c0.8,1.2,1.2,2.4,1.2,3.8c0,1.8-0.7,3.4-2,4.7c-1.3,1.3-3.3,2.3-5.8,2.9c-2.6,0.7-5.7,1-9.3,1h-6.6v10.1
		l4.9,3.1h1.2v0.6H114v-0.6h1.1l4.9-3v-24.3l-5.1-3h-1V242.5z M130.2,243.4v16.1h4.6c1.6,0,3-0.2,4.1-0.5c1.1-0.3,2-0.8,2.6-1.5
		c1.3-1.4,2-3.5,2-6.5c0-1.7-0.3-3.1-0.8-4.2c-0.6-1.1-1.4-2-2.5-2.6c-1.1-0.6-2.5-0.9-4.2-0.9H130.2z"/>
	<path fill="#6F6259" d="M160.6,242.5H183v0.6h-1.2l-4.9,3V265c0,2.7,0.9,4.8,2.6,6.3c1.7,1.5,4.1,2.3,7.2,2.3
		c1.9,0,3.7-0.3,5.4-0.9c1.7-0.6,3.1-1.4,4.3-2.5c1.2-1.1,2.2-2.3,2.8-3.8c0.7-1.5,1-3,1-4.6v-11.2l-5-7.6h-1.4v-0.6h13.5v0.6h-1.3
		l-4.9,7.4v10.8c0,2.7-0.6,5.1-1.9,7.1c-1.3,2-3.2,3.6-5.6,4.6c-2.4,1.1-5.4,1.6-8.8,1.6c-3.2,0-6-0.5-8.5-1.4
		c-2.5-0.9-4.6-2.2-6.3-3.9c-1.1-1.1-1.9-2.4-2.5-3.8c-0.5-1.4-0.8-3-0.8-4.9v-14.5l-5-3h-1.1V242.5z"/>
	<path fill="#6F6259" d="M212.5,242.5h24.3c2.3,0,4.5,0.2,6.5,0.6c2,0.4,3.8,1,5.3,1.7c1.5,0.7,2.7,1.6,3.5,2.6
		c0.8,1,1.3,2.1,1.3,3.2c0,1.1-0.4,2.1-1.2,3c-0.6,0.7-1.5,1.3-2.5,1.9c-1.1,0.6-2,1-2.7,1.1l-5.2,1v0.1l6,1.3c1,0.3,2,0.7,3,1.3
		c1,0.6,1.8,1.2,2.4,2c0.8,0.9,1.2,2,1.2,3.3c0,2.4-1.4,4.4-4.1,5.9c-1.3,0.8-3,1.4-5.1,1.9c-2.1,0.5-4.1,0.7-6,0.7h-26.8v-0.6h1.1
		l4.8-3v-24.4l-4.9-3h-1.1V242.5z M228.7,243.4v14h8.7c2,0,3.5-0.6,4.5-1.7c0.9-1.1,1.4-2.9,1.4-5.3c0-1.1-0.2-2.2-0.5-3.1
		c-0.3-0.9-0.7-1.7-1.3-2.2c-0.6-0.6-1.4-1-2.4-1.3c-1-0.3-2.1-0.4-3.5-0.4H228.7z M228.7,258.1v15.1h8.9c1.8,0,3.2-0.5,4.1-1.4
		c0.6-0.6,1.1-1.5,1.4-2.6c0.3-1.1,0.4-2.2,0.4-3.5c-0.1-2.7-0.7-4.7-1.8-5.8c-1.1-1.2-2.8-1.7-5.2-1.7H228.7z"/>
	<polygon fill="#6F6259" points="267.6,242.5 289.9,242.5 289.9,243.1 288.9,243.1 283.7,246.2 283.7,273.2 292.8,273.2 
		305.2,262.8 305.3,261.7 305.8,261.7 305,274 267.4,274 267.4,273.5 268.5,273.5 273.5,270.4 273.5,246 268.7,243.1 267.6,243.1 	
		"/>
	<polygon fill="#6F6259" points="317.3,242.5 339.5,242.5 339.5,243.1 338.5,243.1 333.5,246.1 333.5,270.5 338.4,273.5 
		339.5,273.5 339.5,274 317.3,274 317.3,273.5 318.4,273.5 323.3,270.4 323.3,246.2 318.4,243.1 317.3,243.1 	"/>
	<path fill="#6F6259" d="M390.7,262.3l0.8,0.3c-0.5,1.4-1.1,2.5-1.5,3.3c-0.5,0.8-1.1,1.7-2,2.6c-3.7,3.9-8.6,5.9-14.9,5.9
		c-3.4,0-6.8-0.6-10-1.9c-3.3-1.2-6-3-8.2-5.2c-2.6-2.6-3.8-5.5-3.8-9c0-4.4,2.2-8.3,6.6-11.7c3.9-3.1,8.6-4.7,14.1-4.7
		c1.8,0,3.4,0.2,4.8,0.5c1.4,0.4,3,1,4.6,1.8c1.1,0.6,1.9,0.9,2.5,0.9c0.5,0,1.2-0.2,2-0.6c0.8-0.4,1.9-1.1,3.1-2
		c0.2-0.2,0.4-0.3,0.4-0.3l0.5-0.3h0.5l0.6,11.7h-0.5c-1.2-1.6-2.4-3-3.5-4.2c-1.8-1.9-4.1-3.4-6.7-4.6c-2.6-1.2-5.1-1.8-7.4-1.8
		c-1.2,0-2.3,0.2-3.4,0.7c-1.1,0.4-2,1.1-2.8,1.9c-2.5,2.6-3.8,6.7-3.8,12.1c0,1.2,0.1,2.4,0.3,3.8c0.2,1.3,0.5,2.5,0.8,3.6
		c0.4,1.1,0.8,2,1.2,2.8c0.7,1.2,1.6,2.2,2.5,3c1,0.8,2.1,1.4,3.3,1.8c1.2,0.4,2.6,0.6,4,0.6c1.5,0,3-0.2,4.5-0.6
		c1.5-0.4,3-1.1,4.3-1.9c1.4-0.8,2.6-1.8,3.6-2.9c0.8-0.9,1.5-1.7,1.9-2.4C389.7,264.7,390.2,263.7,390.7,262.3"/>
	<path fill="#6F6259" d="M286.1,20.4l-0.2,1c-0.5,2.4-1.7,7-5.1,10.1c-2.3,2.1-5.2,3.2-8.7,3.2h0h0l-29.9,0
		c-8.3,0-17.1,4.1-17.1,15.6c0,11.2,7.1,15.2,11.8,15.9L215,110.4l-0.2,0.3c-0.2,0.4-0.5,0.8-0.8,1.1c-2.2,2.6-7.1,5.1-13.9,5.1
		h-0.1H200H200c-7.8,0-13.1-3.2-14.7-6.2l-0.2-0.3l-21.8-44.2c4.7-0.7,11.8-4.7,11.8-15.9c0-11.5-8.8-15.6-17.1-15.6l-29.9,0h0h0
		c-3.5,0-6.4-1.1-8.7-3.2c-3.4-3.1-4.6-7.7-5.1-10.1l-0.2-1l-0.4,0.4l-0.7,8c0,1.1,0.1,2.1,0.3,3c0.1,0.3,0.1,0.7,0.2,1
		c0.7,2.3,2,4.3,4.5,6.8l3.7,3.9l36.4,0c4.7,0,7.5,1.7,8.2,5c0.1,0.6,0.2,1.2,0.2,1.9c0,0.6,0,1.2-0.1,1.7c-0.6,3.8-3.5,5.8-8.3,5.8
		H158h-19.1l4.3,8.7h10.6l23.2,47.1c2.8,7.3,12.1,12.2,23.1,12.2c11,0,20.3-4.9,23.1-12.2l23.2-47.1h10.6l4.3-8.7h-19.1h-0.1
		c-4.7,0-7.6-2.1-8.3-5.8c-0.1-0.5-0.1-1.1-0.1-1.7c0-0.7,0.1-1.3,0.2-1.9c0.7-3.3,3.5-5,8.2-5l36.4,0l3.7-3.9c2-2,3.3-3.7,4-5.5
		c0.2-0.4,0.3-0.8,0.4-1.2c0.1-0.3,0.2-0.7,0.2-1c0.2-0.9,0.3-1.9,0.3-3l-0.7-8L286.1,20.4z"/>
</g>
</svg>
