<?xml version="1.0" encoding="utf-8"?>
<!-- Generator: Adobe Illustrator 22.0.0, SVG Export Plug-In . SVG Version: 6.00 Build 0)  -->
<svg version="1.1" id="图层_1" xmlns="http://www.w3.org/2000/svg" xmlns:xlink="http://www.w3.org/1999/xlink" x="0px" y="0px"
	 viewBox="0 0 270 249" enable-background="new 0 0 270 249" xml:space="preserve">
<g>
	<path fill="#3E3A39" d="M138.6,132.3c-37,0.7-67.2-29.7-67.2-66.7V9.8c9.5,0,17.2,7.7,17.2,17.1v38.8c0,27.4,22.3,50,49.7,49.5
		c26.5-0.5,48-22.2,48-48.8V26.9c0-9.5,7.7-17.1,17.2-17.1v56.6C203.4,102.4,174.4,131.7,138.6,132.3"/>
	<path fill="#E71A8B" d="M136.7,98c-17.3-0.3-31-14.7-31-31.9V26.9v0c9.5,0,17.2,7.7,17.2,17.1v22.2c0,8,6.6,14.8,14.6,14.6
		c7.8-0.1,14.1-6.5,14.1-14.3V44c0-9.5,7.7-17.2,17.2-17.2v39.7C168.6,84.1,154.2,98.3,136.7,98"/>
	<path fill="#3E3A39" d="M36.6,195.9h7.8v-31.4h-8.1l-7.6,12.2l-7.6-12.2h-8.1v31.4h7.8v-18.1l7.5,11.3H29l7.6-11.4V195.9z
		 M67.6,182.1h-6.2l3.1-7.5L67.6,182.1z M81.6,195.9L68,164.4h-7l-13.5,31.6h8.1l2.8-6.8h12l2.8,6.8H81.6z M111,191.5l0.2-0.2v-12
		h-7.6l0,8.3c-1.5,1-2.7,1.5-5.4,1.5c-5,0-8.6-3.8-8.6-9c0-4.8,3.6-8.8,8.1-8.8c3.4,0,5.3,1.1,7.5,2.9l0.5,0.4l5-6l-0.5-0.4
		c-3.7-3.2-7.3-4.4-12.3-4.4c-9.4,0-16.5,7-16.5,16.4c0,9.3,7,16.1,16.5,16.1C102.8,196.5,107.1,194.8,111,191.5 M138.2,195.9h6.6
		v-31.4H137v17.3l-13.3-17.3h-7.1v31.4h7.8v-18L138.2,195.9z M174.7,180.3c0,5-3.6,8.8-8.5,8.8c-4.9,0-8.6-3.8-8.6-8.9
		c0-5,3.6-8.8,8.5-8.8C171,171.4,174.7,175.2,174.7,180.3 M182.9,180.2c0-9.2-7.2-16.1-16.7-16.1c-9.4,0-16.8,7.1-16.8,16.3
		c0,9.2,7.2,16.1,16.7,16.1C175.6,196.5,182.9,189.3,182.9,180.2 M187.6,195.9h23v-7.3h-15.1v-24.1h-7.9V195.9z M214.7,195.9h7.9
		v-31.4h-7.9V195.9z M246,182.1h-6.2l3.1-7.5L246,182.1z M260,195.9l-13.3-31.2l-0.2-0.4h-7L226,195.9h8.1l2.8-6.8h12l2.8,6.8H260z"
		/>
	<path fill="#3E3A39" d="M203.3,209.3h-20.4v28.2h20.4v-2.9h-17.2v-9.9h17.2v-2.9h-17.2v-9.6h17.2V209.3z M151.5,223.4L151.5,223.4
		c0,8.2,6,14.6,14.2,14.6c5.1,0,8.3-2,11.3-5l-2.1-2.1c-2.7,2.6-5.2,4.1-9.1,4.1c-6.2,0-10.9-5.1-10.9-11.7v-0.1
		c0-6.5,4.7-11.6,10.9-11.6c3.8,0,6.5,1.6,8.9,3.9l2.2-2.3c-2.8-2.7-5.9-4.5-11-4.5C157.5,208.8,151.5,215.4,151.5,223.4
		 M127.6,227.2l6.5-14.4l6.4,14.4H127.6z M132.6,209.1l-12.9,28.4h3.3l3.3-7.5h15.4l3.3,7.5h3.4l-12.9-28.4H132.6z M108,212.2
		c4.6,0,7.6,2.1,7.6,6.1v0.1c0,3.7-3.1,6.2-7.7,6.2h-7v-12.4H108z M108.2,209.3H97.6v28.2h3.2v-10h6.9c6,0,11.1-3.1,11.1-9.2v-0.1
		C118.8,212.7,114.6,209.3,108.2,209.3 M87.5,230.2L87.5,230.2c0,2.9-2.5,4.9-6.3,4.9c-3.9,0-6.7-1.3-9.7-4l-2,2.3
		c3.4,3,7.1,4.5,11.5,4.5c5.6,0,9.6-3.1,9.6-8v-0.1c0-4.3-2.9-6.6-9.2-8c-6.2-1.3-7.7-2.8-7.7-5.5v-0.1c0-2.5,2.3-4.6,6-4.6
		c2.9,0,5.5,0.9,8.1,3.1l1.9-2.5c-2.9-2.3-5.8-3.5-9.9-3.5c-5.4,0-9.3,3.3-9.3,7.7v0.1c0,4.6,3,6.7,9.5,8.1
		C86.1,226.1,87.5,227.5,87.5,230.2"/>
</g>
</svg>
