<?xml version="1.0" encoding="utf-8"?>
<!-- Generator: Adobe Illustrator 22.0.0, SVG Export Plug-In . SVG Version: 6.00 Build 0)  -->
<svg version="1.1" id="图层_1" xmlns="http://www.w3.org/2000/svg" xmlns:xlink="http://www.w3.org/1999/xlink" x="0px" y="0px"
	 viewBox="0 0 400 400" enable-background="new 0 0 400 400" xml:space="preserve">
<g>
	<path fill="#781B65" d="M398.4,199.8c0,109.2-88.6,197.8-197.8,197.8S2.8,309.1,2.8,199.8S91.4,2,200.6,2S398.4,90.6,398.4,199.8"
		/>
	<path fill="#FFFFFF" d="M27.2,215.2c-0.3,0-0.5-0.2-0.5-0.5V214c0-0.2,0.1-0.4,0.4-0.5c2.9-0.8,4.7-1.6,4.7-7.2v-54.2
		c0-1.9-0.1-3.7-1-5c-0.4-0.6-1-1.3-1.7-1.8c-0.2-0.2-0.4-0.3-0.5-0.4c-0.5-0.3-0.9-0.6-1.1-1.2c-0.1-0.5,0.1-1,2.6-1.6l24.1-6.5
		c0,0,0.1,0,0.2,0c0,0,0.1,0,0.1,0c0.1,0,0.2,0.1,0.4,0.2L55,136c0.1,0.1,0.1,0.2,0.1,0.2c0,0.1,0,0.1,0,0.2v7.1
		c0,0.2,0.1,0.4,0.3,0.4c0.1,0,0.1,0,0.2,0c0.1,0,0.3-0.1,0.4-0.2c0.9-1,2-1.9,3.2-2.9c0.7-0.6,1.5-1.1,2.3-1.6l0.1-0.1
		c3.8-2.4,8.1-3.7,12-3.7c14,0,21.4,8.8,21.4,25.4c0,3.4-0.4,6.7-1.3,10c-0.8,2.7-1.9,5.3-3.5,7.6c-1.4,2.1-3.1,4-5,5.6
		c-1.8,1.5-3.8,2.8-5.8,3.8c-2.5,1.3-5.1,2.3-7.8,3.1c-3.2,0.9-6.4,1.4-9.7,1.5c-2,0.1-4.2,0-6.2-0.4c0,0-0.1,0-0.1,0
		c-0.1,0-0.2,0-0.3,0.1c-0.1,0.1-0.2,0.2-0.2,0.4V206c0,4.6,1.9,6.7,6.6,7.6c0.2,0,0.4,0.2,0.4,0.5v0.7c0,0.3-0.2,0.5-0.5,0.5H27.2z
		 M59.8,145.3c-1.7,0-3.3,0.5-4.5,2c-0.1,0.1-0.1,0.4-0.1,0.5v29.4c0,2.4,0.3,5.8,1.9,8.7c0.8,1.5,1.7,2.7,3.2,3.6
		c1.4,0.8,3.2,1.1,4.6,0.1c1.2-0.8,1.9-2.2,2.5-3.5c1.9-3.9,2.2-8.6,2.5-12.9c0.1-2.1,0.2-4.1,0.2-6.2c0-4.3-0.2-8.6-1.1-12.8
		c-0.5-2.4-1.3-4.4-2.8-6.3C64.7,146.2,62.2,145.3,59.8,145.3"/>
	<path fill="#FFFFFF" d="M97.6,191.7c-0.3,0-0.5-0.2-0.5-0.5v-0.7c0-0.2,0.1-0.4,0.4-0.5c2.8-0.7,4.6-1.5,4.6-7.2v-54.1
		c0-4.3-0.6-5.3-2.9-6.8l-1.4-0.9c-0.1-0.1-0.2-0.2-0.2-0.4V120c0-0.2,0.1-0.4,0.4-0.5l27.1-7.1c0,0,0.1,0,0.1,0
		c0.2,0,0.3,0.1,0.4,0.2l0.2,0.3c0.1,0.1,0.1,0.2,0.1,0.3c0,1.3-0.1,2.7-0.1,4.2l0,0.1c-0.1,3.9-0.2,8.3-0.2,11.6v53.7
		c0,5.6,1.9,6.5,4.8,7.2c0.2,0.1,0.4,0.2,0.4,0.5v0.7c0,0.3-0.2,0.5-0.5,0.5H97.6z"/>
	<path fill="#FFFFFF" d="M182.2,263.5c-7.4,0-11.9-3.3-13.6-9.8c0-0.2-0.2-0.3-0.4-0.4c0,0,0,0,0,0c-0.2,0-0.4,0.1-0.4,0.3
		c-0.1,0.2-0.3,0.7-0.3,0.7c-0.6,1.5-1.8,3.2-3.3,4.6l-0.1,0.1l-0.1,0.1c-2.1,2-5.7,4.3-10.7,4.3c-8.8,0-14.5-5.7-14.5-14.5
		c0-6.1,3.5-10.6,6.7-11.8c1.8-0.7,9.7-2.4,14.2-3.3l7.9-1.7c0.2,0,0.4-0.2,0.4-0.5v-5.8c0-6.4-3.4-9.8-11.2-10.9c0,0,0,0-0.1,0
		h-0.3c-0.5,0-0.9,0-1.4,0.1c-0.4,0-0.7,0.1-1,0.2c-0.2,0.1-0.3,0.2-0.3,0.4c0,0.2,0.1,0.4,0.3,0.5c3.2,1.1,5.4,4.1,5.4,7.5
		c0,4.5-3.5,8.1-7.9,8.1c-4.5,0-8.1-3.5-8.1-8.1c0-1.3,0.3-2.6,1-3.8c0,0,0-0.1,0-0.1c0.1-0.2,1.7-3.7,4.6-5.9
		c0.1-0.1,0.2-0.1,0.3-0.2c0.1,0,0.1-0.1,0.1-0.1c0-0.1,0.1-0.1,0.1-0.1c4.3-2.8,8.7-4.8,13.1-5.9c0.3-0.1,0.5-0.1,0.5-0.1
		c0,0,0.1,0,0.1,0c0,0,0.1,0,0.1,0c2.6-0.6,5-0.9,7.3-0.9c13.7,0,20.7,6.1,20.7,18v25.1c0,2.6,1.1,3.9,3.3,3.9c1,0,1.7-0.3,2-0.5
		c0.1-0.1,0.2-0.1,0.3-0.1c0,0,0.1,0,0.1,0c0.1,0,0.2,0.1,0.3,0.2l0.1,0.2c0.1,0.1,0.1,0.3,0,0.4
		C195.8,258.5,190.9,263.5,182.2,263.5 M167.5,234.1c0,0-0.1,0-0.1,0c-0.5,0.1-0.9,0.2-1.3,0.4c-1.2,0.5-2.6,1.5-3.3,2.4
		c-1.2,1.6-2.2,3.6-2.4,5.7c-0.1,1.1-0.2,2.4-0.1,3.9c0.1,1.6,0.5,3.5,1.5,4.8c0.9,1.1,2.5,1.7,3.8,1c1.5-0.8,1.9-2.1,2.4-3.2
		c0-0.1,0-0.1,0-0.2c0-0.3,0-0.4,0-0.5c0-0.2,0-0.3,0-0.7v-13.1c0-0.1-0.1-0.3-0.2-0.4C167.7,234.1,167.6,234.1,167.5,234.1"/>
	<path fill="#FFFFFF" d="M276.9,263.5c-8.1,0-14.9-2.9-19.5-8.3c-4.1-4.8-6.3-11.3-6.3-18.4c0-0.2,0-0.4,0-0.6c0-0.1,0-0.2,0-0.3
		c0-0.1,0-0.1,0-0.1c0,0,0-0.3,0.1-0.9c0.2-3.7,1.2-7.2,2.9-10.4c1.4-3.3,3.2-5.8,5.4-7.6c0.3-0.3,0.6-0.5,0.9-0.7l0.5-0.4
		c1.7-1.5,3.6-2.9,5.8-4.1c4.1-2.5,8-3.9,13.3-4.8c2-0.3,4-0.5,5.9-0.5c6,0,10.1,1.6,11.5,2.3c0.3,0.2,0.6,0.3,0.8,0.6
		c0,0,0,0,0.1,0.1c2.6,1.8,4.2,4.8,4.2,7.9c0,5.3-4.5,9.8-9.8,9.8c-5.3,0-9.8-4.5-9.8-9.8c0-3,1.4-5.8,3.8-7.6
		c0.2-0.1,0.2-0.3,0.2-0.5c-0.1-0.2-0.2-0.3-0.4-0.3c-0.2,0-0.5,0-0.7,0c-2.2,0-3.8,0.6-5.4,1.8c-0.1,0.1-0.2,0.2-0.4,0.3l-0.2,0.1
		c-2.4,2.3-5.2,7-5.2,16.1c0,17.5,9.9,19.4,14.1,19.4c6,0,10.6-2.7,12.6-5.3c0.1-0.1,0.2-0.2,0.4-0.2c0.1,0,0.2,0,0.3,0.1l0.7,0.5
		c0.2,0.1,0.2,0.3,0.2,0.5C301.5,250,294.6,263.5,276.9,263.5"/>
	<path fill="#FFFFFF" d="M357.2,262.6c-0.3,0-0.5-0.2-0.5-0.5v-0.7c0-0.2,0.1-0.4,0.4-0.5c2.8-0.7,4.6-1.5,4.6-7.2v-54.1
		c0-4.3-0.6-5.3-2.9-6.8l-1.4-0.9c-0.1-0.1-0.2-0.2-0.2-0.4v-0.6c0-0.2,0.1-0.4,0.4-0.5l27.1-7.1c0,0,0.1,0,0.1,0
		c0.2,0,0.3,0.1,0.4,0.2l0.2,0.3c0.1,0.1,0.1,0.2,0.1,0.3c0,1.2-0.1,2.5-0.1,3.9l0,0.3c-0.1,3.9-0.2,8.3-0.2,11.6v53.7
		c0,5.6,1.9,6.5,4.8,7.2c0.2,0.1,0.4,0.2,0.4,0.5v0.7c0,0.3-0.2,0.5-0.5,0.5H357.2z"/>
	<path fill="#FFFFFF" d="M198,262.6c-0.3,0-0.5-0.2-0.5-0.5v-0.7c0-0.2,0.1-0.4,0.4-0.5c2.9-0.8,4.7-1.6,4.7-7.2v-31.1
		c0-4.2-0.6-5.3-2.8-6.7l-1.5-1c-0.1-0.1-0.2-0.2-0.2-0.4V214c0-0.2,0.1-0.4,0.3-0.5l26.6-7.3c0,0,0.1,0,0.1,0
		c0.1,0,0.3,0.1,0.4,0.2l0.3,0.5c0.1,0.1,0.1,0.2,0.1,0.3v19.6c0,0.2,0.2,0.4,0.4,0.5c0,0,0.1,0,0.1,0c0.2,0,0.4-0.1,0.4-0.3
		c1.9-4.8,3.6-9,4.7-11.2c2.8-5.5,8.1-9.4,14-10.3c3-0.4,6-0.5,8.7-0.6c0.4,0,0.8-0.1,1.1-0.1c0.3,0,0.5-0.1,0.7-0.1
		c0.5,0,1,0.2,1.3,1.3c0.2,0.9-0.2,2.1-0.4,3c0,0.2-0.1,0.3-0.1,0.5c-1.1,4.4-4.6,8.8-8.9,11.7c-2.6,1.7-5.5,2.3-8.4,2.8
		c-1.9,0.4-3.8,0.7-5.5,1.4c-1.9,0.7-3.4,2.3-4.7,4.8c-0.8,1.7-2.3,5.3-3.4,7.9c0,0.1,0,0.1,0,0.2v15.9c0,3.9,1.8,6.2,5.5,6.8
		c0.2,0,0.4,0.2,0.4,0.5v0.7c0,0.3-0.2,0.5-0.5,0.5H198z"/>
	<path fill="#FFFFFF" d="M270.4,191.7c-0.3,0-0.5-0.2-0.5-0.5v-0.8c0-0.2,0.1-0.4,0.4-0.5c2.1-0.6,3.3-1.7,3.3-5.7v-29.4
		c0-2-0.1-4.6-1.7-6c-3-2.7-6.6-0.3-8.4,2.6c0,0.1-0.1,0.2-0.1,0.3c0,0.3,0,0.6,0,0.9v31.7c0,4.1,1.1,5.2,3.2,5.7
		c0.2,0.1,0.4,0.2,0.4,0.5v0.8c0,0.3-0.2,0.5-0.5,0.5h-29.7c-0.3,0-0.5-0.2-0.5-0.5v-0.8c0-0.2,0.1-0.4,0.4-0.5
		c2-0.6,3.3-1.7,3.3-5.7v-29.4c0-3.1-0.6-5-1.9-6.1c0,0-0.1,0-0.1-0.1c-0.9-0.5-1.7-0.7-2.5-0.7c-0.9,0-1.6,0.3-2.4,0.8
		c-1.1,0.8-2.3,2.4-3.4,4.5c0,0.1,0,0.1,0,0.2v30.7c0,4,1.3,5.2,3.3,5.7c0.2,0.1,0.4,0.2,0.4,0.5v0.8c0,0.3-0.2,0.5-0.5,0.5h-30.8
		c-0.3,0-0.5-0.2-0.5-0.5v-0.8c0-0.2,0.1-0.4,0.3-0.5c2.6-0.7,4.3-1.6,4.3-7.1v-31.1c0-4.1-0.7-5.3-2.8-6.7l-1.5-1
		c-0.1-0.1-0.2-0.2-0.2-0.4v-0.5c0-0.2,0.1-0.4,0.4-0.5l26.6-7.3c0,0,0.1,0,0.1,0c0.1,0,0.3,0.1,0.4,0.2l0.3,0.5
		c0.1,0.1,0.1,0.2,0.1,0.3v10c0,0.2,0.1,0.4,0.3,0.4c0.1,0,0.1,0,0.2,0c0.1,0,0.3-0.1,0.4-0.2l2.9-3.2c4.2-4.9,10.4-7.8,16.5-7.8
		c7.3,0,11.4,3.1,12.8,9.8c0,0.2,0.2,0.3,0.3,0.4c0,0,0.1,0,0.1,0c0.1,0,0.2,0,0.3-0.1c2.8-2.7,5.6-4.9,8.2-6.3
		c3.7-2.4,7.7-3.7,11.8-3.7c11.8,0,13.4,8.4,13.4,16.5v30.8c0,5.5,1.8,6.4,4.4,7.2c0.2,0.1,0.3,0.2,0.3,0.5v0.8
		c0,0.3-0.2,0.5-0.5,0.5H270.4z"/>
	<path fill="#FFFFFF" d="M331.3,263.5c-18.7,0-27.1-13.5-27.1-26.9c0-14.9,8.2-25.5,22.5-29.2c0,0,0.1,0,0.1,0c0,0,0,0,0.1,0
		c0.1,0,2.3-0.7,4.3-0.8c0.6,0,1.3-0.1,2-0.1h0.1c3.3,0,6.7,0.6,9.8,1.6c2.2,0.7,4.2,1.8,5.9,3c1.6,1.2,2.9,2.6,3.9,4.2
		c1,1.5,1.7,3.2,2.2,5.1c0.2,0.9,0.4,1.8,0.5,2.8c0.3,2.8,0.1,3.1,0,3.2c-0.1,0.1-0.2,0.2-0.4,0.2h-26.9c-0.3,0-0.5,0.2-0.5,0.5
		c0,0.3,0,0.6,0,0.9c0,12.8,5,18.8,15.6,18.8c5.8,0,9.7-1.7,12.4-5.4c0.1-0.1,0.2-0.2,0.4-0.2c0.1,0,0.2,0,0.2,0.1l0.8,0.5
		c0.2,0.1,0.3,0.3,0.2,0.5C356.2,249.4,349.2,263.5,331.3,263.5 M332.3,208.5c-0.6,0-1.4,0.2-1.9,0.7c-1.3,1.3-1.8,3.5-2.1,4.6
		c-0.7,3-0.8,5.4-0.7,8.9c0,0.1,0.1,0.3,0.2,0.4c0.1,0.1,0.2,0.1,0.3,0.1c0,0,0.1,0,0.1,0c1.4-0.3,3.3-0.7,5.1-1l2.5-0.5
		c0.2,0,0.4-0.2,0.4-0.4c0.2-1.4-0.2-5.1-0.3-6.5c-0.2-1.4-0.6-3.1-1.2-4.5c-0.4-0.9-1.2-1.5-2.1-1.7
		C332.5,208.5,332.4,208.5,332.3,208.5"/>
	<path fill="#FFFFFF" d="M68.9,286.1c-0.3,0-0.5-0.2-0.5-0.5v-0.7c0-0.2,0.1-0.4,0.4-0.5c2.9-0.8,4.7-1.6,4.7-7.2v-54.2
		c0-1.9-0.1-3.7-1-5c-0.4-0.6-1-1.3-1.7-1.8c-0.2-0.2-0.4-0.3-0.5-0.4c-0.5-0.3-0.9-0.6-1.1-1.2c-0.1-0.5,0.1-1,2.6-1.6l24.1-6.5
		c0,0,0.1,0,0.2,0c0,0,0.1,0,0.1,0c0.1,0,0.2,0.1,0.4,0.2l0.2,0.2c0.1,0.1,0.1,0.2,0.1,0.2c0,0.1,0,0.1,0,0.2l0,7.1
		c0,0.2,0.1,0.4,0.3,0.4c0.1,0,0.1,0,0.2,0c0.1,0,0.3-0.1,0.4-0.2c0.9-1,2-1.9,3.2-2.9c0.7-0.6,1.5-1.1,2.3-1.6l0.1-0.1
		c3.8-2.4,8.1-3.7,12-3.7c14,0,21.4,8.8,21.4,25.4c0,22.8-17.3,29.1-27.7,30.9l-0.5,0.1c-1.2,0.2-2.4,0.4-3.7,0.6
		c-0.1,0-0.2,0-0.4,0l-0.2,0c-0.2,0-0.5,0-0.7,0c-0.1,0-0.2,0-0.3,0c-0.9,0-1.8,0-2.8-0.1c-0.9,0-2-0.1-3-0.3c0,0-0.1,0-0.1,0
		c-0.1,0-0.2,0-0.3,0.1c-0.1,0.1-0.2,0.2-0.2,0.4v13.5c0,4.6,1.9,6.7,6.6,7.6c0.2,0,0.4,0.2,0.4,0.5v0.7c0,0.3-0.2,0.5-0.5,0.5H68.9
		z M101.5,215.5c-0.2,0-0.4,0-0.7,0c0,0-0.2,0-0.3,0l-0.1,0c-0.7,0.1-1.3,0.3-1.8,0.5c-0.6,0.3-1.1,0.8-1.6,1.5
		c-0.1,0.1-0.1,0.2-0.1,0.3v30.3c0,2.4,0.3,5.8,1.9,8.7c1.2,2.4,3.2,4,5.6,4.6c0,0,0,0,0.1,0c0.2,0,0.3,0,0.4,0
		c1.2,0,1.9-0.4,2.3-0.8c2.8-2.7,4.6-11.3,4.6-22.7C111.8,218.1,106.3,215.5,101.5,215.5"/>
	<path fill="#FFFFFF" d="M198.7,190.1c-2.5-0.7-4.3-1.6-4.4-6.5l0-7.2v-24.2c0-0.8,0-1.6-0.1-2.4l0-13.3c0-0.2-0.1-0.3-0.3-0.4
		l-0.2-0.1c-0.1,0-0.1,0-0.2,0c0,0,0,0,0,0l-27.5,3.2c-0.2,0-0.4,0.2-0.4,0.5v0.9c0,0.2,0.2,0.4,0.4,0.5c4.5,0.9,4.9,2.5,4.9,7v30
		c0,0.2-0.1,0.3-0.2,0.4c-1.4,1-2.8,1.9-4.6,1.9c-0.3,0-0.6,0-0.9-0.1l-0.1,0c-0.2,0-0.5-0.1-0.7-0.1c-0.2,0-0.4-0.1-0.6-0.2
		c-0.1,0-0.2-0.1-0.3-0.1c-0.2-0.1-0.5-0.2-0.6-0.4l-0.1-0.1c0,0-0.1-0.1-0.1-0.1c-0.2-0.1-0.4-0.3-0.5-0.5c0,0-0.1-0.1-0.1-0.1
		c-0.8-1.1-1.3-2.8-1.3-5.2v-36.8c0-0.2-0.1-0.3-0.3-0.4l-0.2-0.1c-0.1,0-0.1,0-0.2,0c0,0,0,0,0,0l-28.5,3.2c-0.2,0-0.4,0.2-0.4,0.5
		v0.9c0,0.2,0.2,0.4,0.4,0.5c4.5,0.9,5.8,2.4,5.8,7v28.5c0,10.4,5.6,16.2,15.7,16.2c4.6,0,8.4-1.3,11.4-3.9c1.1-0.9,4-3.7,5.7-5.8
		c0.1-0.1,0.2-0.2,0.4-0.2c0.1,0,0.1,0,0.2,0c0.2,0.1,0.3,0.2,0.3,0.4c0,0,0.1,4.2,0.1,4.2c0,0.2,0.2,1.9,1.5,3.1
		c1.2,1,2.2,1.2,2.6,1.3l2,0h6.4c5.5,0,11,0,11,0v0h4.3c0.3,0,0.5-0.2,0.5-0.5v-0.8C199.1,190.4,198.9,190.2,198.7,190.1"/>
</g>
</svg>
