<?xml version="1.0" encoding="utf-8"?>
<!-- Generator: Adobe Illustrator 22.0.0, SVG Export Plug-In . SVG Version: 6.00 Build 0)  -->
<svg version="1.1" id="图层_1" xmlns="http://www.w3.org/2000/svg" xmlns:xlink="http://www.w3.org/1999/xlink" x="0px" y="0px"
	 viewBox="0 0 506 172.9" enable-background="new 0 0 506 172.9" xml:space="preserve">
<g>
	<path fill="#0099D8" d="M56.3,41.8c0-3.6-1.3-6.7-3.8-9.2C50,30,47,28.8,43.3,28.8H7.6v25.9h35.7c3.6,0,6.7-1.2,9.2-3.7
		C55.1,48.4,56.3,45.4,56.3,41.8 M68.2,94.8H58.1L24.9,61.7H7.6v33.1H0.5v-73h42.9c5.5,0,10.3,2,14.2,5.9c3.9,3.9,5.9,8.6,5.9,14.1
		c0,5.5-2,10.2-5.9,14.1c-3.9,3.9-8.7,5.9-14.2,5.9H35L68.2,94.8z"/>
	<path fill="#0099D8" d="M140.3,54.8c-0.9-7.4-4.1-13.6-9.7-18.5c-5.6-5-12.2-7.5-19.7-7.5c-7.5,0-14.1,2.5-19.8,7.4
		c-5.7,4.9-8.9,11.1-9.8,18.6H140.3z M147.7,61.8H81.3c0.9,7.4,4.1,13.6,9.7,18.5c5.6,4.9,12.2,7.4,19.9,7.4
		c11.2,0,20-5.4,26.6-16.1l6.2,3.6c-8,13.1-18.9,19.6-32.9,19.6c-10.3,0-19-3.5-26.2-10.6C77.4,77,73.9,68.4,73.9,58.2
		c0-10.2,3.6-18.8,10.8-25.9c7.2-7.1,15.9-10.6,26.2-10.6c10.2,0,18.9,3.6,26.1,10.7c7.2,7.2,10.8,15.8,10.8,25.9V61.8z"/>
	<path fill="#0099D8" d="M219.8,54.8c-0.9-7.4-4.1-13.6-9.7-18.5c-5.6-5-12.2-7.5-19.7-7.5c-7.5,0-14.1,2.5-19.8,7.4
		c-5.7,4.9-8.9,11.1-9.8,18.6H219.8z M227.2,61.8h-66.5c0.9,7.4,4.1,13.6,9.7,18.5c5.6,4.9,12.2,7.4,19.9,7.4
		c11.2,0,20-5.4,26.6-16.1l6.2,3.6c-8,13.1-18.9,19.6-32.9,19.6c-10.3,0-19-3.5-26.2-10.6c-7.2-7.1-10.8-15.7-10.8-25.9
		c0-10.2,3.6-18.8,10.8-25.9c7.2-7.1,15.9-10.6,26.2-10.6c10.2,0,18.9,3.6,26.1,10.7c7.2,7.2,10.8,15.8,10.8,25.9V61.8z"/>
	<path fill="#0099D8" d="M299.6,58.3c0-8.2-2.9-15.2-8.6-20.9c-5.8-5.7-12.8-8.6-21.1-8.6h-29.9v58.9h29.9c8.3,0,15.3-2.8,21.1-8.5
		C296.7,73.5,299.6,66.5,299.6,58.3 M306.7,58.2c0,10.1-3.6,18.7-10.8,25.8c-7.2,7.1-15.9,10.7-26.1,10.7h-37v-73h37
		c10.2,0,18.9,3.6,26.1,10.7C303.1,39.5,306.7,48.2,306.7,58.2"/>
	<path fill="#0099D8" d="M446.1,93.9c0.1-0.3,0.1-0.6,0.2-0.9c0.4,0.3,0.6,0.4,0.7,0.9C446.6,94.1,446.5,94.1,446.1,93.9
		 M433.4,80.9c0,0,0.1-0.1,0.1-0.1c0.3,0.4,0.7,1.1,0.7,1.6c-0.3-0.1-0.3-0.1-0.9-0.7C433.3,81.4,433.3,81.4,433.4,80.9 M480.8,72.8
		c-0.5-0.4-0.3-0.6-0.1-1.2c0.3-0.1,0.5,0.1,0.8,0.2c0,0.3,0,0.3-0.3,1C481,72.8,480.9,72.8,480.8,72.8 M484.2,68.6
		c-0.1,0-0.3-0.1-0.4-0.1c-0.1,0.1-0.2,0.3-0.3,0.4c0.1,0,0.1,0-0.1,0.3c-0.5,0.1-0.6,0.3-0.9,0.7c-0.1,0-0.2-0.1-0.4-0.1
		c0-0.1,0.1-0.2,0.1-0.4c-0.4-0.2-0.6-0.3-0.9-0.3c0,0.1-0.1,0.1-0.1,0.2c0,0.2,0,0.2-0.4,0.8c-0.2-0.1-0.3-0.2-0.5-0.3
		c0-0.2-0.1-0.3-0.1-0.5c0.3-0.4,0.3-0.4,0.5-0.5c0.1-0.1,0.2-0.2,0.3-0.3c0.7-0.5,1.2,0,1.9,0.2c0.1-0.1,0.2-0.3,0.3-0.4
		c0.1,0,0.1,0,0.2,0.1c0.2-0.3,0.4-0.3,0.8-0.6c0.1,0,0.1,0.1,0.2,0.1c0.9-0.5,0.3-1.5,0.1-2.3c0.7-1.3,0.8,0,1.6-1.3
		c0.9-0.7,1.3-1.6,2.2-2.2c0.7-1.4,1.3-2.2,3-2.1c0-0.1,0.1-0.2,0.1-0.3c-0.2-0.9-0.1-1.9,0-2.9c1.2-3,2.8-4.7,5.9-5.4
		c2.1,1.2,0.3,2.4,0.4,4.1c-0.3,0.5-0.6,1.1-0.9,1.6c-0.5,1.7-0.5,1.7-0.7,2.2c-0.4,0.2-0.8,0.3-1.3,0.5c-0.8,1.1-1.6,1.9-2.2,3.1
		c-1.1,0.8-1.2,1.8-2.2,2.6c-0.6,1.2,0.3,1.2-1.2,1c-0.2,0.3-0.1,0.7-0.1,1c-0.7,1.2-1.3,1-2.4,0.5
		C485.5,68.3,485.1,69.2,484.2,68.6 M476.5,56.5c0.2,0.1,0.4,0.3,0.6,0.4c0.1,0,0.2,0,0.3,0c0.6-1.1,0.6-1.1,1.1-2.5
		c-0.4-0.8-0.6-1.1-0.2-1.9c0.2,0,0.3,0,0.5-0.1c0.1-0.2,0.1-0.2,0.1-0.9c0.2-0.4,0.3-0.7,0.5-1.1c0.4-0.2,1.4-0.5,1.8-0.8
		c0.4-0.9,0.8-1.7,1.6-2.2c1.4-2,2.7-4.2,4-6.3c0.4-0.4,0.8-1.1,1.2-1.5c0.3,0.1-0.3,1.9,0,1.9c0.1-0.1,0.1-0.2,0.1-0.3
		c-0.8-0.8-0.6-1.1-0.2-2.2c0-0.7,0.1-1.5,0.1-2.2c0.3-0.9,0.6-1.8,0.9-2.6c0.7-0.7,1.4-1.5,2-2.2c0.5-0.2,1.1-0.5,1.6-0.7
		c1.8,0.1,2.5,0.6,3.3,2.3c-0.4,1.4-0.8,2.7-1.3,4.1c-0.8,0.8-0.8,0.8-1.7,2c-1.2,0.8-0.9,2-1.4,3.2c-1.2,0.9-0.7,0.8-1.3,2.1
		c-0.8,1.2-0.8,1.2-1.3,2.2c-1.2,0.8-1.8,2.3-2.1,3.7c-0.6,1.3-0.7,1.3-2,0.7c0,0.2-0.1,0.4-0.1,0.6c0.3,0.3,0.6,0.4,0.7,0.8
		c-0.6,1.2-2.1,1.6-3.2,2.4c-0.4,0.1-0.4,0.1-1.7,0.1c-0.6,0.6-2,1.5-2.4,2.2c0.2,0.4,0.2,0.4,0,0.8c-0.1,0-0.2,0-0.4,0
		c-0.6-0.4-0.8-0.6-1.1-1.2c-0.5-0.5-0.5-0.5-0.7-0.8c-0.1-0.3,0-0.4,0.1-0.7C476.5,55.9,476.6,56,476.5,56.5 M477.2,54.4
		c-0.1-0.1-0.1-0.1-0.2-0.2c0.1-0.1,0.1-0.3,0.2-0.4c0.1,0.1,0.2,0.1,0.3,0.2C477.4,54.3,477.4,54.3,477.2,54.4 M456.5,78.7
		c-0.1-0.1-0.2-0.2-0.4-0.3c0.1-0.1,0.1-0.2,0.2-0.3c0.2,0,0.2,0,0.7,0.3C456.9,78.6,456.8,78.6,456.5,78.7 M459.9,75.3
		c-1.6-0.9-0.9-1.3-0.4-2.9c0.7,0.3,0.7,1.1,0.7,1.7C460.7,74.8,460.2,74.3,459.9,75.3 M461.2,72.9c-0.8-0.7-0.1-0.3-0.7-1
		c-0.1-1.9,0-1.8,1.8-1.6c0.7-1.6-0.3-2.4-0.4-4c0.6,0.2,0.7,0.7,0.9,1.2c1.1,0.8,1.9,2.4,1.9,3.8c0.3,0.7,0.5,0.7,1.2,0.9
		c0,1.5,1.1,2.2,1.6,3.4c0,0.1-0.9-1-0.9-0.8c-1.2-0.4-1.6-0.2-2.7-0.8c0-0.3,0-0.6,0-0.9C462.5,72.5,461.9,72,461.2,72.9
		 M454.2,77.6c0.1-0.7,0.3-1.4,0.9-1.7c0.2,0.6-0.4,1.2-0.4,1.8c0.1,0.5-0.5,1.7-0.9,2c-0.2,0-0.3-0.1-0.5-0.1c0-0.1,0-0.2,0-0.3
		C453.6,78.7,453.9,78.1,454.2,77.6 M444.4,95.8c0.2,0,0.5,0.1,0.7,0.1c0.5-1.1,0.5-1.1,0.9-1.5c0.4,0.2,0.7,0.1,1.1,0.1
		c0.7,0.9,0.4,1.5,1.5,1.9c1.2-0.3,2.4-0.4,3.6,0c1.1,0.2,2.1,0.1,3.2,0.4c0.1-0.1,0.2-0.1,0.3-0.2c0.3,0.1,0.4,0,0.8,0.1
		c0.5,0.1,1,0.3,1.5,0.2c0.6,0.2,0.4-0.3,1-0.1c0.2-0.1,0.3,1,1.5-0.4c0.8-0.5,1.7-0.5,2.5-0.4c0.8-0.3,0.7-1.1,1.4-1.6
		c0.6-1,1.6-2.5,1.6-0.8c1.6-2,3.2-3.3,4.3-4.2c1.1-2.1,2.8-3.8,3.7-6c-0.1-0.5-0.4-0.6-0.1-1.2c0.3,0.1,0.6,0.2,0.9,0.3
		c1.1-0.6,1.2-1.7,1.7-2.8c0.9-1,2.1,0,2-1.4c0.3-0.5,0.5-1,0.7-1.5c0.1-0.3,0.3-0.5,0.4-0.8c-0.3-0.3-0.6-0.5-0.9-0.8
		c0,0,0,0-0.1,0c0.3-0.5,0.4-0.9,0.9-1.1c0.1-0.1,0.1-0.3,0.1-0.4c0-0.1,0.1-0.2,0.1-0.3c-0.2-0.2-0.2-0.2-0.8-0.6
		c0-0.1,0-0.2,0-0.4c-0.2-0.1-0.4-0.2-0.6-0.3c0-0.6,0.9-0.7,1.4-0.8c0.1-0.2,0.2-0.3,0.2-0.5c-1-1.2-1.1-1.4-2.7-1
		c-0.2-0.1-0.4-0.2-0.6-0.3c-0.1,0.1-0.1,0.1-0.5,0.9c-0.3-0.1-0.5-0.2-0.8-0.3c0-1,0.4-1.5-0.2-2.5c0.1-0.1,0.1-0.3,0.2-0.4
		c0.2,0,0.3,0,0.5,0c0-0.1,0-0.1,0.1-0.2c-0.3-0.1-0.6-0.1-1.2-0.2c0,0-0.1,0-0.1-0.1c0.1-0.3,0.2-0.5,0.4-0.8
		c-0.1,0-0.2-0.1-0.3-0.1c-0.2,0.2-0.4,0.5-0.5,0.7c-0.5,0.6-1.4-0.2-2-0.4c0.2-1.2,1.8-2.8,1.2-3.9c0-0.5,0-0.5,0.2-0.9
		c0.1,0,0.1,0.1,0.1,0.1c0.7,1.3,1.3,1.5,2.1,0.3c0.3-0.2,0.6-0.3,0.9-0.5c0.1-0.6,0-0.9-0.2-1.5c0.9-0.2,1.4-0.3,1.2-1.2
		c-0.4-0.1-0.7-0.2-1.2-0.1c-0.1,0-0.2-0.1-0.4-0.1c-0.7-0.8-1.3,0.2-0.4,0.8c0.1,0.1,0.2,0.2,0.3,0.3c0,0,0,0.1,0,0.1
		c-0.2,0.3-0.7,0.5-1.4,1.3c-0.2,0-0.4,0-0.7-0.1c-0.1-1-0.1-1-0.1-1.9c-0.2-0.1-0.3-0.1-0.5-0.2c-0.2,0.4-0.4,0.8-0.6,1.2
		c-0.1,0-0.1,0-0.2,0c-0.1,0-0.1-0.1-0.2-0.1c0-0.3,0.1-0.7,0.1-1c-0.2-0.1-0.5-0.2-0.7-0.3c-0.5,0.7-0.5,0.8-0.2,1.7
		c0,0.1-0.1,0.1-0.1,0.2c0.1,0.2,0.1,0.3,0.2,0.5c-0.2,0.3-0.3,0.6-0.5,0.9c-0.4-0.1-0.4-0.1-0.6-0.3c0.1-0.6,0.1-0.8-0.2-1.3
		c0.3-0.7,0.6-1.9,0-2.5c0.1-0.9,0.1-0.9,0.5-1.8c-0.2-0.3-0.3-0.6-0.5-0.9c0.9-0.6,1.7-1.5,0.6-2.3c0-0.4-0.1-0.5,0.1-0.8
		c0.2-0.1,0.4-0.1,0.5-0.2c0.2-0.6,0.4-1,0.8-1.5c0-0.9,0.2-1.9,1.2-2c0.6-0.9,2-1.4,1.4-2.7c0.2-0.4,0.3-0.5,0.7-0.7
		c0.3-0.5,0.5-0.9,0.8-1.4c1-0.8,1.1-0.7,0.7-1.9c0.5-1.3,0.5-1.3,0.9-1.9c0.3-1.1,0.3-1.1,0.5-1.5c1.5-1.3,1.4-2.5,2.3-4.3
		c2.5-2.3,3-6.1,4.9-8.8c0.4-0.8,0.8-1.6,0.9-2.4c-0.8-3.8-3.7-2.2-6.2-0.9c-1.2,1.7-1.2,1.7-1.6,2c-0.5,1.1-0.5,1.1-1.1,2.8
		c0,1.5,0.4,3.4-1.2,4c-1.1,1-0.5,0.3-0.7,1.8c-1,0.8-1.1,1.4-1.5,2.6c-0.1,1.1-0.6,1.3-1,2.3c0.1,0.6-0.4,0.8-0.6,1.3
		c0.2,0.3,0.3,0.6,0.5,0.9c0,0.1-0.1,0.2-0.1,0.3c-1.3,0.1-1.3,0-2,1c-0.7,2-1.1,3.6-1.9,5.4c0,0.1,0.1,0.3,0.1,0.4
		c0.7,0.3,1.6,1.4,1.1,2.1c-0.2,0-0.5,0-0.7,0c-0.1,0.2-0.1,0.3-0.2,0.5c0.2,0.2,0.5,0.5,0.7,0.7c-0.5,0.9-0.6,1.5-0.9,2.5
		c0.2,0.2,0.4,0.4,0.7,0.6c-0.3,0.5-0.9,0.4-1.4,0.7c-0.3,0.4-0.6,0.9-1,1.3c-0.6-0.1-0.6-0.1-0.9-0.3c0-0.2,0.1-0.4,0.1-0.6
		c-0.7-0.9-0.2-1.8-1.8-1.7c-1.7,0.7-2,0.1-3.5-0.9c-0.5-1.2-0.6-2.6-1-3.9c0.3-1.2,0.3-1.2,0.3-1.5c1-1.7,1.3-1.9,1.7-2.7
		c0.1-0.5,0.7-2,1.8-5.3c0-0.5-0.2-0.9-0.2-1.4c0.6-0.9,0.1,0.8,0.6-0.2c0-1.2,0.4-2.4,0.8-3.5c0.9-1.1,1.3-1.7,0.5-2.8
		c0.1-0.1,0.1-0.2,0.2-0.3c1.9-0.1,2.8-3.4,3.5-4.8c1-3.2,2.1-6.4-2.3-7c-2.6,1-3.2,2.6-4,5.2c-0.1,1.1-0.7,2.1-1,3.2
		c0.2,1.6,1.3,2.1-0.5,2.5c-0.6,0.8-1,1.7-1.4,2.6c0,1.8-0.5,0.7-1,2.4c0,1.7-0.8,2.6-2,3.7c-0.2,0.6-0.2,0.6-0.4,1.6
		c0.1,1.2-0.4,2.6-0.7,3.8c0.5,1.6-1.9,2-0.6,3.4c0.1,0.5,0,1-0.2,1.5c-1,0.4-1,0.4-1.3,0.7c-1.5,2.5-3.6,3.6-2.9,6.8
		c-0.2,0.4-0.3,0.4-0.6,0.8c0.1,0.4,0.2,0.6,0.6,0.9c0,0.1-0.1,0.3-0.1,0.4c-0.4-0.2-0.8-0.4-1.3-0.5c-0.7,0.3-0.7,0.3-1.4,0.4
		c-1.6-0.1-2.4,0.4-3.6,1.5c-1.9,0.8-2.4,1.3-3.1,3.2c-0.5,0.5-1.4,1.1-2.2,1.2c-0.6-0.4-0.6-0.4-1.1-0.5c-0.3,0.2-0.3,0.2-0.9,0.8
		c-0.5,0-0.7,0.2-1.2,0.4c-0.1-0.1-0.2-0.1-0.3-0.2c-0.3-1.3-0.4-2.3-1.7-2.9c-0.4,0-0.4,0-1-0.1c-0.3-1.6-0.2,3,0.4,1.2
		c0-0.4-0.1-1.2-0.2-1.6c-1.2-0.9,0.7-1.4,1.2-2.3c-0.4-0.3-0.8-0.3-1.2-0.4c0.1-0.6,0.1-1,0.1-1.5c0.9-0.9,1.4-1.9,1-3.2
		c0.2-0.3,0.3-0.6,0.5-0.9c0-0.4-0.1-0.8-0.1-1.2c0.4-1.9-0.2-4.1-0.9-5.9c-0.2-0.9-0.2-0.9-0.5-1.8c-1.5-1.2-4.2-3.8-6.2-2.3
		c0,0-0.1,0-0.1-0.1c-0.2,0.7-0.4,1.4-0.7,2.1c0.3,2,0.1,3.9-0.2,5.9c0.1,1.6,0.5,2.8,1,4.3c0.6,0.5,0.6,0.9,0.7,1.6
		c0.9,2,2.5,2.2,1.2,4.5c0,1.2,0.3,2.7,1.3,3.4c0.2,0.4,0.4,0.8,0.6,1.1c0.1,0.6-0.5,0.9-0.7,1.4c0.1,0.1,0.3,0.2,0.4,0.2
		c0.1,0,0.2-0.1,0.3-0.1c0.2,0.1,0.5,0.3,0.7,0.4c-0.3,0.3-0.3,0.3-0.9,0.6c-0.1,0.3-0.3,0.7-0.4,1c0.4,2.3-0.3-1.5,0.3,0.7
		c-0.7,1.6,0.3,4.3,0.7,6c-0.2,0.7-0.2,1.4,0.2,2c-0.4,0.9-0.4,0.9-0.5,1.3c0.3,1.1,0.7,2.9,1.5,3.7c0.1,0.2,0.1,0.4,0.2,0.6
		c0.1,2.1,2.1,2.3,0.7,4.4c1.4,1.1,1.4,1.1,2.3,1.8c1.3,1.3,3,1.2,4.6,1.9c0.3,0.4,0.6,0.7,0.8,1.1c-0.4,1.3,0.2,1.6,0.6,2.9
		c-0.1,0.3-0.4-0.2-0.5,0.1c0.7,0.1-0.4,0.6,0.2,0.8c0.3-0.2,0.8,0.3,1.3,0.4C443.3,95.5,443.9,95.9,444.4,95.8"/>
	<path fill="#102C4A" d="M369.4,81.6c0-0.1-0.1-0.3-0.1-0.4c0.3-0.3,0.4-0.3,0.7-0.7c0.2,0.3,0.4,0.5,0.6,0.8
		C370.1,81.6,370,81.8,369.4,81.6 M389.5,69.8c-0.2,0.1-0.3,0.2-0.5,0.3c-0.5-0.5-0.5-0.6-0.7-1.1c0.1-0.1,0.3-0.2,0.4-0.3
		C389,69.2,389,69.4,389.5,69.8 M390.5,65.3c0-0.3,0.4-0.7,0.5-1.1c0.1,0.1,0.2,0.1,0.3,0.2c0.4-0.3,0.2-0.6,0.8-0.5
		c-0.2,0.2-0.3,0.5-0.5,0.7c0,0,0.1,0.1,0.1,0.2C391.5,65,390.8,65.3,390.5,65.3 M387.8,64.5c-0.5,0-1.6-0.4-1.2-1
		c0.1,0,0.2,0,0.3,0C387.2,63.8,387.7,64,387.8,64.5 M386.5,62.5c-0.1,0.2-0.2,0.5-0.3,0.7c-0.2,0-0.2,0-0.7-0.4
		c0.1-0.2,0.2-0.3,0.3-0.5C386.1,62.5,386.1,62.5,386.5,62.5 M389,61.2c0.3-0.3,0.5-0.5,0.8-0.7c0.2,0,0.4,0.1,0.6,0.1
		C390.5,61.1,389.3,61.3,389,61.2 M397.5,80.9c0.1-0.1,0.1-0.1,0.2-0.2c0.1,0.1,0.2,0.1,0.2,0.2c0.1-0.1,0.2-0.2,0.3-0.3
		c0.4,0.3,0.8,0.7,1.1,1c-0.6,0.1-1.2-0.2-1.8-0.4c-0.1,0.1-0.2,0-0.4,0.1c-0.1-0.1-0.3-0.2-0.4-0.3c-0.1,0-0.1,0.1-0.2,0.1
		c-0.4-0.3-0.7-0.6-1.1-0.8C396.1,80,397.1,80.5,397.5,80.9 M400.8,54c-0.1,0.1-0.3,0.2-0.4,0.3c-0.3-0.2-0.7-0.4-1-0.6
		c0.1-0.2,0.1-0.3,0.2-0.5c0.2-0.1,0.5-0.1,0.7-0.2C400.7,53.3,400.7,53.5,400.8,54 M382.5,60.3c0.2,0.2,0.4,0.4,0.7,0.5
		c-0.1,0.1-0.1,0.2-0.2,0.3c0.3,0.3,0.3,0.7,0.3,1.1c0,0,0,0.1,0.1,0.1c0.2,0.2,0.2,0.2,0.2,0.5c-0.7,0.6-1.3,1.2-2,1.8
		c-0.2-0.4,0-0.9,0.1-1.3c-0.2,0-0.4,0-0.6,0c-0.1-0.2,0.1-0.5,0.1-0.7c-0.1,0-0.2,0.1-0.3,0.2c-0.1-0.1-0.2-0.2-0.3-0.3
		c0.4-0.7,0.6-0.7,0.7-0.9c-0.1-0.1-0.3-0.2-0.4-0.3c0.2-0.7,0.1-1.4,0.3-2.1c-0.1-0.1-0.2-0.1-0.2-0.2c0.1-0.3,0.2-0.9,0.7-0.8
		c0.3,0.4,0.7,1.6,1,1.9C382.7,60.2,382.6,60.3,382.5,60.3 M378.3,65.2c-0.1,0.1-0.1,0.1-0.2,0.2c0.1,0.1,0.2,0.2,0.3,0.3
		c0,0.1,0,0.2,0,0.4c-0.2-0.2-0.4-0.4-0.7-0.6c-0.1,0.1-0.2,0.2-0.4,0.3c-0.2-0.1-0.3-0.2-0.4-0.4c0.4-0.4,0.5-0.3,1-0.5L378.3,65.2
		 M405.1,36c-0.2,0.1-0.4,0.2-0.5,0.3c-0.3-0.1-0.6-0.2-0.9-0.3c-0.1-0.6-0.4-0.8-0.4-1c-0.3-0.1-0.8,0-1.1,0.1
		c-0.1,0.1-0.1,0.2-0.2,0.4c-0.1-0.1-0.2-0.2-0.3-0.3c0.1-0.1,0.2-0.2,0.3-0.3l-0.3-0.1c-0.2,0.3-0.5,0.6-0.7,0.9
		c0.2,0.2,0.5,0.6,0.7,0.9c-0.1,0.2-0.3,0.4-0.5,0.7c0,0.1,0.1,0.1,0.1,0.2c-0.2,0.4-0.4,0.5-0.8,0.8c0.1,0.3,0.1,0.3,0.3,0.5
		c-0.1,0.2-0.2,0.3-0.2,0.5c-0.3-0.2-0.6-0.3-0.9-0.5c0,0,0.1-0.1,0.1-0.1c-0.5-0.6,0.3-1.5,0.6-2c-0.4-0.7-0.1-1.1,0.2-1.8
		c-0.1-0.1-0.2-0.2-0.3-0.3c0.6-0.9,1-2.6,2.4-2.1c0.4-0.4,0.4-0.4,1.3-0.8c0.4,0.1,1.3,0.4,1.7,0.3c0.1,0.2,0.1,0.2,0,0.3
		c0.8,0.6,0.8,1.1,0.3,1.8c-0.1-0.1-0.1-0.1-0.2-0.2c-0.1,0.1-0.1,0.1-0.2,0.2c-0.2,0-0.3-0.1-0.5-0.1c-0.3,0.7-0.3,0.7-0.8,1.5
		c0.2,0.2,0.2,0.2,0.7,0.3C405,35.8,405.1,35.9,405.1,36 M376.1,67.3c-0.1,0.1-0.2,0.2-0.3,0.3c-0.2-0.1-0.4,0-1.1-0.1
		c0.1-0.2,0.1-0.4,0.2-0.6c-1.2-1.1-1.2-1.1-1.3-1.4c0-0.1,0.1-0.2,0.1-0.3c0.1,0.1,0.1,0.1,0.2,0.2c0.1-0.1,0.1-0.1,0.2-0.2
		c-0.5-0.5-0.5-0.7-0.1-1.2c-0.1-0.4-0.1-0.7-0.2-0.8c0.1,0,0.1-0.1,0.2-0.1c0.8,0.7,1.7,2,1.9,3c-0.2,0.2-0.4,0.4-0.6,0.7
		c0.3,0.1,0.5,0.2,0.8,0.3C376.2,67.1,376.2,67.2,376.1,67.3 M369.9,57.9c-0.1,0-0.3,0.1-0.4,0.1c-0.1-0.1-0.2-0.1-0.2-0.2
		c-0.1,0.1-0.2,0.2-0.3,0.3c-0.3-0.2-0.6-0.5-0.8-0.7c0.1-0.1,0.3-0.3,0.4-0.4c0.2,0.1,0.4,0.3,0.6,0.4c0.1-0.1,0.2-0.2,0.3-0.3
		c0.1,0,0.1,0.1,0.2,0.1C369.7,57.6,369.7,57.7,369.9,57.9 M371.5,55.2c0.1-0.2,0.3-0.5,0.4-0.7c-0.1-0.1-0.2-0.2-0.2-0.3
		c0.1-0.2,0.2-0.4,0.3-0.6c0.5,0.6,0.3,0.8,0.5,1.6c0.8,0.9,0.4,0.6,0.2,1.5c0.1,0.1,0.1,0.1,0.2,0.2c0,0.1-0.1,0.1-0.1,0.2
		c0.3,0.6,0.2,1,0.1,1.5c-0.1,0-0.2,0.1-0.4,0.1c-0.3-0.5-0.4-2.1-0.3-2.8c-0.2-0.1-0.3-0.2-0.5-0.4c0.1-0.1,0.1-0.1,0.2-0.2
		C371.7,55.3,371.6,55.2,371.5,55.2 M370.3,55c0.1-0.1,0.1-0.2,0.2-0.3c0-0.5,0-0.5,0.2-1.2c-0.1-0.1-0.2-0.2-0.3-0.3
		c0.3-0.4,0.1-1-0.3-1.3c-0.1,0.1-0.2,0.1-0.3,0.2c-0.6-0.2-0.9-0.2-1.4-0.5c-0.1,0.1-0.1,0.1-0.2,0.2c-0.1-0.1-0.1-0.1-0.2-0.2
		c0.1-0.2,0.1-0.2,0.8-0.9c0.7,0.2,1.2-0.5,1.6-0.9c0-0.1-0.1-0.1-0.1-0.2c0.2-0.4,0.4-0.8,0.6-1.3c-0.1-0.1-0.1-0.1-0.2-0.2
		c0.4-0.5,0.7-0.7,1.6-2c0.1,0.1,0.3,0.2,0.4,0.3c0.1,0,0.1-0.1,0.2-0.1c-0.2-0.2-0.3-0.3-0.5-0.4c0.5-0.6,0.6-1.2,1.5-1.1
		c0.1-0.5,0.4-0.6,0.9-0.6c0.3-0.7,0.4-0.9,0.9-1.4c0.2,0.1,0.4,0.1,0.6,0.2c1.7,1.4,4.9,2.4,5.3,4.6c0.8,1-0.2,2.2,0.4,3.3
		c-0.2,0.5-0.4,1.1-0.6,1.6c0.1,0.1,0.2,0.2,0.3,0.3c-0.2,0.6-1.2,2.9-1.9,2.9c0-0.1-0.1-0.2-0.1-0.2c-0.1,0.1-0.1,0.1-0.2,0.2
		c0.1,0.6,0.3,0.6,0,1.2c0.1,0.1,0.1,0.1,0.2,0.2c-0.1,0.1-0.2,0.3-0.3,0.4c0.3,0.3,0.4,0.6,0.2,1c0.1,0.1,0.2,0.3,0.3,0.4
		c-0.2,0.2-0.3,0.4-0.5,0.6c0.6,0.6,0.6,0.7,0.3,1.5c-0.1,0-0.1,0.1-0.2,0.1c0.2,0.2,0.3,0.5,0.5,0.7c-0.2,0.4-0.4,0.6-0.3,1
		c-0.1,0.1-0.2,0.2-0.3,0.3c-0.1,0-0.2-0.1-0.3-0.1c-0.1,0.2-0.2,0.3-0.3,0.5c0,0.1,0,0.1,0,0.2c-0.3,0.2-0.5,0.4-0.8,0.7
		c-0.2-0.2-0.4-0.3-0.6-0.5c-0.5-0.4-0.7-0.5-0.9-1.1c-0.2,0-0.3,0-0.5,0c0,0.1-0.1,0.2-0.1,0.3c-0.1,0-0.2-0.1-0.3-0.1
		c-0.1,0.2-0.2,0.4-0.2,0.6c0.2,0.4,0.4,0.6,0.4,1.1c-0.2-0.2-0.5-0.3-0.7-0.5c0-0.1,0-0.1,0-0.2c-0.3-0.2-0.5-0.5-0.8-0.7
		c0.1-0.1,0.1-0.1,0.2-0.2c-0.3-0.2-0.5-0.4-0.8-0.6c0.5-0.8,2-2.6,3.1-2.6c-0.2-0.2-0.4-0.3-0.7-0.5c-2.2,2.3-2.2,2.3-2.7,2.6
		c-0.1-0.1-0.2-0.2-0.2-0.3c0.2-0.5,0.1-0.9,0.3-1.4c0.1,0,0.2,0.1,0.3,0.1c0-0.2,0-0.2-0.5-0.6c0.5-0.8,1.9-3.1,1.5-3.8
		c-0.5,0.8-1,1.5-1.5,2.3c-0.1-0.1-0.3-0.2-0.4-0.3c-0.1,0.1-0.1,0.1-0.2,0.2c0.7,0.8,0.5,1.1-0.1,1.8c-0.1,0-0.1-0.1-0.2-0.1
		c-0.1,0.2-0.1,0.3-0.2,0.5c0.2,0.1,0.3,0.3,0.5,0.4c-0.2,0.1-0.3,0.2-0.5,0.4c0.2,0.2,0.2,0.4,0.5,0.6c0,0.2-0.1,0.4-0.1,0.6
		c0.1,0.1,0.2,0.2,0.3,0.3c-0.2,0.5-0.2,1.3-0.6,1.6c0.1,0.1,0.1,0.3,0.2,0.5c-0.4,0.3-0.4,0.3-0.9,0.5c0.1,0.1,0.1,0.2,0.2,0.3
		c-0.1,0-0.1,0.1-0.2,0.1c-0.4-0.1-0.9-0.2-1.2-0.5c0.1-0.1,0.1-0.2,0.2-0.3c-0.6-0.1-1.3-0.5-1.8-0.8c0-0.2,0.1-0.3,0.1-0.5
		c-0.1-0.1-0.2-0.1-0.3-0.2c0.1-0.1,0.1-0.2,0.2-0.3c-0.7-0.4-1,0.1-1.5-0.2c-0.3,0.3-0.5,0.5-0.6,0.9c-0.2-0.2-0.2-0.2-0.5-0.2
		c-0.8-0.7-2.2-1.5-2.8-2.4c-0.1,0.1-0.2,0.2-0.3,0.3c-0.2-0.2-0.4-0.3-0.6-0.5c-0.2,0.1-0.4,0.3-0.6,0.4c0.4,0.4,0.9,0.7,1.3,1.1
		c0,0.1-0.1,0.1-0.1,0.2c0.1,0.2,0.1,0.2,0.4,0.2c0.1-0.1,0.2-0.2,0.2-0.2c0.4,0.3,0.4,0.5,0.6,0.9c-0.1,0.2-0.2,0.3-0.3,0.5
		c0.2,0.5,0.3,0.7,0.7,1.1c0,0.1-0.1,0.1-0.1,0.2c0.2,0.2,0.2,0.2,0.7,0.2c0,0.1,0.1,0.2,0.1,0.2c1,0.2,1.7,0.9,2.5,1.5
		c0.1-0.1,0.1-0.1,0.2-0.2c0.2,0.1,0.4,0.3,0.6,0.4c0.1,0,0.2,0,0.2-0.1c0.2,0.1,0.4,0.3,0.7,0.4c0,0.1,0,0.3-0.1,0.4
		c0.1,0.1,0.1,0.1,0.2,0.2c-0.1,0.1-0.1,0.1-0.2,0.2c-0.2-0.1-0.3-0.2-0.4-0.4c-0.2,0-0.3,0.1-0.5,0.2c0.2,0.2,0.5,0.5,0.7,0.7
		c-0.1,0.1-0.1,0.1-0.2,0.2c0.4,0.1,0.4,0.1,1.3,0.7c-0.1,0.1-0.1,0.1-0.2,0.2c0.1,0.1,0.2,0.1,0.3,0.2c-0.2,0.2-0.4,0.4-0.6,0.6
		c-0.1-0.1-0.2-0.2-0.3-0.3c-0.4,0.3-0.8,0.6-1.4,0.5c-0.2,0.3-0.4,0.7-0.6,1c-0.1,0-0.1,0-0.2-0.1c-0.1,0.1-0.1,0.2-0.2,0.3
		c0.4,0.4,0.8,0.8,1.2,1.2c-0.5,1.4-1.2,2.6-2.3,3.6c0.7,0.7-1.5,2.2-2.2,2.4c-0.6-0.3-0.8-0.7-1.2-1.2c0.1-0.1,0.1-0.2,0.2-0.3
		c-0.4-0.2-0.4-0.2-1-0.4c-0.4-0.4-0.8-0.7-1.2-1c0.1-0.3,0.4-0.6,0.2-0.9c0.1-0.1,0.3-0.2,0.4-0.4c-0.2-0.2-0.4-0.3-0.6-0.5
		c-0.1-0.1-0.1-0.1,0.3-0.6c-0.3,0-0.3,0-0.5-0.2c0-0.1,0.1-0.2,0.1-0.2c0-0.1-0.1-0.1-0.1-0.2c0-0.1,0-0.1-0.5-0.9
		c-0.4,0-0.4,0.1-0.6,0.4c0.1,0.4,0.6,0.5,0.9,0.7c-0.5,0.6-0.4,0.6,0.3,1.2c0,0.1-0.1,0.3-0.1,0.4c-0.2-0.1-0.4-0.1-0.6-0.2
		c-0.2,0.1-0.3,0.3-0.5,0.4c-0.5-0.4-1-0.7-1.4-1.2c0-0.1,0.1-0.1,0.1-0.2c-0.1,0-0.1-0.1-0.2-0.1c0.1-0.2,0.2-0.3,0.3-0.5
		c-0.1-0.1-0.2-0.1-0.2-0.2c0.2-0.4,0.4-0.8,0.6-1.2c-0.1-0.1-0.1-0.1-0.2-0.2c0.3-0.6,0.3-0.9,0.3-1.6c0.4-0.5,0.8-0.9,1.2-1.3
		c0.1,0.1,0.1,0.1,0.2,0.2c0.1,0,0.1-0.1,0.2-0.1c0.2,0.1,0.3,0.2,0.5,0.3c0.2-0.1,0.2-0.1,0.5-0.4c-0.1-0.1-0.2-0.1-0.3-0.2
		c-0.5,0.2-0.5-0.1-0.9-0.4c0.2-0.3,0.2-0.3,0.5-0.3c-0.2-0.4-0.1-0.6,0-1c-0.2-0.2-0.4-0.3-0.7-0.4c0.2-0.7,0.4-1.4,0.7-2.2
		c-0.1-0.1-0.1-0.1-0.2-0.2c0.1-0.5,0-1,0.1-1.3c-0.7-0.7-0.7-2.5,0.6-2.2c0-0.1,0.1-0.2,0.1-0.2c-0.1-0.1-0.2-0.3-0.3-0.4
		c0.4-0.5,1.1-0.9,1.8-0.8c0.2-0.2,0.4-0.4,0.6-0.6c-0.1-0.3-0.8-1-1-1.4c0.4-1.2,0-1.7,1.1-2.5c-0.6-1.3,2.6-3.2,3.5-3.4
		c0.1,0.1,0.3,0.2,0.4,0.3c-0.3,0.4-0.3,0.4-0.3,0.9c0.1,0,0.2,0,0.3,0c0.1,0.1,0.2,0.2,0.2,0.4c-0.2,0-0.2,0-0.5,0.1
		c-0.2-0.2-0.4-0.3-0.6-0.5c-0.7,0.3-1,1-1.5,1.6c0.1,0.1,0.2,0.2,0.3,0.3c-0.1,0.1-0.2,0.2-0.3,0.3c1.9,1,1.7,1,3.3,0
		c-0.1-0.5-0.4-0.6-0.1-1.2c0.2,0,0.2,0,0.4-0.1C369.9,54.4,369.8,54.8,370.3,55 M370,40.5c-0.1,0.1-0.2,0.2-0.3,0.3
		c-0.2,0-0.4,0-0.7,0c-0.3-0.7-0.3-1.1-0.6-1.7c0.1-0.2,0.5,0.2,0.6,0.4C369.6,39.6,369.7,40,370,40.5 M358.6,48.6
		c-0.3,0-0.3,0-0.7-0.3c-0.1,0-0.1,0.1-0.2,0.1c-0.2-0.1-0.4-0.3-0.6-0.4c0.1-0.1,0.2-0.3,0.3-0.4C357.8,47.9,358.2,48.2,358.6,48.6
		 M366.8,37c1.4,0.3,2.6-1.5,3.7-2.1c3.6,1.7,3,3.7,5.1,6.8c-0.1,0.5-0.8,0.8-1.2,1.1c-0.2-0.1-0.3-0.2-0.5-0.3
		c-0.5,0.3-0.8,0.5-1.4,0.7c-0.5-0.3-0.5-0.3-1.1-0.2c-0.1-0.2-0.1-0.2,0-0.4c-0.5-0.2-0.8,0.3-1.3,0.1c0,0.1-0.1,0.1-0.1,0.2
		c-0.2-0.1-0.5-0.3-0.7-0.4c-0.1,0.1-0.2,0.3-0.4,0.4c-0.9-0.7-1.7-1.2-2.3-2.2c0.1-0.2,0.2-0.5,0.3-0.7c-0.3-0.1-0.5-0.2-0.8-0.1
		c-1.5-1.2-1.1-1.1,0.1-2.5c-0.1-0.1-0.2-0.2-0.4-0.2c-0.1,0-0.1,0.1-0.2,0.1c-0.1-0.1-0.2-0.2-0.3-0.3c1-1.1,2.2-1.7,3.3-2.8
		c0.2,0.1,0.3,0.2,0.5,0.3C368.6,35.5,367.1,36.1,366.8,37 M354,41.7c-0.2-0.4,0.2-0.7-0.1-1.2c-0.5,0.5-0.8,0.9-1.1,1.6
		c-0.5-0.1-1.1,0.9-1.4,1.2c0,0,0.1,0.1,0.1,0.2c0.4,0,0.7-0.3,1.1-0.2c0.5-0.4,0.8-0.8,1.2-1.2c0.1,0.1,0.3,0.3,0.5,0.5
		c-0.9,1-2,1.7-2.1,3.1c0.1,0.2,0.1,0.2,0,0.3c0.7,0.5,1.5,1.4,2.3,1.5c1.2,1.4,2.4,2.1,4,3c0.4-0.1,0.4-0.1,0.9-0.5
		c0.1,0,0.2,0.1,0.3,0.1c0.4-0.9,0.4-0.9,0.7-1c0.4,0.1,0.6-0.1,0.9-0.3c-0.1-0.1-0.1-0.2-0.2-0.3c0-0.1,0.1-0.1,0.1-0.2
		c0.2,0.2,0.2,0.2,0.4,0.1c-0.2-0.3-0.2-0.3-0.2-0.5c0.2,0.1,0.4,0.2,0.6,0.4c0.1-0.1,0.1-0.1,0.2-0.2c-0.2-0.2-0.2-0.2-0.1-0.4
		c0.1,0,0.1,0.1,0.2,0.1c0.1-0.2,0.2-0.3,0.2-0.5c-0.5-0.4-0.6-0.7-0.8-1.3c-0.3-0.2-0.6-0.5-0.8-0.7c0.1-0.1,0.1-0.1,0.2-0.2
		c-0.7-0.8-1.2-1.5-1.9-2.2c-0.1,0-0.1,0.1-0.2,0.1c-0.8-0.7-1.6-1.5-2.7-1.8c-0.1,0.1-0.1,0.1-0.2,0.2
		C354.9,40.9,354.9,41,354,41.7 M363.8,29.5c-0.5,0.6-0.8,1.1-1.1,1.5c-0.1-0.1-0.2-0.2-0.3-0.3c-0.1,0.1-0.1,0.1-0.2,0.2
		c0.2,0.4,0.3,0.5,0.2,0.9c0.1,0.1,0.1,0.2,0.2,0.3c1.3-2.2,1.3-2.2,1.5-2.4C364,29.6,363.9,29.5,363.8,29.5 M364,29.3
		c0.1,0,0.1,0,0.2-0.1c0.4,0.3,0.7,0.6,1.1,0.9c0,0.1,0,0.2,0,0.3c0.4,0.3,0.7,0.6,1.1,0.9c0,0,0,0.1,0,0.2c0.8,0.6,1.6,0.9,2.3,1.5
		c-0.4,0.5-1.4,2-2.2,1.7c-0.7,0.7-1.5,2.1-2.6,1.3c0-0.1,0.1-0.2,0.1-0.2c-0.1-0.1-0.2-0.2-0.2-0.3c-0.1,0.1-0.1,0.1-0.2,0.2
		c-0.2-0.2-0.3-0.3-0.5-0.5c0-0.1,0.1-0.1,0.1-0.2c-0.2-0.1-0.3-0.1-0.5-0.2c-0.1,0-0.3,0.1-0.4,0.1c-1.4-0.9-2.4-2.9-3.8-4.1
		c-0.1-0.4-0.1-0.4,0.1-0.9c-0.1-0.1-0.1-0.1-0.2-0.2c0.4-0.6,1-0.9,1.5-1.4c0.1,0,0.2,0.1,0.3,0.1c0.1-0.1,0.2-0.3,0.3-0.4
		c0.1,0.1,0.2,0.1,0.3,0.2c0.2-0.4,0.4-0.5,0.8-0.7c0.1,0.1,0.3,0.2,0.4,0.4c0.1-0.1,0.2-0.2,0.4-0.3c1,0.2,1.1,0.3,1.6,1.2
		c-0.1,0.1-0.1,0.1-0.2,0.2C363.9,29.2,363.9,29.2,364,29.3 M342.3,50.5c0.1,0,0.2,0.1,0.4,0.1c0.1-0.1,0.3-0.2,0.4-0.3
		c-0.7-0.6-1.5-1.2-2.2-1.8c-0.4,0.2,1.1,1.3,0.8,1.2c-0.1,0.1-0.1,0.2-0.2,0.4c0.3,0.1-1-0.8-0.7-0.6c0.1-0.2,0.2-0.3,0.2-0.5
		c0.2,0.3,0.5,0.5,0.7,0.8c-0.6,0.4-0.5,0.5-0.6,1.1C341.7,51.1,342,50.9,342.3,50.5 M345.8,54.7c-0.1,0.1-0.2,0.3-0.4,0.4
		c-0.4-0.4-0.6-0.7-1.1-1.1c-0.1,0.1-0.2,0.2-0.3,0.4c-2.4-1.7-3.5-1.6-5.8-3.6c0.5-1.1,1.3-1.2,2.1-1.9c0.1,0,0.1,0.1,0.2,0.1
		c0.3-0.4,0.5-0.8,0.8-1.2c0.3,0.1,0.3,0.1,0.8,0c0.3,0.2,0.7,0.5,1,0.7c0,0.1-0.1,0.1-0.1,0.2c0.9,1,0.6,0.8,1.4,1.8
		c-0.1,0.2-0.2,0.3-0.2,0.5c0.4,0.3,0.4,0.3,0.8,0.8c-0.4,0.4-0.1,0.7,0.2,1.1c0.1-0.1,0.1-0.1,0.2-0.2c-0.1-0.1-0.2-0.2-0.3-0.2
		c0.2-0.2,0.4-0.4,0.6-0.5c0.2,0.2,0.4,0.3,0.6,0.5c-0.2,0.4-0.4,0.7-0.6,1.1c0.1,0.1,0.3,0.3,0.4,0.5
		C346,54.2,345.9,54.4,345.8,54.7 M352.4,23l0.6,0.4c0.2-0.2,0.3-0.4,0.5-0.6c0.1,0,0.1,0,0.2,0.1c0.2-0.2,0.4-0.3,0.6-0.5
		c0.1,0.1,0.2,0.1,0.3,0.2c-0.2,0.4-0.4,0.8-0.6,1.3c0,0.1,0.1,0.2,0.1,0.3c-0.8,0.4-1.3,1.3-0.5,1.9c0,0.4,0.1,0.8,0,1
		c1.3,0.8,2.3,1.7,3.6,2.5c1.6-0.3,3.7-2.4,4-3.9c-0.7-1.2-1.3-2-2.5-2.9c-0.2,0.2-0.2,0.2-0.4,0.1c0-0.1,0.1-0.2,0.1-0.2
		c-1.1-0.8-2.2-1.2-3.4-1.6c-0.1,0.1-0.1,0.1-0.2,0.2c-0.5-0.1-0.5-0.1-1-0.4c-0.1,0.1-0.1,0.1-0.2,0.2c-0.1-0.1-0.2-0.1-0.2-0.2
		c-0.3,0.1-0.4,0.2-0.8,0.1c-0.5,0.5-0.6,0.9-0.9,1.6C352,22.6,352.2,22.8,352.4,23 M348.4,39.3c0.5,0.4,0.5,0.4,0.6,0.8
		c0.1-0.1,0.3-0.3,0.4-0.4c0.1,0,0.1,0,0.2,0.1c0.1-0.2,0.3-0.4,0.4-0.5c-0.2-0.1-0.4-0.2-0.6-0.2c0,0-0.1,0.1-0.2,0.1
		c-0.2-0.1-0.5-0.2-0.7-0.3C348.6,39,348.5,39.2,348.4,39.3 M348.4,39.4c-0.1-0.1-0.3-0.2-0.4-0.4c0.1-0.2,0.1-0.4,0.2-0.6
		c0.5-0.1,0.7,0,1-0.1c0.1-0.4,0.1-0.5-0.1-0.8c-0.6,0.1-0.6,0.2-1,0.6c-0.3-0.3-0.3-0.3-0.6-0.8c-0.5,0.3-0.6,0.2-1.1,0.8
		c0.3,0.2,0.6,0.5,0.8,0.7c0.1-0.1,0.1-0.1,0.2-0.2c0.1,0.1,0.2,0.2,0.3,0.3c0,0.1-0.1,0.3-0.1,0.4c0.4,0,0.4,0,0.7,0.2
		C348.3,39.5,348.3,39.4,348.4,39.4 M353.7,40.3c-0.4,0.3-1,0.6-1.4,1c-0.1-0.1-0.2-0.2-0.3-0.3c-0.1,0.2-0.6,0.7-1.7,2.1
		c-0.6-0.1,0.9,1,0.7,0.9c-0.1,0.1-0.1,0.1-0.2,0.2c-0.2-0.1-0.3-0.2-0.5-0.3c-0.1,0.1-0.2,0.2-0.3,0.4c-0.3-0.3-0.5-0.3-1.4-0.8
		c0-0.2,0-0.2-0.3-0.6c0-0.1,0.1-0.1,0.1-0.2c-1-0.7-2.3-1.6-2.8-2.7c-0.2,0-0.2,0-1.7-0.7c0.9-1.4,2.8-4.4,4.8-3.9
		c1.1,1,1.9,1.9,2.9,2.9c1.5,0.9,1.1,0.5,2.3,1.9C353.8,40.1,353.7,40.2,353.7,40.3 M338.5,49.6c0.1-0.2,0.2-0.3,0.2-0.5
		c-0.1-0.1-0.1-0.1-0.1-0.2c0.7-1.2,1.2-1.6,1.5-3c-3.2-3.1-3.3-3.3-4.3-4.2c-0.1,0-0.1,0-0.2,0c-0.2-0.2-0.3-0.4-0.5-0.6
		c-0.6,0-1.2-0.6-1.6-0.9c-0.3,0.1-1.7-0.2-2.1-0.4c-0.3,0.3-0.3,0.3-0.7,0.4c-1.5-0.1-2,0.9-2.3,2.1c0.1,0.1,0.1,0.2,0.2,0.3
		c-0.1,0.1-0.1,0.3-0.2,0.4c0.4,0.8,2.4,4.4,3.7,4.4c0.8,0.4,0.9,0.4,2.7,1.4c0.6,0.5,2.2,1.8,2.9,1.5c0.1,0.1,0.1,0.1,0.2,0.2
		C338.1,50.1,338.3,49.9,338.5,49.6 M343.1,37.2c0-0.1-0.1-0.1-0.1-0.2c0.8-1,1.4-1.8,2.3-2.6c-0.2-0.2-0.1-0.4-0.6-0.8
		c0.2-0.6,0.2-0.6,0.2-1.1c-0.1-0.2-0.3-0.3-0.4-0.5c0.1-0.1,0.1-0.1,0.2-0.2c-0.4-0.6-0.9-1.3-1.3-1.9c-2.8-2.3-2.8-2.3-3-2.3
		c-0.6-0.4-0.8-0.4-1.3-0.7c-0.1,0.1-0.1,0.1-0.2,0.2c-0.3-0.1-0.6-0.2-0.8-0.3c-0.1,0.1-0.1,0.1-0.2,0.2c-0.1-0.1-0.1-0.1-0.2-0.2
		c-0.1,0-0.1,0.1-0.2,0.1c-0.1-0.1-0.2-0.1-0.3-0.2c-0.4,0.3-1.1,0.5-1.7,0.3c-0.7,0.8-0.7,0.8-1.3,1.1c0.1,0.1,0.1,0.1,0.2,0.2
		c-0.2,1-0.6,1.7,0.2,2.6c-0.1,0.1-0.1,0.1-0.2,0.2c0.2,0.1,0.4,0.3,0.6,0.5c-0.1,0.1-0.1,0.1-0.2,0.2c0.3,0.2,0.6,0.5,0.9,0.7
		c-0.3,0.4,0.3,0.7,0.6,0.9c0,0.1,0,0.1-0.1,0.2c1.1,0.6,1.9,1.3,2.9,2.1c0.1-0.1,0.1-0.1,0.2-0.2c1.2,1.1,1.5,1.2,2.6,2.1
		c0.1-0.1,0.1-0.1,0.2-0.2c0.1,0,0.3,0.1,0.4,0.1C342.8,37.5,342.9,37.4,343.1,37.2 M355.3,72.2c-0.1,0.1-0.2,0.2-0.3,0.3
		c-0.2-0.1-0.3-0.1-0.5-0.1c-0.1,0.1-0.3,0.2-0.4,0.3c-0.6-0.5-1.2-1-1.8-1.4c-0.5,0.3-0.5,0.3-0.9,0.7c-0.2-0.1-0.5-0.2-0.7-0.3
		c-1,0.5-1.8-0.5-2.3-1.3c0.1-0.1,0.1-0.3,0.2-0.4c-0.3-0.4-1,1-1.1,1.2c-0.2-0.1-0.3-0.2-0.4-0.3c0-0.1,0-0.2,0-0.3
		c-0.2,0.2-0.4,0.5-0.6,0.7c-0.1-0.1-0.2-0.2-0.3-0.2c-0.1,0.1-0.1,0.1-0.2,0.2c-0.1-0.1-0.2-0.1-0.3-0.2c-0.1,0-0.1,0.1-0.2,0.1
		c-0.7-0.6-1.7-0.9-2.6-1.3c-0.1,0-0.1,0.1-0.2,0.1c-0.5-0.4,1.1,0.4,0.5,0.2c-0.1,0-0.1,0.1-0.2,0.1c-1.2-0.5-1.6-0.8-2.2-1.8
		c0-0.1,0.1-0.1,0.1-0.2c-0.1-0.1-0.1-0.2-0.2-0.3c-0.5,1-1.2,1.2-2.2,0.4c-0.5-0.1-0.5-0.1-1.5-0.1c-1-0.4-6.2-1.8-5.5-3.7
		c-1.5-1.4-1.5-2.4-0.3-3.9c0.5-0.2,1.1-0.3,1.4-0.5c0.1,0.1,0.1,0.1,0.2,0.2c0.7-0.2,1-0.1,1.6,0.3c0.1-0.1,0.1-0.1,0.2-0.2
		c0.3,0.2,0.8,0.4,1.1,0.2c0.9,0.6,1.8,0.7,2.7,1.4c1.1-0.1,2.7,1.8,3.4,2.6c-0.1,0.4-0.2,1.4,0,1.7c0.5-0.5,0.7-1.1,1.3-1.7
		c1.5,0.5,2,0.9,3.5,1.9c0-0.1,0.1-0.1,0.1-0.2c0.3,0.2-1.3-0.4-0.9-0.2c0.1,0,0.2-0.1,0.2-0.1c0.1,0,0.2,0.1,0.3,0.2
		c0-0.1,0.1-0.1,0.1-0.2c0.1,0.1,0.3,0.2,0.4,0.3c0.1,0,0.1-0.1,0.2-0.1c0.8,0.8,1.5,0.7,2.3,1.2c0.2-0.1,0.5-0.3,0.7-0.4
		c0.1,0.1,0.2,0.2,0.3,0.2c0.1,0,0.2,0,0.2-0.1c0.8,0.7,1.1,1.2,2.2,1.4c0.2,0.2,0.3,0.5,0.5,0.7c-0.1,0.2-0.2,0.3-0.2,0.5
		c0.3,0.2,0.6,0.5,0.9,0.7c-0.1,0.1-0.1,0.1-0.2,0.2c0.5,0.2,0.5,0.2,1.4,0.8C355.3,71.7,355.3,71.9,355.3,72.2 M352.4,58
		c0.1,0.1,0.3,0.2,0.4,0.3c0,0.1-0.1,0.2-0.1,0.3c0.8,0.6,1.4,0.9,2.2,1.4c0.2-0.1,0.3-0.2,0.5-0.3c-0.1-0.2-0.1-0.4-0.5-1.1
		c0.1-0.2,0.2-0.4,0.3-0.7c-0.2-0.2-0.4-0.5-0.7-0.7c-0.1,0.1-0.1,0.1-0.2,0.2c-0.1-0.1-0.2-0.1-0.2-0.2c-0.1,0.1-0.1,0.1-0.2,0.2
		c0.1,0.1,0.2,0.2,0.3,0.3c0,0.1,0,0.1-0.1,0.2c-0.5,0-0.8-0.2-1.3-0.1c-0.1-0.2-0.3-0.3-0.4-0.5c0-0.1,0.1-0.2,0.1-0.3
		c-0.2-0.1-0.3-0.2-0.4-0.4c0.5-0.5,0.8-0.7,0.6-1.4c0.1-0.1,0.2-0.3,0.2-0.4c-0.3-0.3-0.7-0.5-1-0.8c-0.1,0.1-0.2,0.3-0.3,0.4
		c-0.3-0.2-0.6-0.5-0.9-0.7c-0.7,0.7-0.9,0.7-2.2,2.1c0.2,0.3,0.4,0.5,0.6,0.8c-0.1-0.1-0.3-0.1-0.4-0.2c-0.4,0.6-0.4,0.6-0.4,0.8
		c0.3,0.3,0.7,0.6,1,0.9c0.1,0,0.1-0.1,0.2-0.1c0.8,0.6,1.1,0.1,2,0.8c0.1-0.1,0.1-0.1,0.2-0.2c0.1,0,0.1,0.1,0.2,0.1
		c0.2-0.4,0.2-0.4,0.3-1C352.1,57.8,352.2,57.9,352.4,58 M401.5,82.9c0.4-0.4,0.3-0.5,0.5-0.8c0.1-0.1,0.3-0.3,0.4-0.4
		c-0.1-0.1-0.2-0.1-0.2-0.2c0-0.1,0.1-0.2,0.1-0.3c0.2,0,0.3,0.1,0.5,0.1c0.1-0.1,0.2-0.1,0.3-0.2c0.1,0.1,0.2,0.1,0.3,0.2
		c0.1,0,0.1-0.1,0.2-0.1c0.1,0.1,0.3,0.2,0.4,0.4c0.5-0.6,1.2-0.5,1.6-1.3c0.7,0.1,0.9-0.5,1.3-0.9c0.1,0,0.2,0.1,0.4,0.2
		c0.9-1.1,1.5-1.4,1.8-2.8c0.7-0.4,1.1-1,0.7-1.8c0.3-0.4,0.5-0.8,0.8-1.1c-0.1-0.1-0.2-0.3-0.3-0.4c0.2-0.1,0.3-0.2,0.5-0.2
		c0.1-1.2,0.1-1.2,0.3-1.7c-0.2-0.4-0.2-0.5-0.1-1c-0.1-0.1-0.1-0.2-0.2-0.3c0.3-0.8,0.3-0.9-0.2-1.6c0-0.1,0.1-0.1,0.1-0.2
		c-0.1-0.1-0.2-0.1-0.2-0.2c0.6-1.5,0.2-2.8,0.9-4.1c-0.1-0.1-0.2-0.2-0.3-0.3c0.1-0.2,0-0.9,0.1-1c-0.1-0.1-0.2-0.2-0.3-0.3
		c0.5-0.5,0.8-2,0.3-2.6c0.2-0.8-0.6-1.5-1.2-2.1c0.6-1.3-0.8-4.1-1.4-5.2c0-0.2,0.1-0.5,0.2-0.7c-0.2-0.3-0.4-0.6-0.7-0.7
		c0.1-0.1,0.2-0.3,0.3-0.4c-0.1-0.1-0.2-0.3-0.2-0.4c0-0.1-0.1,2.7,0,2.6c-0.1-0.1-0.2-0.3-0.2-0.4c0-0.1,0.1-0.2,0.1-0.2
		c-0.1-0.1-0.2-0.2-0.2-0.3c0.1-0.2,0-0.3,0.2-1.5c-0.1-0.1-0.2-0.2-0.3-0.3c0.2-0.9-0.1-1.6,0.2-2.4c-0.3-0.7-0.1-1.9,0-2.6
		c-0.1-0.2-0.2-0.3-0.4-0.4c0.8-1.1,0.9-2.9,1.1-4.2c-0.1-1.3,0.3-2.4-0.5-3.5c0.1-0.9,0.1-1.5-0.6-2.2c-0.3,0.5-0.3,0.8-0.3,1.4
		c-0.8,0.6-1.1,1-1,2.1c-0.1,0.1-0.2,0.2-0.3,0.3c-0.1-0.1-0.3-0.1-0.4-0.2c0-0.1,0-0.1,0.1-0.2c-0.2-0.1-0.4-0.2-0.6-0.2
		c0-0.1,0.1-0.2,0.1-0.2c-0.7,0-0.9-0.1-1.5-0.5c-0.1,0.1-0.3,0.3-0.4,0.4c0.1,0.1,0.2,0.2,0.2,0.3c-0.2,0.4-0.2,0.5,0,0.9
		c-0.1,0-0.2,0.1-0.3,0.1c-0.1-0.1-0.2-0.1-0.4-0.2c-0.5,0.6-0.9,1.2-1.8,0.9c-0.1,0.1-0.3,0.3-0.4,0.4c0,0.3,0,0.3,0.2,0.6
		c0.1,0,0.2,0,0.3,0c0,0.5,0.8,1.3,1.3,1.4c0,0.1,0,0.1,0,0.2c0.1,0,0.2,0,0.3,0.1c-0.3,0.6-0.7,1.2-1.3,1.5c0,0.1,0,0.2,0,0.3
		c0.3,0.3,0.7,0.6,1,0.9c0.1-0.1,0.1-0.1,0.2-0.2c0.4,0.2,0.7,0.2,1.1,0.3c-0.1,0.3-0.3,0.3-0.6,0.5c-0.1,0-0.1,0-0.2-0.1
		c-0.1,0.1-0.2,0.2-0.3,0.3c0.1,0.1,0.1,0.1,0.2,0.2c-0.1,0.1-0.1,0.1-0.2,0.2c0.2,0.2,0.2,0.4,0.4,0.6c0.3-0.1,1.6,0.1,2,0.2
		c0,0.1-0.1,0.1-0.1,0.2c-0.4,0-0.9-0.1-1.2,0.2c0.3,0.6,0.3,0.6,0.7,0.9c0,0.1-0.1,0.1-0.1,0.2c0.4,0.3,0.5,0.5,0.7,1
		c0.5,0.3,1,0.4,1.4,0.8c-0.2,0-0.3,0-0.4,0c-0.2,0.6,0.1-2.2,0.5-1.8c-0.2,0.2-0.4,0.4-0.6,0.5c-0.4-0.1-0.4-0.1-0.6-0.3
		c-0.1,0-0.2,0.1-0.3,0.1c0-0.1,0-0.2-0.1-0.2c0.3-0.2,0.3-0.2,0.4-0.4c-0.4-0.3-1-0.4-1.3-0.1c-0.1-0.3-0.1-0.3,0-0.4
		c-0.2-0.1-0.4-0.2-0.6-0.3c-0.7,0.5-0.9,1.2-1.2,2c0.1,0.1,0.2,0.2,0.3,0.3c0.3-0.3,0.6-0.6,0.9-0.9c0.1,0.1,0.2,0.1,0.3,0.2
		c-0.1,0.5,0,0.6,0.1,1.1c-0.5,0.3-0.5,0.3-0.5,0.5c0.1,0.1,0.3,0.2,0.4,0.4c-0.2,0.3-0.4,0.7-0.7,1c0.1,0.1,0.1,0.1,0.2,0.2
		c-0.1,0.1-0.2,0.2-0.3,0.3c-0.2-0.1-0.3-0.2-0.4-0.4c-0.3,0.3-0.6,0.5-0.9,0.8c-0.1,0-0.1,0-0.2-0.1c0,0.6,0.1,0.9-0.1,1.5
		c0.2,0.2,0.4,0.4,0.6,0.6c0,0.1,0,0.2,0,0.4c-0.2-0.1-0.4-0.2-0.6-0.3c-0.1,0-0.2,0.1-0.2,0.1c-0.2-0.1-0.3-0.2-0.5-0.3
		c-0.1,0.1-0.1,0.2-0.2,0.3c-0.2-0.2-0.4-0.3-0.6-0.5c-0.6,0.1-1.1-0.1-1.6-0.3c-0.3,0.3-0.3,0.5-0.5,0.8c-0.1-0.3-0.3-0.6-0.4-1
		c-1.3-1-3.4-0.2-3.4,1.4c-0.6,0.9-0.5,1.4-1.5,0.4c0.3-0.5,0.5-1.1,0.8-1.6c-0.2-0.2-0.2-0.2-0.3-0.4c-0.5,0-1.1,0-1.6,0
		c0-0.4,0-0.4-0.1-0.7c-1.2-0.4-2.5-0.9-3.7-1.3c-0.1,0.1-0.2,0.2-0.4,0.3c-0.1-0.1-0.3-0.2-0.4-0.4c-0.1,0.1-0.1,0.1-0.2,0.2
		c-0.1-0.1-0.2-0.1-0.2-0.2c-0.1,0.1-0.1,0.1-0.2,0.2c-0.1-0.1-0.2-0.1-0.2-0.2c-0.3,0.2-0.4,0.1-0.8,0c-0.4,0.2-0.8,0.5-1.2,0.7
		c-0.1,0-0.1,0-0.2-0.1c-0.2,0.3-0.4,0.6-0.6,0.9c-0.1-0.1-0.2-0.1-0.3-0.2c-0.3,0.5-0.3,0.6-0.3,1.1c0,0.1-0.1,0.1-0.1,0.2
		c0.1,0.1,0.2,0.2,0.2,0.3c-0.1,0.1-0.2,0.3-0.3,0.4c0.1,0.1,0.2,0.1,0.3,0.2c-0.1,0.2-0.1,0.3-0.2,0.5c0.3,0.5,0.4,0.6,0.3,1.1
		c0.2,0.2,0.4,0.4,0.5,0.7c-0.1,0.1-0.1,0.1-0.2,0.2c-0.2-0.1-0.3-0.2-0.5-0.4c0,0.1-0.1,0.3-0.1,0.4c0.5,0.6,0.7,0.9,1.2,1.4
		c-0.1,0.1-0.3,0.2-0.4,0.4c0.2,0.2,0.3,0.4,0.5,0.5c0,0.1-0.1,0.1-0.1,0.2c0.6,0.5,0.6,1.2,1.2,1.7c-0.1,0.5,0.2,0.8,0.1,1.3
		c-0.1-0.1-0.3-0.1-0.4-0.2c-0.1-0.1-0.2-0.1-0.2-0.2c0,0-0.1,0.1-0.1,0.2c-0.6,0-0.9,0.6-1.2,1.1c-0.1,0.2-0.2,0.3-0.2,0.5
		c-0.1,0.2-0.2,0.4-0.3,0.6c0.6,0.7,0.9,1.5,1.5,2.2c-0.3,0.2-0.6,0.1-0.9,0.3c0.5,0.4,1,0.8,1.6,1.3c0.1-0.1,0.1-0.1,0.2-0.2
		c-0.1-0.3-0.3-0.5-0.4-0.8c0-0.1,0.1-0.1,0.1-0.2c0.8,0.4,1.2,0.6,1.6,1.5c0.3-0.1,0.6-0.4,0.8-0.6c-0.3-0.4-0.3-0.4-0.5-1.4
		c0-0.1,0.1-0.1,0.1-0.2c-0.1-0.1-0.2-0.2-0.2-0.3c0-0.1,0-0.3,0.1-0.4c0.6,0.8,0.6,0.8,0.9,1.3c0,0.1-0.1,0.1-0.1,0.2
		c0.1,0.1,0.2,0.2,0.3,0.3c-0.1,0.1-0.1,0.1-0.2,0.2c0.3,0.4,0.4,0.5,0.7,0.9c0,0.1-0.1,0.1-0.1,0.2c0.4,0.4,0.8,1,0.6,1.6
		c0.3,0.3,0.3,0.3,0.3,0.6c-0.2,0-0.4,0-0.5,0.1c0.1,0.2,0.2,0.4,0.3,0.6c0,0.3,0.2,0.5,0.1,0.8c-0.5-0.3-1-0.4-1.4-0.7
		c-0.1,0-0.2,0.1-0.2,0.2c-0.1-0.2-0.1-0.2,0-0.3c-0.7-0.7-0.7-0.7-0.7-0.8c-0.2-0.1-0.4-0.1-0.6-0.2c-0.1-0.1-0.2-0.2-0.3-0.3
		c0.1-0.5,0.5-0.6,0.8-0.9c-0.1-0.2-0.2-0.3-0.3-0.5c-0.4,0-0.4,0-0.6,0.2c-0.1,0-0.2-0.1-0.3-0.1c0-0.2,0-0.2-0.4-0.6
		c-0.2,0.1-0.5,0-0.7,0.1c0.2,0.3,0.2,0.5,0.5,0.9c0.5,0.5,0.5,1.1,0.8,1.5c0.2,0.7,1.8,2.5,2.6,2.5c0.1,0.3,0.1,0.3,1.6,1.7
		c-0.1,0-0.2,0-0.3,0.1c-0.4-0.3-0.8-0.7-1.2-1c-0.3,0.1-0.3,0.1-0.6,0c-0.1-0.3-1.3-1.6-1.7-1.6c-0.2-0.4-0.7-0.7-1.1-1
		c-1,0.6-0.3,1.9,0.6,1.1c0.6,0.5,1,0.7,1.2,1.4c-0.2,0-0.4-0.1-0.7-0.1c-0.2,0.1-0.4,0.3-0.5,0.4c-0.2-0.1-0.3-0.2-0.5-0.3
		c-0.1,0-0.1,0.1-0.2,0.1c-0.9-0.4-1.3-0.3-2.3-0.5c-0.1,0.1-0.2,0.3-0.3,0.4c-0.7,0-1.2,0-1.9-0.3c-0.2,0.2-0.4,0.4-0.6,0.6
		c-0.1,0-0.2-0.1-0.3-0.1c0-0.1,0-0.2,0-0.3c-0.1-0.1-0.2-0.2-0.3-0.3c-0.3,0.1-0.3,0.1-0.5,0.4c-0.5-0.4-0.7-0.6-1.3-0.8
		c-0.6,0.5-1.4,0.7-1.9,1.2c-0.3-0.2-0.5-0.4-0.8-0.6c-0.5,0.3-1.5-0.3-2-0.4c0.1-0.1,0.2-0.2,0.3-0.4c0.1,0.1,0.3,0.2,0.4,0.4
		c0.1-0.2,0.2-0.3,0.3-0.5c-0.2-0.1-0.3-0.2-0.4-0.4c-0.1,0.1-0.1,0.1-0.2,0.2c-0.1-0.1-0.2-0.1-0.2-0.2c-0.2,0.1-0.3,0.1-0.6,0.2
		c-0.1-0.1-0.2-0.1-0.2-0.2c-0.1,0-0.1,0.1-0.2,0.1c-0.5-0.2-1.2,0.1-1.5,0.4c0.1,0.4,0,0.5-0.3,0.8c0-0.1,0-0.2-0.1-0.2
		c-0.1,0-0.2,0-0.2,0c-0.7,0.9-1.3,1.7-1.9,2.7c-0.4,1.2-0.4,1.2-0.6,1.4c-0.1-0.1-0.2-0.1-0.3-0.2c-0.3,0.4-0.6,0.7-0.9,1.1
		c0.1,0.1,0.2,0.2,0.3,0.3c0.2-0.2,0.4-0.4,0.6-0.6c-0.1,1.2-0.1,1.3,0.6,2.3c0.1-0.1,0.1-0.1,0.2-0.2c0.1,0.1,0.1,0.1,0.2,0.2
		c-0.1,0.1-0.1,0.1-0.2,0.2c0.1,0,0.2,0.1,0.2,0.1c0.1-0.1,0.2-0.1,0.3-0.2c0.1,0,0.1,0.1,0.2,0.1c0.5,0.4,1,0.8,1.5,1.2
		c-0.3,0.4,0.4,0.4,0.7,0.6c0,0.1-0.1,0.1-0.1,0.2c0.6,0.4,1.3,0.9,1.9,1.3c0,0.3,0.4,0.5,0.6,0.8c-0.1,0.1-0.1,0.1-0.2,0.2
		c0.3,0.1,0.7,0.7,1,0.8c0.1-0.1,0.2-0.1,0.2-0.2c0.3,0.1,0.3,0.1,0.5,0.4c0,0.1-0.1,0.1-0.1,0.2c0.8,0.7,1.6,1.4,2.4,2
		c0.5,0.3,0.9,0.5,1.4,0.8c0.1,0,0.2-0.1,0.3-0.1c0.1,0.1,0.1,0.1,0.2,0.2c-0.1,0.1-0.1,0.1-0.2,0.2c0.6,0.2,0.6,0.2,3.3,2
		c0.1-0.1,0.1-0.1,0.2-0.2c0.1,0.1,0.2,0.2,0.3,0.3c0.1-0.1,0.1-0.1,0.2-0.2c0.9,0.5,2.5,1,3.5,0.7c1,0.1,1,0.1,1.3,0.3
		c0.1,0,0.1-0.1,0.2-0.1c0.6,0.2,0.8,0.3,1.4,0.1c0.1,0.1,0.2,0.1,0.3,0.2c0.1-0.1,0.1-0.1,0.2-0.2c0.1,0.1,0.1,0.1,0.2,0.2
		c0.1,0,0.1-0.1,0.2-0.1c0.1,0.1,0.2,0.1,0.3,0.2c0.7-0.4,1.2-0.8,1.8-1.3c0.4,0,0.4,0,0.6-0.2c-0.1-0.1-0.2-0.1-0.2-0.2
		c0.1-0.1,0.1-0.1,0.2-0.2c0.3,0.1,0.5,0.1,0.8,0.2c0.2-0.2,0.4-0.3,0.6-0.5c0.1,0.1,0.1,0.1,0.2,0.2c0.2-0.3,0.3-0.5,0.5-0.8
		c0.9-0.8,3.1-2.6,2.5-4.2c0.1-0.2,0.2-0.4,0.4-0.6c-0.1-0.1-0.1-0.1-0.2-0.2c0.1-0.1,0.1-0.1,0.2-0.2c-0.1-0.1-0.2-0.1-0.2-0.2
		c0.2-0.8-0.1-1-0.7-1.6c0.1-0.1,0.2-0.3,0.3-0.4c0.1,0.1,0.3,0.2,0.4,0.2c0,0.1-0.1,0.1-0.1,0.2c0.2,0.1,0.3,0.2,0.5,0.3
		c0.2-0.2,0.4-0.4,0.6-0.6c-0.4-0.4-3-2.8-2.8-3.3c0.2,0.1,0.4,0.3,0.6,0.4c0,0-0.1,0.1-0.1,0.2c1.2,0.4,1.6,1.5,3,2
		c0.3-0.7,0.6-0.3,1.2-0.7c0.1,0,0.1,0.1,0.2,0.1c0.1-0.1,0.3-0.2,0.4-0.4c0.1,0.1,0.2,0.1,0.3,0.2c0.1,0,0.1-0.1,0.2-0.1
		C401.2,82.8,401.3,82.9,401.5,82.9"/>
	<path fill="#102C4A" d="M2.6,107.2v7.4h5.1c0.9,0,1.7-0.4,2.4-1.1c0.7-0.7,1.1-1.6,1.1-2.6c0-1-0.4-1.9-1.1-2.6
		c-0.7-0.7-1.5-1.1-2.4-1.1H2.6z M0.4,125v-19.6h7.3c1.6,0,2.9,0.5,4,1.6c1.1,1.1,1.7,2.4,1.7,3.9c0,1.5-0.5,2.9-1.7,3.9
		c-1.1,1.1-2.4,1.6-4,1.6h-1l7.1,8.5H11l-8.4-10.2V125H0.4z"/>
	<path fill="#102C4A" d="M28.1,110.7V125H26v-1.5c-1.3,1.3-2.8,2-4.6,2c-1.7,0-3.2-0.6-4.4-1.8c-1.2-1.2-1.8-2.6-1.8-4.3v-8.7h2.1
		v8.7c0,1.2,0.4,2.3,1.2,3.1c0.8,0.8,1.8,1.2,3.1,1.2c1.2,0,2.3-0.4,3.1-1.2c0.8-0.8,1.2-1.8,1.2-3v-8.7H28.1z"/>
	<path fill="#102C4A" d="M31.3,125v-14.3h2.1v1.1c0.3-0.5,0.8-0.8,1.5-1.1c0.7-0.3,1.4-0.4,2.2-0.4v1.9c-1.1,0-1.9,0.4-2.7,1.1
		c-0.7,0.8-1.1,1.7-1.1,2.8v9H31.3z"/>
	<path fill="#102C4A" d="M45.4,112c-1.5,0-2.8,0.5-3.9,1.6c-1.2,1.1-1.7,2.5-1.7,4.2c0,1.7,0.6,3.1,1.7,4.2c1.1,1.1,2.4,1.6,3.9,1.6
		c1.5,0,2.8-0.5,3.9-1.6c1.2-1.1,1.7-2.5,1.7-4.2c0-1.7-0.6-3.1-1.7-4.2C48.2,112.5,46.8,112,45.4,112 M51,125v-2.1
		c-0.6,0.8-1.4,1.4-2.5,1.9c-1,0.5-2.1,0.7-3.1,0.7c-1,0-2-0.2-3-0.6c-0.9-0.4-1.8-0.9-2.5-1.7c-0.7-0.7-1.3-1.6-1.7-2.5
		c-0.4-0.9-0.6-1.9-0.6-2.9c0-1,0.2-2,0.6-2.9c0.4-0.9,1-1.8,1.7-2.5c0.7-0.7,1.6-1.3,2.5-1.7c0.9-0.4,1.9-0.6,3-0.6
		c1,0,2.1,0.2,3.1,0.7c1,0.5,1.9,1.1,2.5,1.9v-2.1h2.1V125H51z"/>
	<rect x="56" y="105.4" fill="#102C4A" width="2.2" height="19.6"/>
	<polygon fill="#102C4A" points="68.5,125 68.5,105.4 79.8,105.4 79.8,107.2 70.7,107.2 70.7,113.8 78.2,113.8 78.2,115.7 
		70.7,115.7 70.7,123.1 79.8,123.1 79.8,125 	"/>
	<path fill="#102C4A" d="M88.7,112c-1.5,0-2.8,0.5-3.9,1.6c-1.2,1.1-1.7,2.5-1.7,4.2c0,1.7,0.6,3.1,1.7,4.2c1.1,1.1,2.4,1.6,3.9,1.6
		c1.5,0,2.8-0.5,3.9-1.6c1.2-1.1,1.7-2.5,1.7-4.2c0-1.7-0.6-3.1-1.7-4.2C91.5,112.5,90.2,112,88.7,112 M94.4,125v-2.1
		c-0.6,0.8-1.4,1.4-2.5,1.9c-1,0.5-2.1,0.7-3.1,0.7c-1,0-2-0.2-3-0.6c-0.9-0.4-1.8-0.9-2.5-1.7c-0.7-0.7-1.3-1.6-1.7-2.5
		c-0.4-0.9-0.6-1.9-0.6-2.9c0-1,0.2-2,0.6-2.9c0.4-0.9,1-1.8,1.7-2.5c0.7-0.7,1.6-1.3,2.5-1.7c1-0.4,1.9-0.6,3-0.6
		c1,0,2.1,0.2,3.1,0.7c1,0.5,1.9,1.1,2.5,1.9v-2.1h2.1V125H94.4z"/>
	<path fill="#102C4A" d="M99.6,125v-14.3h2.1v1.1c0.3-0.5,0.8-0.8,1.5-1.1c0.7-0.3,1.4-0.4,2.2-0.4v1.9c-1.1,0-1.9,0.4-2.7,1.1
		c-0.7,0.8-1.1,1.7-1.1,2.8v9H99.6z"/>
	<rect x="106.7" y="105.4" fill="#102C4A" width="2.1" height="19.6"/>
	<path fill="#102C4A" d="M112.3,110.7L117,122l4.7-11.3h2.3l-7.3,17.7c-0.3,0.8-0.8,1.4-1.5,1.8c-0.7,0.4-1.4,0.7-2.3,0.7
		c-0.6,0-1.1-0.1-1.6-0.3c-0.5-0.2-1-0.5-1.3-0.9l1.6-1.4c0.1,0.2,0.3,0.4,0.6,0.5c0.3,0.1,0.5,0.2,0.8,0.2c0.8,0,1.4-0.4,1.7-1.3
		l1.2-2.8l-5.8-14.1H112.3z"/>
	<polygon fill="#102C4A" points="133,125 133,105.4 144.3,105.4 144.3,107.2 135.1,107.2 135.1,113.8 142.6,113.8 142.6,115.7 
		135.1,115.7 135.1,123.1 144.3,123.1 144.3,125 	"/>
	<path fill="#102C4A" d="M153.2,112c-1.5,0-2.8,0.5-3.9,1.6c-1.2,1.1-1.8,2.5-1.8,4.2c0,1.7,0.6,3.1,1.8,4.2
		c1.1,1.1,2.4,1.6,3.9,1.6c1.5,0,2.8-0.5,3.9-1.6c1.2-1.1,1.8-2.5,1.8-4.2c0-1.7-0.6-3.1-1.8-4.2C156,112.5,154.7,112,153.2,112
		 M161,105.4V125h-2.1v-2.1c-0.6,0.7-1.5,1.4-2.5,1.9c-1.1,0.5-2.1,0.7-3.1,0.7c-1,0-2-0.2-3-0.6c-1-0.4-1.8-0.9-2.5-1.7
		c-0.7-0.7-1.3-1.6-1.7-2.5c-0.4-0.9-0.6-1.9-0.6-2.9c0-1,0.2-2,0.6-2.9c0.4-0.9,1-1.8,1.7-2.5c0.7-0.7,1.6-1.3,2.5-1.7
		c1-0.4,1.9-0.6,3-0.6c1,0,2.1,0.2,3.1,0.7c1.1,0.5,1.9,1.1,2.5,1.9v-7.4H161z"/>
	<path fill="#102C4A" d="M176.6,110.7V125h-2.1v-1.5c-1.3,1.3-2.8,2-4.6,2c-1.7,0-3.2-0.6-4.4-1.8c-1.2-1.2-1.8-2.6-1.8-4.3v-8.7
		h2.1v8.7c0,1.2,0.4,2.3,1.2,3.1c0.8,0.8,1.8,1.2,3.1,1.2c1.2,0,2.3-0.4,3.1-1.2c0.8-0.8,1.2-1.8,1.2-3v-8.7H176.6z"/>
	<path fill="#102C4A" d="M194.3,121.3c-0.9,1.5-2,2.6-3.1,3.3c-1.2,0.7-2.7,1-4.5,1c-1.1,0-2.1-0.2-3-0.6c-1-0.4-1.8-0.9-2.6-1.7
		c-0.7-0.7-1.3-1.6-1.7-2.5c-0.4-0.9-0.6-1.9-0.6-2.9c0-1,0.2-2,0.6-2.9c0.4-0.9,1-1.8,1.7-2.5c0.7-0.7,1.6-1.3,2.6-1.7
		c1-0.4,2-0.6,3-0.6c1.8,0,3.3,0.3,4.5,1c1.2,0.7,2.2,1.7,3.1,3.2h-2.4c-0.7-0.8-1.4-1.4-2.2-1.8c-0.8-0.4-1.8-0.6-3-0.6
		c-1.7,0-3.1,0.6-4.2,1.8c-1.1,1.1-1.6,2.5-1.6,4.1c0,1.6,0.5,2.9,1.6,4.1c1.1,1.2,2.5,1.8,4.2,1.8c1.2,0,2.2-0.2,3-0.6
		c0.8-0.4,1.6-1,2.2-1.8H194.3z"/>
	<path fill="#102C4A" d="M203.1,112c-1.5,0-2.8,0.5-3.9,1.6c-1.2,1.1-1.7,2.5-1.7,4.2c0,1.7,0.6,3.1,1.7,4.2
		c1.1,1.1,2.4,1.6,3.9,1.6c1.5,0,2.8-0.5,3.9-1.6c1.2-1.1,1.7-2.5,1.7-4.2c0-1.7-0.6-3.1-1.7-4.2C205.9,112.5,204.6,112,203.1,112
		 M208.8,125v-2.1c-0.6,0.8-1.4,1.4-2.5,1.9c-1,0.5-2.1,0.7-3.1,0.7c-1,0-2-0.2-3-0.6c-0.9-0.4-1.8-0.9-2.5-1.7
		c-0.7-0.7-1.3-1.6-1.7-2.5c-0.4-0.9-0.6-1.9-0.6-2.9c0-1,0.2-2,0.6-2.9c0.4-0.9,1-1.8,1.7-2.5c0.7-0.7,1.6-1.3,2.5-1.7
		c0.9-0.4,1.9-0.6,3-0.6c1,0,2.1,0.2,3.1,0.7c1,0.5,1.9,1.1,2.5,1.9v-2.1h2.1V125H208.8z"/>
	<polygon fill="#102C4A" points="215.6,125 215.6,112.5 212.4,112.5 212.4,110.7 215.6,110.7 215.6,106.4 217.7,106.4 217.7,110.7 
		221,110.7 221,112.5 217.7,112.5 217.7,125 	"/>
	<path fill="#102C4A" d="M222.1,125h2.2v-14.3h-2.2V125z M222.1,108h2.2v-2.7h-2.2V108z"/>
	<path fill="#102C4A" d="M233.9,112c-1.6,0-2.9,0.6-4,1.7c-1.1,1.1-1.7,2.5-1.7,4.1c0,1.6,0.6,3,1.7,4.1c1.1,1.1,2.4,1.7,4,1.7
		c1.6,0,2.9-0.6,4-1.7c1.1-1.1,1.7-2.5,1.7-4.1c0-1.6-0.6-3-1.7-4.1C236.8,112.5,235.5,112,233.9,112 M241.7,117.8
		c0,1-0.2,2-0.6,2.9c-0.4,0.9-1,1.8-1.7,2.5c-0.7,0.7-1.6,1.3-2.5,1.7c-0.9,0.4-1.9,0.6-3,0.6s-2-0.2-3-0.6c-1-0.4-1.8-0.9-2.5-1.7
		c-0.7-0.7-1.3-1.6-1.7-2.5c-0.4-0.9-0.6-1.9-0.6-2.9c0-1,0.2-2,0.6-2.9c0.4-0.9,1-1.8,1.7-2.5c0.7-0.7,1.6-1.3,2.5-1.7
		c0.9-0.4,1.9-0.6,3-0.6s2,0.2,3,0.6c0.9,0.4,1.8,0.9,2.5,1.7c0.7,0.7,1.3,1.6,1.7,2.5C241.5,115.8,241.7,116.8,241.7,117.8"/>
	<path fill="#102C4A" d="M243.5,125v-14.3h2.1v1.5c1.1-1.3,2.7-2,4.6-2c1.7,0,3.2,0.6,4.4,1.8c1.2,1.2,1.8,2.6,1.8,4.3v8.7h-2.1
		v-8.7c0-1.3-0.4-2.3-1.2-3.1c-0.8-0.8-1.8-1.2-3-1.2c-1.2,0-2.3,0.4-3.1,1.2c-0.8,0.8-1.3,1.8-1.3,3.1v8.7H243.5z"/>
	<path fill="#102C4A" d="M273.5,123.1c1.1,0,2.1-0.2,3-0.6c1-0.4,1.8-1,2.5-1.8c0.7-0.7,1.3-1.6,1.6-2.6c0.4-1,0.6-2,0.6-3
		c0-1-0.2-2-0.6-3c-0.4-1-0.9-1.8-1.6-2.6c-0.7-0.8-1.6-1.4-2.5-1.8c-1-0.4-2-0.6-3-0.6h-4.6v15.9H273.5z M266.7,125v-19.6h6.7
		c1.3,0,2.6,0.2,3.8,0.7c1.2,0.5,2.3,1.2,3.2,2.1c0.9,0.9,1.7,2,2.2,3.2c0.5,1.2,0.8,2.4,0.8,3.8c0,1.3-0.2,2.6-0.8,3.7
		c-0.5,1.2-1.2,2.3-2.2,3.2c-0.9,0.9-2,1.6-3.2,2.1c-1.2,0.5-2.5,0.7-3.8,0.7H266.7z"/>
	<path fill="#102C4A" d="M298,116.2c-0.2-1-0.8-2-1.8-2.8c-1.1-0.9-2.3-1.4-3.7-1.4c-1.4,0-2.6,0.5-3.7,1.4
		c-0.9,0.8-1.5,1.8-1.8,2.8H298z M300.1,120.2c-0.5,1.6-1.5,2.9-2.9,3.8c-1.4,1-2.9,1.5-4.7,1.5c-1,0-2-0.2-3-0.6
		c-1-0.4-1.8-1-2.5-1.7c-0.7-0.7-1.3-1.6-1.7-2.5c-0.4-1-0.6-1.9-0.6-3c0-1,0.2-2,0.6-3c0.4-0.9,1-1.8,1.7-2.5
		c0.8-0.7,1.6-1.3,2.6-1.6c1-0.4,2-0.5,3-0.5c1,0,2,0.2,3,0.7c0.9,0.4,1.8,1,2.5,1.8c0.7,0.8,1.3,1.6,1.6,2.6c0.4,1,0.5,1.9,0.5,3
		h-13.4c0,0.7,0.1,1.3,0.4,2c0.3,0.7,0.7,1.3,1.2,1.8c1.1,1.2,2.5,1.8,4.1,1.8c1.1,0,2.1-0.3,3.1-1c1-0.6,1.6-1.5,2.1-2.5H300.1z"/>
	<polygon fill="#102C4A" points="306.9,125 300.7,110.7 303.1,110.7 308,122.6 312.9,110.7 315.2,110.7 309.1,125 	"/>
	<path fill="#102C4A" d="M328.9,116.2c-0.2-1-0.8-2-1.8-2.8c-1.1-0.9-2.3-1.4-3.7-1.4c-1.4,0-2.6,0.5-3.7,1.4
		c-0.9,0.8-1.5,1.8-1.8,2.8H328.9z M331,120.2c-0.5,1.6-1.5,2.9-2.9,3.8c-1.4,1-2.9,1.5-4.7,1.5c-1,0-2-0.2-3-0.6
		c-1-0.4-1.8-1-2.5-1.7c-0.7-0.7-1.3-1.6-1.7-2.5c-0.4-1-0.6-1.9-0.6-3c0-1,0.2-2,0.6-3c0.4-0.9,1-1.8,1.7-2.5
		c0.8-0.7,1.6-1.3,2.6-1.6c1-0.4,2-0.5,3-0.5c1,0,2,0.2,3,0.7c0.9,0.4,1.8,1,2.5,1.8c0.7,0.8,1.3,1.6,1.6,2.6c0.4,1,0.5,1.9,0.5,3
		h-13.4c0,0.7,0.1,1.3,0.4,2c0.3,0.7,0.7,1.3,1.2,1.8c1.1,1.2,2.5,1.8,4.1,1.8c1.1,0,2.1-0.3,3.1-1c1-0.6,1.6-1.5,2.1-2.5H331z"/>
	<rect x="333" y="105.4" fill="#102C4A" width="2.1" height="19.6"/>
	<path fill="#102C4A" d="M344.9,112c-1.6,0-2.9,0.6-4,1.7c-1.1,1.1-1.7,2.5-1.7,4.1c0,1.6,0.6,3,1.7,4.1c1.1,1.1,2.4,1.7,4,1.7
		c1.6,0,2.9-0.6,4-1.7c1.1-1.1,1.7-2.5,1.7-4.1c0-1.6-0.6-3-1.7-4.1C347.8,112.5,346.4,112,344.9,112 M352.7,117.8
		c0,1-0.2,2-0.6,2.9c-0.4,0.9-1,1.8-1.7,2.5c-0.7,0.7-1.6,1.3-2.5,1.7c-0.9,0.4-1.9,0.6-3,0.6c-1,0-2-0.2-3-0.6
		c-1-0.4-1.8-0.9-2.5-1.7c-0.7-0.7-1.3-1.6-1.7-2.5c-0.4-0.9-0.6-1.9-0.6-2.9c0-1,0.2-2,0.6-2.9c0.4-0.9,1-1.8,1.7-2.5
		c0.7-0.7,1.6-1.3,2.5-1.7c0.9-0.4,1.9-0.6,3-0.6c1,0,2,0.2,3,0.6c0.9,0.4,1.8,0.9,2.5,1.7c0.7,0.7,1.3,1.6,1.7,2.5
		C352.5,115.8,352.7,116.8,352.7,117.8"/>
	<path fill="#102C4A" d="M362.7,112c-1.6,0-2.9,0.6-4,1.7c-1.1,1.1-1.7,2.5-1.7,4.1c0,1.6,0.6,3,1.7,4.1c1.1,1.1,2.4,1.7,4,1.7
		s2.9-0.6,4-1.7c1.1-1.1,1.7-2.5,1.7-4.1c0-1.6-0.6-3-1.7-4.1C365.5,112.6,364.2,112,362.7,112 M354.9,110.7h2.1v2.1
		c0.7-0.8,1.5-1.4,2.5-1.9c1-0.5,2-0.7,3.1-0.7c1,0,2,0.2,3,0.6c0.9,0.4,1.8,0.9,2.5,1.7c0.7,0.7,1.3,1.6,1.7,2.5
		c0.4,0.9,0.6,1.9,0.6,2.9c0,1-0.2,2-0.6,2.9c-0.4,0.9-1,1.8-1.7,2.5c-0.7,0.7-1.6,1.3-2.5,1.7c-1,0.4-1.9,0.6-3,0.6
		c-1.1,0-2.1-0.2-3.1-0.7c-1-0.5-1.9-1.1-2.5-1.9v7.4h-2.1V110.7z"/>
	<path fill="#102C4A" d="M392.3,116c0-1.1-0.4-2-1.1-2.8c-0.7-0.8-1.7-1.2-2.8-1.2c-1.1,0-2,0.4-2.8,1.2c-0.7,0.8-1.1,1.7-1.1,2.8v9
		h-2.1v-9c0-1.1-0.4-2-1.1-2.8c-0.7-0.8-1.7-1.2-2.8-1.2c-1.1,0-2,0.4-2.8,1.2c-0.7,0.8-1.1,1.7-1.1,2.8v9h-2.1v-14.3h2.1v1.3
		c0.4-0.6,1-1,1.7-1.3c0.7-0.3,1.4-0.5,2.2-0.5c1,0,2,0.2,2.8,0.7c0.9,0.5,1.6,1.1,2.1,1.9c0.6-0.8,1.3-1.5,2.2-1.9
		c0.9-0.4,1.8-0.7,2.8-0.7c0.7,0,1.5,0.1,2.2,0.4c0.7,0.3,1.4,0.7,1.9,1.2c1.3,1.2,1.9,2.6,1.9,4.4v8.9h-2.1V116z"/>
	<path fill="#102C4A" d="M409.2,116.2c-0.2-1-0.8-2-1.8-2.8c-1.1-0.9-2.3-1.4-3.7-1.4c-1.4,0-2.6,0.5-3.7,1.4
		c-0.9,0.8-1.5,1.8-1.8,2.8H409.2z M411.3,120.2c-0.5,1.6-1.5,2.9-2.9,3.8c-1.4,1-2.9,1.5-4.7,1.5c-1,0-2-0.2-3-0.6
		c-1-0.4-1.8-1-2.5-1.7c-0.7-0.7-1.3-1.6-1.7-2.5c-0.4-1-0.6-1.9-0.6-3c0-1,0.2-2,0.6-3c0.4-0.9,1-1.8,1.7-2.5
		c0.8-0.7,1.6-1.3,2.6-1.6c1-0.4,2-0.5,3-0.5c1,0,2,0.2,3,0.7c0.9,0.4,1.8,1,2.5,1.8c0.7,0.8,1.3,1.6,1.6,2.6c0.4,1,0.5,1.9,0.5,3
		h-13.4c0,0.7,0.1,1.3,0.4,2c0.3,0.7,0.7,1.3,1.2,1.8c1.1,1.2,2.5,1.8,4.1,1.8c1.1,0,2.1-0.3,3.1-1c1-0.6,1.6-1.5,2.1-2.5H411.3z"/>
	<path fill="#102C4A" d="M413.2,125v-14.3h2.1v1.5c1.1-1.3,2.7-2,4.6-2c1.7,0,3.2,0.6,4.4,1.8c1.2,1.2,1.8,2.6,1.8,4.3v8.7H424v-8.7
		c0-1.3-0.4-2.3-1.2-3.1c-0.8-0.8-1.8-1.2-3-1.2c-1.2,0-2.3,0.4-3.1,1.2c-0.8,0.8-1.3,1.8-1.3,3.1v8.7H413.2z"/>
	<polygon fill="#102C4A" points="430.3,125 430.3,112.5 427.1,112.5 427.1,110.7 430.3,110.7 430.3,106.4 432.4,106.4 432.4,110.7 
		435.7,110.7 435.7,112.5 432.4,112.5 432.4,125 	"/>
	<polygon fill="#102C4A" points="444.8,125 444.8,105.4 455.6,105.4 455.6,107.2 447,107.2 447,113.8 454,113.8 454,115.7 
		447,115.7 447,125 	"/>
	<path fill="#102C4A" d="M469.3,110.7V125h-2.1v-1.5c-1.3,1.3-2.8,2-4.6,2c-1.7,0-3.2-0.6-4.4-1.8c-1.2-1.2-1.8-2.6-1.8-4.3v-8.7
		h2.1v8.7c0,1.2,0.4,2.3,1.2,3.1c0.8,0.8,1.8,1.2,3.1,1.2c1.2,0,2.3-0.4,3.1-1.2c0.8-0.8,1.2-1.8,1.2-3v-8.7H469.3z"/>
	<path fill="#102C4A" d="M472,125v-14.3h2.1v1.5c1.1-1.3,2.7-2,4.6-2c1.7,0,3.2,0.6,4.4,1.8c1.2,1.2,1.8,2.6,1.8,4.3v8.7h-2.1v-8.7
		c0-1.3-0.4-2.3-1.2-3.1c-0.8-0.8-1.8-1.2-3-1.2c-1.3,0-2.3,0.4-3.1,1.2c-0.8,0.8-1.3,1.8-1.3,3.1v8.7H472z"/>
	<path fill="#102C4A" d="M494.3,112c-1.5,0-2.8,0.5-3.9,1.6c-1.2,1.1-1.8,2.5-1.8,4.2c0,1.7,0.6,3.1,1.8,4.2
		c1.1,1.1,2.4,1.6,3.9,1.6c1.5,0,2.8-0.5,3.9-1.6c1.2-1.1,1.8-2.5,1.8-4.2c0-1.7-0.6-3.1-1.8-4.2C497,112.5,495.7,112,494.3,112
		 M502.1,105.4V125h-2.1v-2.1c-0.6,0.7-1.5,1.4-2.5,1.9c-1.1,0.5-2.1,0.7-3.1,0.7c-1,0-2-0.2-3-0.6c-1-0.4-1.8-0.9-2.5-1.7
		c-0.7-0.7-1.3-1.6-1.7-2.5c-0.4-0.9-0.6-1.9-0.6-2.9c0-1,0.2-2,0.6-2.9c0.4-0.9,1-1.8,1.7-2.5c0.7-0.7,1.6-1.3,2.5-1.7
		c1-0.4,1.9-0.6,3-0.6c1,0,2.1,0.2,3.1,0.7c1.1,0.5,1.9,1.1,2.5,1.9v-7.4H502.1z"/>
	<path fill="#102C4A" d="M3.6,144.3c-0.7,0.1-1.9,0.3-2.3,0.5c-0.1-0.7-0.3-1.1-0.6-1.7c0.4-0.1,0.9-0.3,1.2-0.6
		c2.2-2.4,3.5-4.2,4.2-5.8c0.6,0.4,1.4,0.8,1.8,1c0.3,0.2,0.3,0.3,0.1,0.4c-0.5,0.2-1.2,0.6-4.9,5.1l4.7-0.4
		c1.3-1.3,2.7-2.8,3.1-3.7c0.6,0.6,1.3,1.1,1.7,1.3c0.3,0.1,0.3,0.3,0,0.4c-0.5,0.1-1.4,0.7-8.1,6.7l6.9-0.6c0.3-0.9,0.7-2,0.9-3.1
		c0.7,0.2,1.5,0.3,2.1,0.3c0.3,0,0.4,0.2,0,0.4c-0.2,0.1-0.4,0.5-0.6,1c-0.7,2-1.6,3.7-3.1,5.2c-2,2-5.9,3.4-9.8,3.9
		c-0.1-0.6-0.8-1.4-1.4-1.8c4.4,0.1,9.5-2,11.3-4.7l-6.2,0.7c-0.8,0.1-1.9,0.3-2.8,0.6c-0.1-0.6-0.4-1.4-0.7-1.8
		c0.7-0.1,2.9-1.3,5.3-3.4L3.6,144.3z"/>
	<path fill="#102C4A" d="M53.2,148.4c-0.3-1-0.8-2.3-1.4-3.3l1.5-0.5c0.6,1,1.1,2.2,1.5,3.3L53.2,148.4z M60.3,140.9v1.7
		c-0.7-0.1-1.3-0.1-2.5-0.1v10c0,1.2-0.1,1.3-3,1.8c-0.2-0.6-0.5-1.3-0.9-1.9c2,0,2.3-0.2,2.3-0.7v-9.1h-2.7c-1.4,0-1.9,0-2.6,0.1
		v-1.7c0.7,0.1,1.3,0.1,2.6,0.1h2.7c0-2.3,0-3.6-0.1-4.1c0.6,0.1,1.2,0.2,1.8,0.2c0.4,0,0.4,0.2,0.1,0.3c-0.2,0.1-0.3,0.3-0.3,0.6
		v3.1C59.1,141,59.6,141,60.3,140.9 M49.1,147.7c-0.4-1.1-0.8-1.9-1.3-2.8l1.2-0.6c0.6,0.9,1.1,1.8,1.5,2.7L49.1,147.7z M43.4,150.5
		c-0.3-0.6-0.5-1-0.9-1.5c1.2-1.4,2.5-3.6,3.5-6.8c-1.3,0-2.2,0.1-2.9,0.2v-1.7c0.8,0.1,1.6,0.2,2.9,0.2c0-2.3-0.1-3.1-0.2-3.9
		c0.5,0.1,1.1,0.1,1.8,0.1c0.4,0,0.5,0.1,0.1,0.4c-0.2,0.1-0.2,0.3-0.2,0.6v2.8c0.9,0,1.6-0.1,2.1-0.2v1.7c-0.6-0.1-1.2-0.1-2.1-0.1
		v8.5c0,1.3,0,2.3,0.1,3.6h-1.9c0.1-1.3,0.2-2.3,0.2-3.6v-5.2C45.2,147.6,44.2,149.4,43.4,150.5"/>
	<path fill="#102C4A" d="M100.5,153.5c-3.1,0-3.5-0.4-3.5-2.1v-11.2c0-0.9-0.1-1.8-0.1-2.3c0.6,0.1,1.7,0.1,2.2,0.1
		c0.4,0,0.5,0.3,0.1,0.4c-0.2,0.1-0.4,0.5-0.4,0.7v12c0,0.6,0.1,0.8,1.7,0.8c1.8,0,2-0.3,2.4-2.4c0.2,0.5,1,1,1.7,1.1
		C103.9,153.1,103.5,153.5,100.5,153.5 M93.7,140.7c0,6.1,0,6.4-0.4,7.7c-0.6,2.4-2.5,4.4-4.8,5.7c-0.5-0.7-1.2-1.3-1.7-1.5
		c2.3-0.5,4.2-2.3,4.7-4c0.4-1.3,0.5-3.1,0.4-6.3c-0.1-2.7-0.1-3.7-0.3-4.2c0.6,0.1,1.6,0.2,2.1,0.2c0.4,0,0.4,0.2,0.1,0.4
		C93.8,138.8,93.7,139.4,93.7,140.7"/>
	<path fill="#102C4A" d="M140.7,147.7h3.8v-1.1h-3.8V147.7z M140.7,145.7h3.8v-1.1h-3.8V145.7z M136.8,141.4
		c-0.1-0.3-0.3-0.7-0.6-1.1l1.4-0.5c0.2,0.4,0.5,0.8,0.8,1.1L136.8,141.4z M139.4,146.7h-3.8v1.1h3.8V146.7z M139.4,144.5h-3.8v1.1
		h3.8V144.5z M139.1,137.2l1.8-0.3c0.1,0.6,0.3,1,0.5,1.6c2.5,0,4.3-0.1,5.7-0.2v1.5c-1.6-0.1-3.8-0.2-6.8-0.2
		c-3.1,0-5.2,0.1-6.8,0.2v-1.5c1.5,0.1,3.5,0.2,6.2,0.2C139.5,138,139.3,137.6,139.1,137.2 M140.7,152.3c3.1,0,5.4-0.1,7.2-0.1v1.4
		c-1.9-0.1-4.5-0.1-8.1-0.1c-3.6,0-6.2,0-8.1,0.1v-1.4c1.9,0.1,4.3,0.1,7.7,0.1V151c-2.6,0-4.5,0-5.9,0.1v-1.3
		c1.5,0.1,3.3,0.1,5.9,0.1v-1.2c-4.3,0-4.9,0-5.3,0.1c0.1-0.7,0.1-1.8,0.1-2.8c0-1.1,0-2.2-0.1-2.8c0.6,0.1,1.7,0.2,6,0.2
		c4.2,0,5.4-0.1,6-0.2c-0.1,0.6-0.1,1.7-0.1,2.8c0,0.9,0.1,2,0.1,2.8c-0.2-0.1-0.6-0.1-5.3-0.1v1.2c2.5,0,4.2-0.1,5.6-0.1v1.3
		c-1.4-0.1-3.2-0.1-5.6-0.1V152.3z M142.7,139.8c0.5,0.3,0.9,0.5,1.2,0.5c0.2,0,0.2,0.1,0,0.2c-0.3,0.1-0.5,0.3-1.1,1
		c2.4,0,4.2-0.1,5.7-0.2v1.4c-2.1-0.1-4.7-0.2-8.5-0.2c-3.8,0-6.5,0.1-8.6,0.2v-1.4c1.2,0.1,3.3,0.2,4.9,0.2h5.1
		C142.1,140.8,142.4,140.4,142.7,139.8"/>
	<path fill="#102C4A" d="M188.8,142.7H180v2.1h8.7V142.7z M188.8,139.3H180v2h8.7V139.3z M192.6,148.4v1.7c-1.8-0.1-4.3-0.2-7.5-0.2
		v1.1c0,0.9,0.1,2.1,0.2,3.3h-2c0.1-1.1,0.2-2.4,0.2-3.3v-1.1c-3.4,0-5.9,0.1-7.8,0.2v-1.7c1.9,0.1,4.4,0.2,7.8,0.2v-2.3
		c-2.6,0-3.8,0-5.1,0.1c0.1-1.2,0.2-2.8,0.2-4.3c0-1.6,0-3.1-0.2-4.3c1.6,0.1,3,0.2,6,0.2c3,0,4.6-0.1,6.2-0.2
		c-0.1,1.2-0.1,2.8-0.1,4.3c0,1.6,0,3.1,0.1,4.3c-1.3-0.1-3-0.1-5.5-0.1v2.3C188.3,148.6,190.7,148.5,192.6,148.4"/>
	<path fill="#102C4A" d="M231.4,147h3.2v-3.4h-3.2V147z M234.5,139.3h-3.2v3.1h3.2V139.3z M228.8,154.3c-0.3-0.3-0.8-0.6-1.4-0.8
		c2.2-2.3,2.6-4.5,2.6-8.9v-4.3c0-1-0.1-1.7-0.2-2.5c0.9,0.1,1.8,0.2,3,0.2c1.3,0,2.3,0,3.3-0.2c-0.1,0.6-0.2,1.5-0.2,2.5v12
		c0,1.4-0.1,1.6-2.8,1.8c0-0.6-0.1-1.1-0.5-1.8c1.7,0.1,1.9,0.1,1.9-0.8v-3.5h-3.2C231,150.4,230.1,152.8,228.8,154.3 M227,152.4
		c-0.4-0.7-1.1-1.5-1.7-1.9l1.1-0.8c0.7,0.6,1.3,1.1,1.8,1.8L227,152.4z M223.2,148.3h3.2v-1.8h-3.2V148.3z M223.2,145.4h3.2v-1.8
		h-3.2V145.4z M226.4,140.8h-3.2v1.7h3.2V140.8z M221.8,137.2c0.5,0.1,1.1,0.2,1.6,0.1c0.3,0,0.3,0.1,0.1,0.2
		c-0.2,0.2-0.2,0.3-0.2,0.6v1.4h3.2c0-1.3,0-2-0.2-2.4c0.6,0.1,1.1,0.2,1.6,0.2c0.3,0,0.3,0.2,0.2,0.3c-0.3,0.2-0.3,0.3-0.3,0.6v1.3
		c0.5,0,0.9-0.1,1.4-0.1v1.6c-0.4-0.1-0.9-0.1-1.4-0.2v7.4c0.5,0,0.9-0.1,1.3-0.2v1.5c-0.7-0.1-1.5-0.2-4.4-0.2
		c-2.9,0-3.7,0.1-4.4,0.2v-1.5c0.5,0.1,1.1,0.2,1.7,0.2v-7.4c-0.6,0-1.1,0.1-1.6,0.2v-1.6c0.5,0.1,1.1,0.1,1.6,0.2
		C221.9,138.4,221.9,137.8,221.8,137.2 M221.3,153.8c-0.4-0.3-0.8-0.6-1.5-0.7c1.1-0.7,2-1.8,2.7-3.3c0.5,0.3,1,0.6,1.6,0.7
		c0.2,0.1,0.2,0.2,0,0.2C223.7,150.9,223.1,151.5,221.3,153.8"/>
	<path fill="#102C4A" d="M277.1,140.9c-0.4-0.8-1.1-1.8-1.8-2.4l1.3-1c0.7,0.9,1.4,1.6,2.2,2.3L277.1,140.9z M273.9,149.8
		c1-0.8,1.9-2.1,2.5-3.7h-5.9c0,0.1-0.1,0.1-0.1,0.2C271,147.2,271.9,148.3,273.9,149.8 M265.9,143.4c0-0.5-0.2-0.9-0.6-1.7
		c0.9-0.7,1.6-2.2,1.9-4c0.5,0.2,1.2,0.5,1.7,0.6c0.2,0,0.3,0.2,0.1,0.3c-0.2,0.1-0.9,1.4-1.5,2.7h3.3c0.5-1.9,0.8-3.1,0.7-4.2
		c0.7,0.1,1.6,0.2,2.2,0.1c0.2,0,0.3,0.1,0.1,0.2c-0.2,0.1-0.4,0.6-0.6,1.1c-0.4,1-0.7,1.9-0.9,2.8c3.2,0,7.5-0.2,8.2-0.4v1.9
		c-1.2-0.1-2.9-0.1-5.5-0.1h-3c-0.2,0.7-0.5,1.4-0.8,2.1h3.9c1.1,0,2.7,0,3.8-0.1c-1.2,3.2-2.2,4.7-3.7,6.1c1.3,0.7,2.7,1,6.2,1.1
		c-0.5,0.5-0.9,1.2-1.1,2c-2.5-0.3-4.5-0.9-6.4-2.1c-1.6,1.1-4.1,2.1-6.5,2.5c-0.3-0.5-0.7-1.1-1.1-1.4c2.9-0.6,4.7-1.2,6.3-2.1
		c-1-0.9-2-1.9-3-3.2c-1.2,1.7-2.8,3.2-4.3,4.3c-0.4-0.7-0.8-1.1-1.6-1.5c2.8-1,5.6-4.3,6.7-7.7
		C267.8,142.6,266.7,142.9,265.9,143.4"/>
	<path fill="#102C4A" d="M316.5,146.6h2.8v-1.9h-2.8V146.6z M319.3,141.9h-2.8v1.6h2.8V141.9z M322.3,139h-10.6v1.7h10.6V139z
		 M312.8,144.9v-1.5c0.6,0.1,1.4,0.1,2.2,0.1v-1.6h-3.4c0,2.2,0,3.4,0,4.7h3.4v-1.9C314.2,144.8,313.5,144.8,312.8,144.9
		 M315.3,152.1c1.1-0.6,1.8-1,2.4-1.5c0,0.6,0.1,1,0.3,1.5c-2.3,1.1-3.3,1.8-3.7,2.4c-0.3-0.5-0.8-1.3-1.2-1.6
		c0.6-0.3,0.7-0.6,0.7-1.4v-3.6h-2.3c-0.2,2.4-0.6,4.1-1.6,6.3c-0.4-0.5-1-0.9-1.6-1c1.4-2.1,1.7-3.3,1.8-6.4c0.1-1.4,0-5.2-0.2-9
		c1.5,0.1,2.9,0.2,7,0.2c4.1,0,5.8-0.1,7.1-0.2c-0.1,0.6-0.2,1.3-0.1,2.1c0,0.8,0,1.6,0.1,2.4c-0.6-0.1-1.6-0.1-3.2-0.1v1.6
		c1.2,0,2.4-0.1,3.1-0.1v1.5c-0.8-0.1-1.8-0.2-3.1-0.2v1.9c2.4,0,3.9-0.1,4.6-0.2v1.6c-0.7-0.1-2.2-0.2-6.8-0.2
		c0.3,0.8,1,1.8,1.7,2.4c0.9-0.8,1.8-1.8,2-2.2c0.3,0.2,1.2,0.8,1.5,0.9c0.3,0.1,0.3,0.3-0.1,0.3c-0.2,0-1,0.4-2.4,1.6
		c1.5,0.7,3,1.1,4.5,1.1c-0.6,0.6-0.8,1.2-0.8,1.9c-4.5-1-6.4-2.6-7.7-6h-1.9V152.1z"/>
	<path fill="#102C4A" d="M366.4,142.1h-1.9c-0.4,0.8-0.8,1.7-1.4,2.6l1.1-0.1c0.1,1.6,0.5,2.8,1.1,3.9
		C366,147.2,366.3,145.1,366.4,142.1 M361.1,154.2c-0.3-0.5-0.8-1-1.4-1.3c2-0.7,3.5-1.7,4.7-3.2c-0.8-1.4-1.3-3.3-1.5-4.8
		c-0.2,0.4-0.4,0.7-0.6,0.9c-0.3-0.5-0.6-0.7-1-0.9c1.3-1.7,2.4-4.4,3.3-8c0.6,0.2,1.2,0.3,1.7,0.4c0.4,0,0.4,0.2,0,0.4
		c-0.2,0.1-0.4,0.6-1.4,3.1c3.6,0,4.3,0,4.7-0.1v1.5c-0.5,0-0.9-0.1-1.8-0.1c-0.3,4-0.8,6.1-1.8,7.7c1.1,1.4,1.9,1.9,3.6,2.5
		c-0.6,0.6-0.9,1.1-1.3,1.8c-1.2-0.9-2.2-1.9-3.1-3.1C364.2,152.3,362.8,153.4,361.1,154.2 M354,140.6V139c0.7,0.1,1.6,0.2,2.8,0.2
		c0-0.9-0.1-1.9-0.1-2.3c0.5,0.1,1.1,0.2,1.7,0.2c0.3,0,0.4,0.2,0.1,0.4c-0.2,0.2-0.3,0.4-0.3,0.7v1c1,0,1.3-0.1,1.9-0.2v1.6
		c-0.6-0.1-0.9-0.2-1.9-0.2v2h0.5c1.4-1.5,2.2-2.6,2.7-4.2c0.4,0.3,0.8,0.5,1.3,0.7c0.3,0.1,0.3,0.3,0.1,0.4c-0.2,0-0.4,0.2-0.8,0.9
		c-0.5,0.8-0.8,1.2-1.6,2.2c0.7,0,1.2-0.1,1.7-0.2v1.5c-0.8-0.1-1.4-0.2-2.8-0.2c-0.6,0.7-1.3,1.3-2,1.9c2,0,3,0,3.7-0.1v1.2
		c-0.4,0.2-0.7,0.4-1.1,0.7l-1.1,0.8v0.8c0.9-0.2,2-0.4,3.2-0.7c-0.1,0.5-0.1,0.9-0.1,1.3c-1.2,0.2-2.2,0.4-3.1,0.5v2.2
		c0,1.2-0.1,1.3-2.9,1.9c-0.1-0.6-0.2-1.1-0.5-1.7c1.5,0.1,2-0.1,2-0.5v-1.5c-1.8,0.3-2.8,0.6-4.1,0.9c-0.1-0.5-0.3-1-0.6-1.6
		c1.3,0,2.6-0.1,4.7-0.4v-1.5l1.6-1.1c-1.5,0-2.5,0-3.1,0c-0.8,0.7-1.7,1.2-2.5,1.7c-0.3-0.4-0.6-0.8-1.1-1c1-0.5,1.7-0.9,2.4-1.4
		v-0.6c0.2,0,0.5,0,0.8,0.1c0.7-0.5,1.4-1.1,2.1-1.9c-2.1,0-3.7,0.1-4.8,0.2v-1.5c1,0.1,2,0.2,4.1,0.2v-2
		C355.5,140.4,354.7,140.4,354,140.6"/>
	<path fill="#102C4A" d="M409.5,148.5h-8.3v1.4h8.3V148.5z M409.5,145.9h-8.3v1.4h8.3V145.9z M401.2,153.8h-1.8c0.1-1,0.2-2,0.2-2.7
		v-5c0-0.7,0-1.2-0.1-1.5c1,0,1.9,0.1,5.8,0.1c4.1,0,4.9,0,5.8-0.1c0,0.3-0.1,0.9-0.1,1.5v6c0,1.6-0.2,1.8-3.3,2.1
		c-0.1-0.5-0.3-1.2-0.7-1.8c2.2,0.2,2.4,0,2.4-1.2h-8.3V153.8z M407.6,141.1l1-0.8c1.3,0.7,2.8,1.8,4,2.7l-1.3,1.1
		c-0.3-0.4-0.6-0.7-0.9-1l-8.5,0.6c-1.2,0.1-1.7,0.1-2.5,0.3c-0.1-0.5-0.2-1-0.4-1.5c0.5-0.1,1.3-0.4,1.6-0.7
		c0.8-0.6,1.5-1.2,1.9-1.7c-2.3,0-4.2,0.1-5.7,0.2v-1.7c1.9,0.1,4.5,0.2,8,0.2c-0.2-0.7-0.5-1.2-0.8-1.7l2-0.4
		c0.2,0.7,0.5,1.5,0.8,2.1c3,0,5.4-0.1,7.2-0.2v1.7c-2.3-0.2-4.9-0.2-10.3-0.2c0.3,0.2,0.5,0.3,0.7,0.3c0.4,0.1,0.4,0.3,0,0.4
		c-0.3,0.1-0.5,0.2-2.4,1.6l7.4-0.4C408.6,141.7,408.1,141.4,407.6,141.1"/>
	<path fill="#102C4A" d="M446.6,145.6h5.9v-1.2h-5.9V145.6z M446.6,143.4h5.9v-1.3h-5.9V143.4z M452.4,139.9h-5.9v1.2h5.9V139.9z
		 M453.5,149.3v1.4c-0.8-0.1-1.8-0.1-3.1-0.1v1.6c2.7,0,4.7-0.1,6.2-0.2v1.5c-1.6-0.1-3.8-0.2-6.9-0.2c-3.1,0-5.3,0.1-6.9,0.2V152
		c1.5,0.1,3.5,0.2,6.2,0.2v-1.6c-1.4,0-2.4,0.1-3.2,0.2v-1.4c0.8,0.1,1.8,0.1,3.2,0.1c0-0.7-0.1-1.5-0.2-1.9c0.6,0.1,1,0.1,1.7,0.1
		c0.3,0,0.3,0.1,0.1,0.3c-0.2,0.1-0.3,0.4-0.3,0.7v0.9C451.7,149.4,452.7,149.4,453.5,149.3 M442,151.3c-0.2-0.6-0.7-1.1-1.3-1.3
		c2-0.6,3.7-1.7,5.5-3.3c-2.7,0-3.8,0.1-4.9,0.2v-1.5c1.2,0.1,2.5,0.2,3.8,0.2v-5.6c-1.1,0-2.2,0.1-3.2,0.2v-1.5
		c1,0.1,2.1,0.1,3.1,0.2c0-0.7-0.1-1.2-0.2-1.6c0.6,0.1,1.2,0.2,1.7,0.2c0.3,0,0.3,0.1,0.2,0.3c-0.2,0.2-0.2,0.4-0.2,0.8v0.4h5.8
		c0-0.9-0.1-1.5-0.1-1.9c0.6,0.1,1.2,0.2,1.8,0.2c0.3,0,0.3,0.2,0.2,0.3c-0.3,0.2-0.4,0.5-0.4,0.8v0.6c1.2,0,2.3-0.1,3.4-0.2v1.5
		c-1.1-0.1-2.2-0.1-3.4-0.2v5.6c1.4,0,2.7-0.1,3.9-0.2v1.5c-1-0.1-2-0.2-4.3-0.2c0.9,1.3,2.1,2.1,4.3,2.5c-0.5,0.5-0.9,1.1-1,1.8
		c-2.1-1.1-4.2-2.6-4.8-4.3h-4.4C446.8,148.2,444.6,149.9,442,151.3"/>
	<path fill="#102C4A" d="M489.2,151.6c-0.3-0.6-0.8-1.7-1.3-2.3l1.6-0.7c0.6,0.9,1,1.6,1.3,2.2L489.2,151.6z M502.6,142.6
		c-0.4,0.4-0.8,1.3-0.8,1.8c-3.4-1.1-6-3-8.3-6c-1,1.3-2.7,3.1-4.5,4.5c1,0.1,2.1,0.1,4.3,0.1c2.3,0,3.8,0,5.1-0.2v1.6
		c-1-0.1-2.3-0.1-4-0.1v2.4c2.4,0,4.3,0,5.6-0.1v1.5c-1.3-0.1-3.3-0.1-5.6-0.1v4l1.8,0c0.6-1.3,1-2.7,1.1-3.4
		c0.7,0.3,1.3,0.5,1.7,0.6c0.2,0.1,0.3,0.3,0,0.4c-0.2,0.1-0.5,0.5-1.6,2.4c1.5,0,2.6-0.1,3.8-0.2v1.8c-1.8-0.1-4.2-0.2-7.6-0.2
		c-3,0-5.7,0.1-7.5,0.2v-1.8c1.7,0.1,4.2,0.2,6.8,0.2v-4c-2.3,0-4.3,0-5.7,0.1v-1.6c1.4,0.1,3.4,0.1,5.7,0.1v-2.4c-2,0-3,0-4,0.1
		V143c-0.9,0.7-1.8,1.4-2.7,1.8c-0.2-0.5-0.6-0.9-1.2-1.2c1.9-0.8,3.6-2.2,5.4-3.9c1.2-1.2,1.8-2.2,2.2-3.2c0.5,0.2,1.5,0.6,1.8,0.6
		c0.5,0.1,0.5,0.3,0,0.5C497.1,140.7,499.1,141.7,502.6,142.6"/>
</g>
</svg>
