<?xml version="1.0" encoding="utf-8"?>
<!-- Generator: Adobe Illustrator 22.0.0, SVG Export Plug-In . SVG Version: 6.00 Build 0)  -->
<svg version="1.1" id="图层_1" xmlns="http://www.w3.org/2000/svg" xmlns:xlink="http://www.w3.org/1999/xlink" x="0px" y="0px"
	 viewBox="0 0 425.2 414.5" enable-background="new 0 0 425.2 414.5" xml:space="preserve">
<g>
	<defs>
		<rect id="SVGID_1_" width="425.2" height="414.5"/>
	</defs>
	<clipPath id="SVGID_2_">
		<use xlink:href="#SVGID_1_"  overflow="visible"/>
	</clipPath>
	<path clip-path="url(#SVGID_2_)" d="M93.1,249.1c-6.3-3.1-12.4-6-18.6-9c-6.4-3.1-12.9-6.1-19.4-9.2c-2.9-1.4-5.9-2.8-8.7-4.6
		c-7.6-4.8-15.5-9.2-22.5-14.7c-11.5-9-21.7-19.6-23.7-34.8c-0.8-5.6,0.7-12,2.9-17.4c4.2-10.1,9-20.1,14.6-29.5
		c6.3-10.8,13.4-21.1,20.6-31.4c13.3-19.1,26.9-38.1,43.9-54.3c3.2-3,5.4-7.3,8.7-10.1c10.9-9.4,21.7-19,33.4-27.2
		c5.5-3.8,12.1-7.3,19.8-6.9c9.6,0.5,16.9,6.6,20.7,14c3.2,6.4,6.4,12.8,9,19.5c1.8,4.7,2.6,9.8,3.6,14.8c2.9,14.2,2,28.2-2.1,42.1
		c-3.1,10.7-6.9,21.2-9.6,32c-2.1,8.3-5.7,15.4-11.7,21.3c-0.6,0.5-1.3,0.9-3.3,2.4c0.1-3.2-0.4-5.4,0.4-6.9
		c7-12.1,11.6-25.1,15.3-38.5c2.1-7.4,2.9-15.1,3.6-22.8c0.6-6.5,0.3-13.1,0-19.6c-0.2-4.1-0.5-8.4-2-12.1
		c-3.7-9.1-5.9-18.9-14.4-25.4c-4.6-3.5-8.5-4.8-14.8-3.7c-9.7,1.7-18.3,5.8-25.5,11.2C106,33.9,97.3,38,92.3,46.3
		c-1.8,2.9-4.8,5-7.2,7.6c-8.9,9.8-17.9,19.6-26.6,29.6c-2.4,2.8-3.6,6.6-5.7,9.7c-10.9,16.6-22.5,32.8-32.7,49.9
		c-4.8,8.1-8.2,17.6-9.4,26.8c-0.7,5.4,3,12.3,6.7,17.1c5.5,7.1,13.2,12.4,18.9,19.4c4.4,5.4,11.9,6.1,15.7,12.4
		c1.6,2.7,6.7,3.2,9.9,5.1c3.3,1.9,6.3,4.2,9.3,6.3c0.8,0.5,1.4,1.5,2.3,1.8c6.5,2.4,13.2,4.3,19.5,7c5.1,2.2,8.9,0.8,13.1-2.3
		c4.1-3,9.7-4.3,13.4-7.7c7.2-6.6,16.7-3.8,24.7-7.3c9.8-4.3,18.1-0.3,23.2,9.3c1.8,3.5,3.6,6.9,5.6,10.7c0.6-0.3,1.5-0.7,2.2-1.2
		c6.1-5.1,12-10.3,18.3-15.2c3-2.3,6.6-2.4,9.5,0.4c3.7,3.6,7.1,7.4,10.9,11.4c2.9-4,6.1-8,8.9-12.3c2.2-3.5,4.3-5.1,7.8-1.6
		c3.1,3.1,6.2,6.2,9.9,10c5.3-2.7,11.7-5.5,17.5-9.2c4-2.5,6-1.4,8.1,1.9c0.5,0.8,0.8,1.9,1.4,2.7c1.2,1.7,2.6,3.2,4,4.8
		c1.6-1.8,3.8-3.3,4.6-5.4c3.9-9.6,7.1-19.5,11-29.1c4.8-11.5,9.8-22.9,15.2-34.2c4.2-8.8,8.4-17.9,14.1-25.7
		c6.5-8.9,14.4-16.7,22.2-24.5c4.4-4.4,11.7-3.5,16.8,0.2c7.9,5.7,11,13.5,12.1,22.8c0.8,6.6,2.9,13.1,4,19.8
		c1.2,7.6,2.1,15.3,2.9,23c0.8,7.2,1.2,14.5,1.9,21.7c0.7,6.7,4,8.3,9.5,4.3c4.2-3.1,8-6.7,11.9-10.3c3.8-3.5,6.6-3.9,10.3-0.4
		c5.4,5.1,10.6,10.4,15.8,15.7c2.5,2.6,2,11.7-0.9,13.8c-1.1,0.8-3.8,0.9-4.8,0.1c-4.3-3.2-8.2-6.9-12.2-10.5
		c-1.8-1.6-3.3-3.6-4.8-5.1c-3.7,3.2-6.8,6.4-10.4,8.8c-3.9,2.6-8.2,4.8-12.6,6.5c-5,2.1-8,0.8-9.3-4.5c-1.6-6-3-12.3-3.3-18.5
		c-0.5-11.2-1.3-22.3-3.9-33.3c-1.9-8.1-1.5-16.8-3.5-24.9c-1.4-5.5-4.2-11.4-8.1-15.4c-3-3.1-8.9-1.6-12.4,1.4
		c-4.8,4-9.4,8.3-13.1,13.3c-5.7,7.8-11.1,16-15.7,24.5c-3.3,6.1-5,13.1-7.5,19.7c-0.5,1.4-1.5,2.6-2.1,3.9
		c-3.9,10.6-7.8,21.2-11.6,31.9c-0.3,0.7,0,1.6,0,2.1c4-1,7.7-2.2,11.4-2.8c5.9-1,10.4,2.1,15,5.3c4.1,2.8,8.4,5.4,12.8,7.5
		c4.1,1.9,5.6,4.6,4.2,9.1c-1.5,4.8-4.9,7.4-8.8,5.7c-4.7-2-9.4-4.3-13.3-7.4c-7.4-5.9-13-6.2-21.3-2.1c-10.3,5.1-11.5,14.7-14,23.9
		c-1.6,5.7-2.8,11.5-4.1,17.3c-1.9,8.2-4.4,16.2-5.4,24.5c-1.2,9.3-1.7,18.9-1.5,28.3c0.4,17,3,33.7,14.3,47.4
		c9.5,11.6,20.8,19.5,37.1,19.9c14.3,0.3,26.4-4.4,36.7-12.7c10.5-8.5,17.2-20.3,20.9-33.8c4.1-15,6.8-30.1,5.1-45.5
		c-1.5-13.4-2.6-27.1-8.7-39.4c-3.2-6.4-8.4-11.8-12.5-17.8c-3.6-5.2-3.1-8.5,1-12.3c2.2-2,3.5-1.5,5.3,0.6c8.2,9.7,13.1,21.3,17,33
		c2.7,8.3,3.5,17.4,4.6,26.2c0.8,6.7,1.1,13.5,1.1,20.3c-0.1,12.6-2.4,24.7-6.2,36.7c-3.5,10.9-8.1,21.1-15,30.1
		c-5.7,7.6-12.5,14.1-21.7,17.5c-2.8,1.1-5.4,3.1-8,4.8c-10.9,7-22.7,5.5-34.4,3.7c-13.7-2.1-22.8-11-30.9-21.6
		c-6-7.9-10.6-16.3-12.9-25.9c-0.5-1.9-0.8-3.9-0.9-5.8c-0.7-10.2-4.9-20.2-1.4-30.8c1.5-4.4,0.8-9.5,1.5-14.2
		c1.2-8.3,2.3-16.6,4.1-24.8c2.9-13,6.2-25.8,9.1-37.4c-3.5-4.1-6.3-7.7-9.6-10.9c-1-0.9-3.7-1.1-5-0.4c-5.3,2.5-10.3,5.7-15.6,8.1
		c-3.8,1.8-6.6-0.1-8.4-3.7c-1-2-1.9-4-3.2-6.9c-3.1,5-5.7,9.2-8.4,13.3c-0.7,1.1-1.6,2.1-2.5,3.1c-4.8,4.9-9,4-11.5-2.6
		c-1.2-3.1-2.2-6.3-3.5-9.3c-1.9-4.4-3.5-4.9-7.4-2c-7.1,5.4-14,11.1-21.2,16.4c-1.7,1.3-4.5,2.6-6,2c-1.8-0.8-3.2-3.4-3.9-5.6
		c-1.5-4.5-1.8-9.5-3.9-13.7c-1.2-2.5-4.6-5.4-7.2-5.6c-12.7-1.1-25,0.4-35.7,8.5c-0.4,0.3,0,0-0.4,0.3c-1.5,1.3-3.8,1.6-4.2,2.6
		 M125.7,14.9c5.5-5.2,13.9-0.4,19.3-5.8C137.6,7.9,131.2,9.8,125.7,14.9"/>
	<path clip-path="url(#SVGID_2_)" d="M410.9,136.6c-9.5,1.2-14.7-1.1-14.8-6.5c-0.2-6.1,3.6-10.6,8.6-10.3
		C411.4,120.2,412.4,122.9,410.9,136.6"/>
	<path clip-path="url(#SVGID_2_)" d="M209.1,176.9c-0.6-0.9-2.7-2.5-2.8-4.4c-0.4-5.2,3.4-11.5,5.4-10.2c2.3,1.5,4.6,4.4,5.2,7.1
		C217.7,173.4,214.3,176.9,209.1,176.9"/>
	<path clip-path="url(#SVGID_2_)" fill="#FFFFFF" d="M125.7,14.9c5.5-5.1,11.9-7,19.3-5.8C139.6,14.5,131.1,9.7,125.7,14.9"/>
	<path clip-path="url(#SVGID_2_)" fill="#FFFFFF" d="M225.3,282.7c-1.7,1.5-2.7,2.4-3.7,3.3c-0.9-1-2.2-1.9-2.4-3
		c-0.1-0.8,1.3-2.5,2.1-2.6C222.4,280.3,223.5,281.5,225.3,282.7"/>
	<path clip-path="url(#SVGID_2_)" d="M99.7,249.2c0,0-18.6,19.9-28.8,39.5c-10.2,19.6-4.1,21.1-1.5,21.7c2.6,0.6,39.5,4.6,50.9-5.4
		c11.4-10,15.6-9.8,15.4-16.3c-0.3-6.9,3.9-15.7-27.9-32.8c-8-4.9-15-9.2-15-9.2l8.1-4.2c0,0,35.1,13.4,42.6,22.7
		c7.5,9.2,3.5,24.8,0,32c-3.5,7.2-19.8,18.3-33.7,21.8c-13.9,3.6-23,0.7-34.9,0.6c-7.6-3.2-7-3.8-14-5.6c-7-1.8-8.2-13.8-5.7-20.5
		c2.5-6.7,20.4-32.1,33.5-44.7C96,241.9,99.7,249.2,99.7,249.2"/>
</g>
<g>
	<path fill="#040000" d="M67.9,359.1l2.2-2.5c2.1,2.2,5.1,3.7,8.2,3.7c3.9,0,6.2-1.9,6.2-4.9c0-3-2.1-4-4.9-5.3l-4.3-1.9
		c-2.8-1.2-6-3.3-6-7.6c0-4.6,4-7.9,9.3-7.9c3.5,0,6.6,1.5,8.7,3.7l-2,2.4c-1.8-1.7-4-2.8-6.8-2.8c-3.4,0-5.5,1.7-5.5,4.4
		c0,2.9,2.6,4,4.9,4.9l4.2,1.8c3.4,1.5,6.1,3.5,6.1,7.9c0,4.7-3.9,8.4-10.1,8.4C74.1,363.5,70.5,361.8,67.9,359.1z"/>
	<path fill="#040000" d="M93.2,334.2c0-1.5,1.1-2.4,2.5-2.4s2.5,0.9,2.5,2.4c0,1.4-1.1,2.4-2.5,2.4S93.2,335.5,93.2,334.2z
		 M93.9,341.1h3.7v22h-3.7V341.1z"/>
	<path fill="#040000" d="M105,341.1h3l0.3,3.2h0.1c1.9-2.1,4.2-3.8,6.8-3.8c3.4,0,5.2,1.6,6.1,4.2c2.3-2.5,4.6-4.2,7.2-4.2
		c4.5,0,6.7,3,6.7,8.6V363h-3.7v-13.4c0-4.1-1.3-5.9-4.1-5.9c-1.7,0-3.5,1.1-5.5,3.4V363h-3.7v-13.4c0-4.1-1.3-5.9-4.1-5.9
		c-1.7,0-3.5,1.1-5.5,3.4V363H105V341.1z"/>
	<path fill="#040000" d="M140.8,352.1c0-7.3,4.8-11.6,10.2-11.6s10.2,4.2,10.2,11.6c0,7.3-4.8,11.5-10.2,11.5
		S140.8,359.3,140.8,352.1z M157.3,352.1c0-5.1-2.6-8.5-6.4-8.5c-3.8,0-6.3,3.4-6.3,8.5s2.5,8.4,6.3,8.4
		C154.8,360.5,157.3,357.1,157.3,352.1z"/>
	<path fill="#040000" d="M166.9,341.1h3l0.3,3.2h0.1c2.1-2.1,4.4-3.7,7.4-3.7c4.6,0,6.7,3,6.7,8.6V363h-3.7v-13.4
		c0-4.1-1.3-5.9-4.2-5.9c-2.3,0-3.8,1.1-6,3.4V363h-3.7V341.1z"/>
	<path fill="#040000" d="M201,333.4h3.8v26.4h12.9v3.2H201V333.4z"/>
	<path fill="#040000" d="M221.9,334.2c0-1.5,1.1-2.4,2.5-2.4s2.5,0.9,2.5,2.4c0,1.4-1.1,2.4-2.5,2.4S221.9,335.5,221.9,334.2z
		 M222.6,341.1h3.7v22h-3.7V341.1z"/>
	<path fill="#040000" d="M68.3,396.7c0-9.6,5.6-15.4,13.1-15.4c3.6,0,6.4,1.8,8.1,3.7l-2,2.4c-1.5-1.7-3.5-2.8-6.1-2.8
		c-5.6,0-9.3,4.6-9.3,12c0,7.5,3.6,12.2,9.2,12.2c2.8,0,5-1.3,6.9-3.3l2.1,2.3c-2.3,2.7-5.3,4.2-9.1,4.2
		C73.9,412.1,68.3,406.4,68.3,396.7z"/>
	<path fill="#040000" d="M95.8,381.9h17.1v3.2H99.6v9.3h11.2v3.2H99.6v10.8h13.8v3.2H95.8V381.9z"/>
	<path fill="#040000" d="M117.9,396.6c0-9.5,5.2-15.3,12.7-15.3c7.4,0,12.7,5.8,12.7,15.3c0,9.5-5.2,15.4-12.7,15.4
		C123.1,412.1,117.9,406.1,117.9,396.6z M139.4,396.6c0-7.4-3.5-12-8.8-12c-5.3,0-8.8,4.6-8.8,12c0,7.4,3.5,12.2,8.8,12.2
		C135.9,408.8,139.4,404,139.4,396.6z"/>
</g>
</svg>
