<?xml version="1.0" encoding="utf-8"?>
<!-- Generator: Adobe Illustrator 22.0.0, SVG Export Plug-In . SVG Version: 6.00 Build 0)  -->
<svg version="1.1" id="图层_1" xmlns="http://www.w3.org/2000/svg" xmlns:xlink="http://www.w3.org/1999/xlink" x="0px" y="0px"
	 viewBox="0 0 400 333" enable-background="new 0 0 400 333" xml:space="preserve">
<rect x="63.6" y="202.6" fill="#231815" width="6.9" height="48.1"/>
<polygon fill="#231815" points="137.7,202.6 144.2,202.6 144.2,250.7 137.3,250.7 137.3,213.3 122.5,231.9 121.2,231.9 106.3,213.3 
	106.3,250.7 99.4,250.7 99.4,202.6 106,202.6 121.9,222.4 "/>
<g>
	<path fill="#231815" d="M191.8,208.4c-5.5,0-10,1.7-13.6,5.2c-3.5,3.4-5.3,7.8-5.3,13.2c0,5.2,1.8,9.5,5.3,13
		c3.6,3.4,8,5.2,13.3,5.2c5.4,0,9.8-1.8,13.4-5.3c3.6-3.5,5.4-7.9,5.4-13.1c0-5.1-1.8-9.4-5.4-12.9
		C201.4,210.2,197,208.4,191.8,208.4 M191.5,201.9c7.4,0,13.6,2.4,18.6,7.1c4.9,4.7,7.4,10.6,7.4,17.7c0,7.1-2.5,13-7.5,17.6
		c-5,4.6-11.3,7-18.9,7c-7.2,0-13.3-2.3-18.1-7c-4.8-4.6-7.2-10.5-7.2-17.5c0-7.2,2.4-13.1,7.3-17.8
		C178,204.3,184.1,201.9,191.5,201.9"/>
	<polygon fill="#231815" points="274.1,202.6 280.6,202.6 280.6,250.7 274.7,250.7 242.5,213.6 242.5,250.7 236.1,250.7 
		236.1,202.6 241.6,202.6 274.1,239.9 	"/>
	<polygon fill="#231815" points="331.5,202.6 338.4,202.6 338.4,244.4 360.1,244.4 360.1,250.7 331.5,250.7 	"/>
	<rect x="383.1" y="202.6" fill="#231815" width="6.9" height="48.1"/>
	<path fill="#231815" d="M23.7,230.5l-5.2-3.2c-3.3-2-5.6-4-7-5.9c-1.4-1.9-2.1-4.2-2.1-6.7c0-3.8,1.3-6.9,3.9-9.2
		c2.6-2.4,6-3.5,10.3-3.5c4,0,7.7,1.1,11.1,3.4v7.8c-3.5-3.3-7.2-5-11.2-5c-2.3,0-4.1,0.5-5.6,1.6c-1.5,1-2.2,2.4-2.2,4
		c0,1.4,0.5,2.8,1.6,4.1c1.1,1.3,2.8,2.6,5.2,4l5.3,3.1c5.9,3.5,8.8,8,8.8,13.4c0,3.9-1.3,7-3.9,9.4c-2.6,2.4-5.9,3.6-10.1,3.6
		c-4.8,0-9.1-1.5-13-4.4v-8.7c3.7,4.7,8,7.1,12.9,7.1c2.2,0,4-0.6,5.4-1.8c1.4-1.2,2.2-2.7,2.2-4.5
		C30.1,235.9,27.9,233.1,23.7,230.5"/>
	<polygon fill="#231815" points="10.2,284.5 24.2,284.5 24.2,287.9 14,287.9 14,295.2 24.2,295.2 24.2,298.5 14,298.5 14,310.7 
		10.2,310.7 	"/>
	<path fill="#231815" d="M70.4,284.5h3.7v14.9c0,2-0.1,3.5-0.4,4.6c-0.3,1-0.7,1.9-1.1,2.6c-0.4,0.7-1,1.3-1.6,1.8
		c-2.1,1.8-4.8,2.7-8.1,2.7c-3.4,0-6.2-0.9-8.2-2.7c-0.6-0.6-1.2-1.2-1.6-1.9c-0.4-0.7-0.8-1.5-1.1-2.5c-0.3-1-0.4-2.5-0.4-4.7
		v-14.9h3.8v14.9c0,2.5,0.3,4.2,0.8,5.1c0.6,1,1.4,1.8,2.6,2.3c1.2,0.6,2.5,0.9,4.1,0.9c2.2,0,4.1-0.6,5.5-1.7
		c0.7-0.6,1.3-1.4,1.6-2.2c0.3-0.9,0.5-2.3,0.5-4.4V284.5z"/>
	<path fill="#231815" d="M108.2,287.7h-1.1v8.2h1.4c1.9,0,3.2-0.2,3.9-0.5c0.7-0.3,1.3-0.8,1.7-1.5c0.4-0.6,0.6-1.4,0.6-2.2
		c0-0.8-0.2-1.5-0.7-2.2c-0.4-0.7-1.1-1.1-1.8-1.4C111.4,287.9,110,287.7,108.2,287.7 M103.3,310.7v-26.2h6.6c2.7,0,4.8,0.7,6.3,2
		c1.6,1.3,2.3,3.1,2.3,5.3c0,1.5-0.4,2.8-1.1,4c-0.8,1.1-1.9,1.9-3.3,2.5c0.8,0.5,1.7,1.3,2.5,2.3c0.8,1,1.9,2.6,3.4,5
		c0.9,1.5,1.6,2.6,2.2,3.4l1.4,1.9h-4.5L118,309c0-0.1-0.1-0.2-0.2-0.3l-0.7-1l-1.2-1.9l-1.3-2c-0.8-1.1-1.5-1.9-2.1-2.6
		c-0.6-0.6-1.2-1.1-1.8-1.4c-0.5-0.3-1.4-0.4-2.6-0.4h-1v11.4H103.3z"/>
	<polygon fill="#231815" points="168.8,284.5 172.4,284.5 172.4,310.7 169.1,310.7 151.6,290.5 151.6,310.7 148.1,310.7 
		148.1,284.5 151.1,284.5 168.8,304.9 	"/>
	<rect x="201.9" y="284.5" fill="#231815" width="3.8" height="26.2"/>
	<polygon fill="#231815" points="232,284.5 253.9,284.5 253.9,287.9 244.7,287.9 244.7,310.7 241,310.7 241,287.9 232,287.9 	"/>
	<path fill="#231815" d="M297.1,284.5h3.8v14.9c0,2-0.1,3.5-0.4,4.6c-0.3,1-0.7,1.9-1.1,2.6c-0.4,0.7-1,1.3-1.6,1.8
		c-2.1,1.8-4.8,2.7-8.2,2.7c-3.4,0-6.2-0.9-8.2-2.7c-0.6-0.6-1.2-1.2-1.6-1.9c-0.4-0.7-0.8-1.5-1.1-2.5c-0.3-1-0.4-2.5-0.4-4.7
		v-14.9h3.7v14.9c0,2.5,0.3,4.2,0.8,5.1c0.6,1,1.4,1.8,2.6,2.3c1.2,0.6,2.5,0.9,4.1,0.9c2.2,0,4.1-0.6,5.5-1.7
		c0.7-0.6,1.3-1.4,1.6-2.2c0.3-0.9,0.5-2.3,0.5-4.4V284.5z"/>
	<path fill="#231815" d="M333.8,287.7h-1.1v8.2h1.4c1.9,0,3.2-0.2,3.9-0.5c0.7-0.3,1.3-0.8,1.7-1.5c0.4-0.6,0.6-1.4,0.6-2.2
		c0-0.8-0.2-1.5-0.7-2.2c-0.4-0.7-1.1-1.1-1.8-1.4C336.9,287.9,335.6,287.7,333.8,287.7 M328.9,310.7v-26.2h6.6c2.7,0,4.8,0.7,6.3,2
		c1.6,1.3,2.3,3.1,2.3,5.3c0,1.5-0.4,2.8-1.1,4c-0.8,1.1-1.9,1.9-3.3,2.5c0.8,0.5,1.7,1.3,2.5,2.3c0.8,1,1.9,2.6,3.4,5
		c0.9,1.5,1.6,2.6,2.2,3.4l1.4,1.9h-4.5l-1.1-1.7c0-0.1-0.1-0.2-0.2-0.3l-0.7-1l-1.2-1.9l-1.3-2c-0.8-1.1-1.5-1.9-2.1-2.6
		c-0.7-0.6-1.2-1.1-1.8-1.4c-0.5-0.3-1.4-0.4-2.6-0.4h-1v11.4H328.9z"/>
	<polygon fill="#231815" points="374.8,284.5 389.6,284.5 389.6,287.9 378.5,287.9 378.5,295.8 389.2,295.8 389.2,299.2 
		378.5,299.2 378.5,307.3 390,307.3 390,310.7 374.8,310.7 	"/>
	<rect x="10.2" y="267.2" fill="#231815" width="379.7" height="0.9"/>
	<path fill="#EE7623" d="M276.5,100.2c0,4.1-3.3,7.4-7.4,7.4h-18c-4.1,0-7.4-3.3-7.4-7.4V25.2c0-4.1,3.3-7.4,7.4-7.4h18
		c4.1,0,7.4,3.3,7.4,7.4V100.2z"/>
	<path fill="#C23B33" d="M191.4,71.3c0-6.1,5-11.1,11.1-11.1H229c4.1,0,7.4-3.3,7.4-7.4V25.2c0-4.1-3.3-7.4-7.4-7.4h-56.6
		c-4.1,0-7.4,3.3-7.4,7.4v24c0,6.1-5,11.1-11.1,11.1h-20.8c-4.1,0-7.4,3.3-7.4,7.4v32.5c0,4.1,3.3,7.4,7.4,7.4H184
		c4.1,0,7.4-3.3,7.4-7.4V71.3z"/>
	<path fill="#C23B33" d="M236.4,75.1c0-4.1-3.3-7.4-7.4-7.4h-22.5c-4.1,0-7.4,3.3-7.4,7.4v72.1c0,3.8,2.9,7,6.6,7.3
		c0.2,0,0.5,0,0.8,0h62.6c4.1,0,7.4-3.3,7.4-7.4v-24.8c0-4.1-3.3-7.4-7.4-7.4h-21.7c-6.1,0-11.1-5-11.1-11.1V75.1z"/>
	<path fill="#EE7623" d="M191.4,122.3c0-4.1-3.3-7.4-7.4-7.4h-50.9c-4.1,0-7.4,3.3-7.4,7.4v24.8c0,4.1,3.3,7.4,7.4,7.4H184
		c4.1,0,7.4-3.3,7.4-7.4V122.3z"/>
	<path fill="#EE7623" d="M157.7,25.2c0-4.1-3.3-7.4-7.4-7.4h-17.2c-4.1,0-7.4,3.3-7.4,7.4v20.3c0,4.1,3.3,7.4,7.4,7.4h17.2
		c4.1,0,7.4-3.3,7.4-7.4V25.2z"/>
</g>
</svg>
